%TF.GenerationSoftware,KiCad,Pcbnew,10.0.6*%
%TF.CreationDate,2026-09-01T21:26:02+05:00*%
%TF.ProjectId,macro-pad,6d616372-6f2d-4706-9164-2e6b69636164,rev?*%
%TF.SameCoordinates,Original*%
%TF.FileFunction,Copper,L1,Top*%
%TF.FilePolarity,Positive*%
%FSLAX46Y46*%
G04 Gerber Fmt 4.6, Leading zero omitted, Abs format (unit mm)*
G04 Created by KiCad (PCBNEW 10.0.6) date 2026-09-01 21:26:02*
%MOMM*%
%LPD*%
G01*
G04 APERTURE LIST*
G04 Aperture macros list*
%AMRoundRect*
0 Rectangle with rounded corners*
0 $1 Rounding radius*
0 $2 $3 $4 $5 $6 $7 $8 $9 X,Y pos of 4 corners*
0 Add a 4 corners polygon primitive as box body*
4,1,4,$2,$3,$4,$5,$6,$7,$8,$9,$2,$3,0*
0 Add four circle primitives for the rounded corners*
1,1,$1+$1,$2,$3*
1,1,$1+$1,$4,$5*
1,1,$1+$1,$6,$7*
1,1,$1+$1,$8,$9*
0 Add four rect primitives between the rounded corners*
20,1,$1+$1,$2,$3,$4,$5,0*
20,1,$1+$1,$4,$5,$6,$7,0*
20,1,$1+$1,$6,$7,$8,$9,0*
20,1,$1+$1,$8,$9,$2,$3,0*%
G04 Aperture macros list end*
%TA.AperFunction,ComponentPad*%
%ADD10C,2.200000*%
%TD*%
%TA.AperFunction,ComponentPad*%
%ADD11RoundRect,0.250000X-0.550000X-0.550000X0.550000X-0.550000X0.550000X0.550000X-0.550000X0.550000X0*%
%TD*%
%TA.AperFunction,ComponentPad*%
%ADD12C,1.600000*%
%TD*%
%TA.AperFunction,ComponentPad*%
%ADD13R,1.700000X1.700000*%
%TD*%
%TA.AperFunction,ComponentPad*%
%ADD14O,1.700000X1.700000*%
%TD*%
%TA.AperFunction,ComponentPad*%
%ADD15R,3.500000X1.700000*%
%TD*%
%TA.AperFunction,ComponentPad*%
%ADD16O,3.600000X1.700000*%
%TD*%
%TA.AperFunction,ComponentPad*%
%ADD17O,3.700000X1.700000*%
%TD*%
%TA.AperFunction,ViaPad*%
%ADD18C,0.600000*%
%TD*%
%TA.AperFunction,Conductor*%
%ADD19C,0.200000*%
%TD*%
G04 APERTURE END LIST*
D10*
%TO.P,SW4,1,1_1*%
%TO.N,C0*%
X185000000Y-82420000D03*
%TO.P,SW4,2,2_2*%
%TO.N,Net-(D4-A)*%
X178650000Y-84960000D03*
%TD*%
D11*
%TO.P,D6,1,K_1*%
%TO.N,R1*%
X157380000Y-86150000D03*
D12*
%TO.P,D6,2,A_2*%
%TO.N,Net-(D6-A)*%
X165000000Y-86150000D03*
%TD*%
D10*
%TO.P,SW3,1,1_1*%
%TO.N,C2*%
X223000000Y-63460000D03*
%TO.P,SW3,2,2_2*%
%TO.N,Net-(D3-A)*%
X216650000Y-66000000D03*
%TD*%
D11*
%TO.P,D5,1,K_1*%
%TO.N,R1*%
X157380000Y-82600000D03*
D12*
%TO.P,D5,2,A_2*%
%TO.N,Net-(D5-A)*%
X165000000Y-82600000D03*
%TD*%
D10*
%TO.P,SW1,1,1_1*%
%TO.N,C0*%
X185000000Y-63500000D03*
%TO.P,SW1,2,2_2*%
%TO.N,Net-(D1-A)*%
X178650000Y-66040000D03*
%TD*%
D11*
%TO.P,D3,1,K_1*%
%TO.N,R0*%
X157380000Y-75500000D03*
D12*
%TO.P,D3,2,A_2*%
%TO.N,Net-(D3-A)*%
X165000000Y-75500000D03*
%TD*%
D11*
%TO.P,D1,1,K_1*%
%TO.N,R0*%
X157380000Y-68400000D03*
D12*
%TO.P,D1,2,A_2*%
%TO.N,Net-(D1-A)*%
X165000000Y-68400000D03*
%TD*%
D13*
%TO.P,U2,1,GND_1*%
%TO.N,GND*%
X180535000Y-53235000D03*
D14*
%TO.P,U2,2,VCC_2*%
%TO.N,INP*%
X180535000Y-50695000D03*
%TO.P,U2,3,SCL_3*%
%TO.N,SCL*%
X180535000Y-48155000D03*
%TO.P,U2,4,SDA_4*%
%TO.N,SDA*%
X180535000Y-45615000D03*
%TD*%
D11*
%TO.P,D4,1,K_1*%
%TO.N,R1*%
X157380000Y-79050000D03*
D12*
%TO.P,D4,2,A_2*%
%TO.N,Net-(D4-A)*%
X165000000Y-79050000D03*
%TD*%
D10*
%TO.P,SW6,1,1_1*%
%TO.N,C2*%
X223040000Y-82420000D03*
%TO.P,SW6,2,2_2*%
%TO.N,Net-(D6-A)*%
X216690000Y-84960000D03*
%TD*%
D15*
%TO.P,U1,1,PA02_A0_D0_1*%
%TO.N,C0*%
X149375000Y-45800000D03*
D16*
%TO.P,U1,2,PA4_A1_D1_2*%
%TO.N,C1*%
X149375000Y-48340000D03*
%TO.P,U1,3,PA10_A2_D2_3*%
%TO.N,C2*%
X149375000Y-50880000D03*
%TO.P,U1,4,PA11_A3_D3_4*%
%TO.N,R0*%
X149375000Y-53420000D03*
%TO.P,U1,5,PA8_A4_D4_SDA_5*%
%TO.N,SDA*%
X149375000Y-55960000D03*
%TO.P,U1,6,PA9_A5_D5_SCL_6*%
%TO.N,SCL*%
X149375000Y-58500000D03*
%TO.P,U1,7,PB08_A6_D6_TX_7*%
%TO.N,R1*%
X149375000Y-61040000D03*
%TO.P,U1,8,PB09_A7_D7_RX_8*%
%TO.N,unconnected-(U1-PB09_A7_D7_RX-Pad8)*%
X166625000Y-61040000D03*
%TO.P,U1,9,PA7_A8_D8_SCK_9*%
%TO.N,unconnected-(U1-PA7_A8_D8_SCK-Pad9)*%
X166625000Y-58500000D03*
%TO.P,U1,10,PA5_A9_D9_MISO_10*%
%TO.N,unconnected-(U1-PA5_A9_D9_MISO-Pad10)*%
X166625000Y-55960000D03*
D17*
%TO.P,U1,11,PA6_A10_D10_MOSI_11*%
%TO.N,unconnected-(U1-PA6_A10_D10_MOSI-Pad11)*%
X166625000Y-53420000D03*
%TO.P,U1,12,3V3_12*%
%TO.N,unconnected-(U1-3V3-Pad12)*%
X166625000Y-50880000D03*
%TO.P,U1,13,GND_13*%
%TO.N,GND*%
X166625000Y-48340000D03*
%TO.P,U1,14,5V_14*%
%TO.N,INP*%
X166625000Y-45800000D03*
%TD*%
D10*
%TO.P,SW5,1,1_1*%
%TO.N,C1*%
X204040000Y-82420000D03*
%TO.P,SW5,2,2_2*%
%TO.N,Net-(D5-A)*%
X197690000Y-84960000D03*
%TD*%
%TO.P,SW2,1,1_1*%
%TO.N,C1*%
X204000000Y-63500000D03*
%TO.P,SW2,2,2_2*%
%TO.N,Net-(D2-A)*%
X197650000Y-66040000D03*
%TD*%
D11*
%TO.P,D2,1,K_1*%
%TO.N,R0*%
X157380000Y-71950000D03*
D12*
%TO.P,D2,2,A_2*%
%TO.N,Net-(D2-A)*%
X165000000Y-71950000D03*
%TD*%
D18*
%TO.N,SCL*%
X153500000Y-58500000D03*
%TO.N,SDA*%
X153500000Y-55000000D03*
%TO.N,R0*%
X152000000Y-53500000D03*
X152000000Y-68500000D03*
%TO.N,R1*%
X150500000Y-79000000D03*
%TO.N,C0*%
X137500000Y-45000000D03*
X137500000Y-63500000D03*
%TO.N,C1*%
X138065687Y-64100000D03*
X138100000Y-48000000D03*
%TO.N,C2*%
X141000000Y-51000000D03*
X141000000Y-62500000D03*
%TD*%
%TO.N,GND*%
D19*
X175640000Y-48340000D02*
X180535000Y-53235000D01*
X165625000Y-48340000D02*
X175640000Y-48340000D01*
%TO.N,INP*%
X180535000Y-50695000D02*
X175640000Y-45800000D01*
X175640000Y-45800000D02*
X165625000Y-45800000D01*
%TO.N,SCL*%
X153500000Y-58500000D02*
X150375000Y-58500000D01*
%TO.N,SDA*%
X153500000Y-55000000D02*
X152540000Y-55960000D01*
X152540000Y-55960000D02*
X150375000Y-55960000D01*
%TO.N,R0*%
X150375000Y-53420000D02*
X151920000Y-53420000D01*
X157380000Y-68400000D02*
X152100000Y-68400000D01*
X151920000Y-53420000D02*
X152000000Y-53500000D01*
X152100000Y-68400000D02*
X152000000Y-68500000D01*
%TO.N,Net-(D1-A)*%
X178650000Y-66040000D02*
X167360000Y-66040000D01*
X167360000Y-66040000D02*
X165000000Y-68400000D01*
%TO.N,Net-(D2-A)*%
X191312944Y-71950000D02*
X197222944Y-66040000D01*
X165000000Y-71950000D02*
X191312944Y-71950000D01*
X197222944Y-66040000D02*
X197650000Y-66040000D01*
%TO.N,Net-(D3-A)*%
X216222944Y-66000000D02*
X216650000Y-66000000D01*
X165000000Y-75500000D02*
X206722944Y-75500000D01*
X206722944Y-75500000D02*
X216222944Y-66000000D01*
%TO.N,Net-(D4-A)*%
X178650000Y-84960000D02*
X170910000Y-84960000D01*
X170910000Y-84960000D02*
X165000000Y-79050000D01*
%TO.N,R1*%
X157380000Y-79050000D02*
X150550000Y-79050000D01*
X150550000Y-79050000D02*
X150500000Y-79000000D01*
%TO.N,Net-(D5-A)*%
X192372944Y-89850000D02*
X197262944Y-84960000D01*
X165000000Y-82600000D02*
X172250000Y-89850000D01*
X197262944Y-84960000D02*
X197690000Y-84960000D01*
X172250000Y-89850000D02*
X192372944Y-89850000D01*
%TO.N,Net-(D6-A)*%
X169100000Y-90250000D02*
X209844366Y-90250000D01*
X209844366Y-90250000D02*
X215134366Y-84960000D01*
X165000000Y-86150000D02*
X169100000Y-90250000D01*
X215134366Y-84960000D02*
X216690000Y-84960000D01*
%TO.N,C0*%
X185000000Y-63500000D02*
X137500000Y-63500000D01*
X137500000Y-45000000D02*
X149575000Y-45000000D01*
X149575000Y-45000000D02*
X150375000Y-45800000D01*
%TO.N,C1*%
X150035000Y-48000000D02*
X150375000Y-48340000D01*
X178689899Y-64100000D02*
X138065687Y-64100000D01*
X186979899Y-63500000D02*
X185479899Y-65000000D01*
X179589899Y-65000000D02*
X178689899Y-64100000D01*
X138100000Y-48000000D02*
X150035000Y-48000000D01*
X204000000Y-63500000D02*
X186979899Y-63500000D01*
X185479899Y-65000000D02*
X179589899Y-65000000D01*
%TO.N,C2*%
X221640000Y-62100000D02*
X184420101Y-62100000D01*
X150255000Y-51000000D02*
X150375000Y-50880000D01*
X223000000Y-63460000D02*
X221640000Y-62100000D01*
X184020101Y-62500000D02*
X141000000Y-62500000D01*
X184420101Y-62100000D02*
X184020101Y-62500000D01*
X141000000Y-51000000D02*
X150255000Y-51000000D01*
%TD*%
%TA.AperFunction,NonConductor*%
G36*
X175406942Y-46420185D02*
G01*
X175427584Y-46436819D01*
X179201241Y-50210476D01*
X179234726Y-50271799D01*
X179231492Y-50336473D01*
X179217753Y-50378757D01*
X179184500Y-50588713D01*
X179184500Y-50735903D01*
X179164815Y-50802942D01*
X179112011Y-50848697D01*
X179042853Y-50858641D01*
X178979297Y-50829616D01*
X178972819Y-50823584D01*
X176127590Y-47978355D01*
X176127588Y-47978352D01*
X176008717Y-47859481D01*
X176008716Y-47859480D01*
X175921904Y-47809360D01*
X175921904Y-47809359D01*
X175921900Y-47809358D01*
X175871785Y-47780423D01*
X175719057Y-47739499D01*
X175560943Y-47739499D01*
X175553347Y-47739499D01*
X175553331Y-47739500D01*
X168910719Y-47739500D01*
X168843680Y-47719815D01*
X168800235Y-47671795D01*
X168780052Y-47632185D01*
X168780051Y-47632184D01*
X168655109Y-47460213D01*
X168504786Y-47309890D01*
X168332820Y-47184951D01*
X168332115Y-47184591D01*
X168324054Y-47180485D01*
X168273259Y-47132512D01*
X168256463Y-47064692D01*
X168278999Y-46998556D01*
X168324054Y-46959515D01*
X168332816Y-46955051D01*
X168419138Y-46892335D01*
X168504786Y-46830109D01*
X168504788Y-46830106D01*
X168504792Y-46830104D01*
X168655104Y-46679792D01*
X168655106Y-46679788D01*
X168655109Y-46679786D01*
X168713661Y-46599193D01*
X168780051Y-46507816D01*
X168786690Y-46494786D01*
X168800235Y-46468205D01*
X168848209Y-46417409D01*
X168910719Y-46400500D01*
X175339903Y-46400500D01*
X175406942Y-46420185D01*
G37*
%TD.AperFunction*%
%TA.AperFunction,NonConductor*%
G36*
X136705703Y-45208477D02*
G01*
X136739061Y-45254738D01*
X136790602Y-45379172D01*
X136790609Y-45379185D01*
X136878210Y-45510288D01*
X136878213Y-45510292D01*
X136989707Y-45621786D01*
X136989711Y-45621789D01*
X137120814Y-45709390D01*
X137120827Y-45709397D01*
X137266498Y-45769735D01*
X137266503Y-45769737D01*
X137421153Y-45800499D01*
X137421156Y-45800500D01*
X137421158Y-45800500D01*
X137578844Y-45800500D01*
X137578845Y-45800499D01*
X137733497Y-45769737D01*
X137879179Y-45709394D01*
X137933663Y-45672989D01*
X138010875Y-45621398D01*
X138077553Y-45600520D01*
X138079766Y-45600500D01*
X147000500Y-45600500D01*
X147067539Y-45620185D01*
X147113294Y-45672989D01*
X147124500Y-45724500D01*
X147124500Y-46697870D01*
X147124501Y-46697876D01*
X147130908Y-46757483D01*
X147181202Y-46892328D01*
X147181206Y-46892335D01*
X147267452Y-47007544D01*
X147267455Y-47007547D01*
X147382664Y-47093793D01*
X147382673Y-47093798D01*
X147477664Y-47129227D01*
X147533598Y-47171098D01*
X147558016Y-47236562D01*
X147543165Y-47304835D01*
X147522015Y-47333089D01*
X147491922Y-47363181D01*
X147430602Y-47396666D01*
X147404242Y-47399500D01*
X138679766Y-47399500D01*
X138612727Y-47379815D01*
X138610875Y-47378602D01*
X138479185Y-47290609D01*
X138479172Y-47290602D01*
X138333501Y-47230264D01*
X138333489Y-47230261D01*
X138178845Y-47199500D01*
X138178842Y-47199500D01*
X138021158Y-47199500D01*
X138021155Y-47199500D01*
X137866510Y-47230261D01*
X137866498Y-47230264D01*
X137720827Y-47290602D01*
X137720814Y-47290609D01*
X137589711Y-47378210D01*
X137589707Y-47378213D01*
X137478213Y-47489707D01*
X137478210Y-47489711D01*
X137390609Y-47620814D01*
X137390602Y-47620827D01*
X137330264Y-47766498D01*
X137330261Y-47766510D01*
X137299500Y-47921153D01*
X137299500Y-48078846D01*
X137330261Y-48233489D01*
X137330264Y-48233501D01*
X137390602Y-48379172D01*
X137390609Y-48379185D01*
X137478210Y-48510288D01*
X137478213Y-48510292D01*
X137589707Y-48621786D01*
X137589711Y-48621789D01*
X137720814Y-48709390D01*
X137720827Y-48709397D01*
X137866498Y-48769735D01*
X137866503Y-48769737D01*
X138021153Y-48800499D01*
X138021156Y-48800500D01*
X138021158Y-48800500D01*
X138178844Y-48800500D01*
X138178845Y-48800499D01*
X138333497Y-48769737D01*
X138479179Y-48709394D01*
X138533663Y-48672989D01*
X138610875Y-48621398D01*
X138677553Y-48600520D01*
X138679766Y-48600500D01*
X146999551Y-48600500D01*
X147066590Y-48620185D01*
X147112345Y-48672989D01*
X147117482Y-48686182D01*
X147173444Y-48858414D01*
X147269951Y-49047820D01*
X147394890Y-49219786D01*
X147545213Y-49370109D01*
X147717182Y-49495050D01*
X147725946Y-49499516D01*
X147776742Y-49547491D01*
X147793536Y-49615312D01*
X147770998Y-49681447D01*
X147725946Y-49720484D01*
X147717182Y-49724949D01*
X147545213Y-49849890D01*
X147394890Y-50000213D01*
X147269951Y-50172180D01*
X147188623Y-50331795D01*
X147140648Y-50382591D01*
X147078138Y-50399500D01*
X141579766Y-50399500D01*
X141512727Y-50379815D01*
X141510875Y-50378602D01*
X141379185Y-50290609D01*
X141379172Y-50290602D01*
X141233501Y-50230264D01*
X141233489Y-50230261D01*
X141078845Y-50199500D01*
X141078842Y-50199500D01*
X140921158Y-50199500D01*
X140921155Y-50199500D01*
X140766510Y-50230261D01*
X140766498Y-50230264D01*
X140620827Y-50290602D01*
X140620814Y-50290609D01*
X140489711Y-50378210D01*
X140489707Y-50378213D01*
X140378213Y-50489707D01*
X140378210Y-50489711D01*
X140290609Y-50620814D01*
X140290602Y-50620827D01*
X140230264Y-50766498D01*
X140230261Y-50766510D01*
X140199500Y-50921153D01*
X140199500Y-51078846D01*
X140230261Y-51233489D01*
X140230264Y-51233501D01*
X140290602Y-51379172D01*
X140290609Y-51379185D01*
X140378210Y-51510288D01*
X140378213Y-51510292D01*
X140489707Y-51621786D01*
X140489711Y-51621789D01*
X140620814Y-51709390D01*
X140620827Y-51709397D01*
X140742479Y-51759786D01*
X140766503Y-51769737D01*
X140921153Y-51800499D01*
X140921156Y-51800500D01*
X140921158Y-51800500D01*
X141078844Y-51800500D01*
X141078845Y-51800499D01*
X141233497Y-51769737D01*
X141379179Y-51709394D01*
X141410711Y-51688325D01*
X141510875Y-51621398D01*
X141577553Y-51600520D01*
X141579766Y-51600500D01*
X147215983Y-51600500D01*
X147283022Y-51620185D01*
X147316299Y-51651612D01*
X147358277Y-51709390D01*
X147394896Y-51759792D01*
X147545213Y-51910109D01*
X147717182Y-52035050D01*
X147725946Y-52039516D01*
X147776742Y-52087491D01*
X147793536Y-52155312D01*
X147770998Y-52221447D01*
X147725946Y-52260484D01*
X147717182Y-52264949D01*
X147545213Y-52389890D01*
X147394890Y-52540213D01*
X147269951Y-52712179D01*
X147173444Y-52901585D01*
X147107753Y-53103760D01*
X147074500Y-53313713D01*
X147074500Y-53526286D01*
X147107753Y-53736239D01*
X147173444Y-53938414D01*
X147269951Y-54127820D01*
X147394890Y-54299786D01*
X147545213Y-54450109D01*
X147717182Y-54575050D01*
X147725946Y-54579516D01*
X147776742Y-54627491D01*
X147793536Y-54695312D01*
X147770998Y-54761447D01*
X147725946Y-54800484D01*
X147717182Y-54804949D01*
X147545213Y-54929890D01*
X147394890Y-55080213D01*
X147269951Y-55252179D01*
X147173444Y-55441585D01*
X147107753Y-55643760D01*
X147087800Y-55769738D01*
X147074500Y-55853713D01*
X147074500Y-56066287D01*
X147107754Y-56276243D01*
X147121486Y-56318507D01*
X147173444Y-56478414D01*
X147269951Y-56667820D01*
X147394890Y-56839786D01*
X147545213Y-56990109D01*
X147717182Y-57115050D01*
X147725946Y-57119516D01*
X147776742Y-57167491D01*
X147793536Y-57235312D01*
X147770998Y-57301447D01*
X147725946Y-57340484D01*
X147717182Y-57344949D01*
X147545213Y-57469890D01*
X147394890Y-57620213D01*
X147269951Y-57792179D01*
X147173444Y-57981585D01*
X147107753Y-58183760D01*
X147094649Y-58266498D01*
X147074500Y-58393713D01*
X147074500Y-58606287D01*
X147107754Y-58816243D01*
X147170803Y-59010288D01*
X147173444Y-59018414D01*
X147269951Y-59207820D01*
X147394890Y-59379786D01*
X147545213Y-59530109D01*
X147717182Y-59655050D01*
X147725946Y-59659516D01*
X147776742Y-59707491D01*
X147793536Y-59775312D01*
X147770998Y-59841447D01*
X147725946Y-59880484D01*
X147717182Y-59884949D01*
X147545213Y-60009890D01*
X147394890Y-60160213D01*
X147269951Y-60332179D01*
X147173444Y-60521585D01*
X147107753Y-60723760D01*
X147074500Y-60933713D01*
X147074500Y-61146287D01*
X147107754Y-61356243D01*
X147154301Y-61499500D01*
X147173444Y-61558414D01*
X147255371Y-61719205D01*
X147268267Y-61787874D01*
X147241991Y-61852615D01*
X147184884Y-61892872D01*
X147144886Y-61899500D01*
X141579766Y-61899500D01*
X141512727Y-61879815D01*
X141510875Y-61878602D01*
X141379185Y-61790609D01*
X141379172Y-61790602D01*
X141233501Y-61730264D01*
X141233489Y-61730261D01*
X141078845Y-61699500D01*
X141078842Y-61699500D01*
X140921158Y-61699500D01*
X140921155Y-61699500D01*
X140766510Y-61730261D01*
X140766498Y-61730264D01*
X140620827Y-61790602D01*
X140620814Y-61790609D01*
X140489711Y-61878210D01*
X140489707Y-61878213D01*
X140378213Y-61989707D01*
X140378210Y-61989711D01*
X140290609Y-62120814D01*
X140290602Y-62120827D01*
X140230264Y-62266498D01*
X140230261Y-62266510D01*
X140199500Y-62421153D01*
X140199500Y-62578846D01*
X140230261Y-62733489D01*
X140232031Y-62739324D01*
X140229279Y-62740158D01*
X140235503Y-62797359D01*
X140204309Y-62859878D01*
X140144266Y-62895608D01*
X140113445Y-62899500D01*
X138079766Y-62899500D01*
X138012727Y-62879815D01*
X138010875Y-62878602D01*
X137879185Y-62790609D01*
X137879172Y-62790602D01*
X137733501Y-62730264D01*
X137733489Y-62730261D01*
X137578845Y-62699500D01*
X137578842Y-62699500D01*
X137421158Y-62699500D01*
X137421155Y-62699500D01*
X137266510Y-62730261D01*
X137266498Y-62730264D01*
X137120827Y-62790602D01*
X137120814Y-62790609D01*
X136989711Y-62878210D01*
X136989707Y-62878213D01*
X136878213Y-62989707D01*
X136878210Y-62989711D01*
X136790609Y-63120814D01*
X136790602Y-63120827D01*
X136739061Y-63245261D01*
X136695220Y-63299665D01*
X136628926Y-63321730D01*
X136561227Y-63304451D01*
X136513616Y-63253314D01*
X136500500Y-63197809D01*
X136500500Y-45302190D01*
X136520185Y-45235151D01*
X136572989Y-45189396D01*
X136642147Y-45179452D01*
X136705703Y-45208477D01*
G37*
%TD.AperFunction*%
%TA.AperFunction,NonConductor*%
G36*
X183500739Y-64120185D02*
G01*
X183544184Y-64168204D01*
X183570171Y-64219206D01*
X183583067Y-64287874D01*
X183556791Y-64352614D01*
X183499685Y-64392872D01*
X183459686Y-64399500D01*
X179889996Y-64399500D01*
X179822957Y-64379815D01*
X179802315Y-64363181D01*
X179751315Y-64312181D01*
X179717830Y-64250858D01*
X179722814Y-64181166D01*
X179764686Y-64125233D01*
X179830150Y-64100816D01*
X179838996Y-64100500D01*
X183433700Y-64100500D01*
X183500739Y-64120185D01*
G37*
%TD.AperFunction*%
%TA.AperFunction,NonConductor*%
G36*
X230942539Y-42020185D02*
G01*
X230988294Y-42072989D01*
X230999500Y-42124500D01*
X230999500Y-98875500D01*
X230979815Y-98942539D01*
X230927011Y-98988294D01*
X230875500Y-98999500D01*
X136624500Y-98999500D01*
X136557461Y-98979815D01*
X136511706Y-98927011D01*
X136500500Y-98875500D01*
X136500500Y-85549983D01*
X156079500Y-85549983D01*
X156079500Y-86750001D01*
X156079501Y-86750018D01*
X156090000Y-86852796D01*
X156090001Y-86852799D01*
X156113334Y-86923211D01*
X156145186Y-87019334D01*
X156237288Y-87168656D01*
X156361344Y-87292712D01*
X156510666Y-87384814D01*
X156677203Y-87439999D01*
X156779991Y-87450500D01*
X157980008Y-87450499D01*
X158082797Y-87439999D01*
X158249334Y-87384814D01*
X158398656Y-87292712D01*
X158522712Y-87168656D01*
X158614814Y-87019334D01*
X158669999Y-86852797D01*
X158680500Y-86750009D01*
X158680499Y-85549992D01*
X158669999Y-85447203D01*
X158614814Y-85280666D01*
X158522712Y-85131344D01*
X158398656Y-85007288D01*
X158249334Y-84915186D01*
X158082797Y-84860001D01*
X158082795Y-84860000D01*
X157980010Y-84849500D01*
X156779998Y-84849500D01*
X156779981Y-84849501D01*
X156677203Y-84860000D01*
X156677200Y-84860001D01*
X156510668Y-84915185D01*
X156510663Y-84915187D01*
X156361342Y-85007289D01*
X156237289Y-85131342D01*
X156145187Y-85280663D01*
X156145185Y-85280668D01*
X156130699Y-85324385D01*
X156090001Y-85447203D01*
X156090001Y-85447204D01*
X156090000Y-85447204D01*
X156079500Y-85549983D01*
X136500500Y-85549983D01*
X136500500Y-81999983D01*
X156079500Y-81999983D01*
X156079500Y-83200001D01*
X156079501Y-83200018D01*
X156090000Y-83302796D01*
X156090001Y-83302799D01*
X156137856Y-83447213D01*
X156145186Y-83469334D01*
X156237288Y-83618656D01*
X156361344Y-83742712D01*
X156510666Y-83834814D01*
X156677203Y-83889999D01*
X156779991Y-83900500D01*
X157980008Y-83900499D01*
X158082797Y-83889999D01*
X158249334Y-83834814D01*
X158398656Y-83742712D01*
X158522712Y-83618656D01*
X158614814Y-83469334D01*
X158669999Y-83302797D01*
X158680500Y-83200009D01*
X158680499Y-82497648D01*
X163699500Y-82497648D01*
X163699500Y-82702351D01*
X163731522Y-82904534D01*
X163794781Y-83099223D01*
X163887715Y-83281613D01*
X164008028Y-83447213D01*
X164152786Y-83591971D01*
X164307749Y-83704556D01*
X164318390Y-83712287D01*
X164434607Y-83771503D01*
X164500776Y-83805218D01*
X164500778Y-83805218D01*
X164500781Y-83805220D01*
X164591856Y-83834812D01*
X164695465Y-83868477D01*
X164796557Y-83884488D01*
X164897648Y-83900500D01*
X164897649Y-83900500D01*
X165102351Y-83900500D01*
X165102352Y-83900500D01*
X165304534Y-83868477D01*
X165318842Y-83863827D01*
X165388682Y-83861831D01*
X165444842Y-83894077D01*
X170988584Y-89437819D01*
X171022069Y-89499142D01*
X171017085Y-89568834D01*
X170975213Y-89624767D01*
X170909749Y-89649184D01*
X170900903Y-89649500D01*
X169400098Y-89649500D01*
X169333059Y-89629815D01*
X169312417Y-89613181D01*
X166294077Y-86594842D01*
X166260592Y-86533519D01*
X166263828Y-86468841D01*
X166268477Y-86454534D01*
X166300500Y-86252352D01*
X166300500Y-86047648D01*
X166268477Y-85845466D01*
X166205220Y-85650781D01*
X166205218Y-85650778D01*
X166205218Y-85650776D01*
X166153865Y-85549991D01*
X166112287Y-85468390D01*
X166092039Y-85440521D01*
X165991971Y-85302786D01*
X165847213Y-85158028D01*
X165681613Y-85037715D01*
X165681612Y-85037714D01*
X165681610Y-85037713D01*
X165621898Y-85007288D01*
X165499223Y-84944781D01*
X165304534Y-84881522D01*
X165129995Y-84853878D01*
X165102352Y-84849500D01*
X164897648Y-84849500D01*
X164873329Y-84853351D01*
X164695465Y-84881522D01*
X164500776Y-84944781D01*
X164318386Y-85037715D01*
X164152786Y-85158028D01*
X164008028Y-85302786D01*
X163887715Y-85468386D01*
X163794781Y-85650776D01*
X163731522Y-85845465D01*
X163699500Y-86047648D01*
X163699500Y-86252351D01*
X163731522Y-86454534D01*
X163794781Y-86649223D01*
X163887715Y-86831613D01*
X164008028Y-86997213D01*
X164152786Y-87141971D01*
X164290883Y-87242302D01*
X164318390Y-87262287D01*
X164434607Y-87321503D01*
X164500776Y-87355218D01*
X164500778Y-87355218D01*
X164500781Y-87355220D01*
X164539588Y-87367829D01*
X164695465Y-87418477D01*
X164796557Y-87434488D01*
X164897648Y-87450500D01*
X164897649Y-87450500D01*
X165102351Y-87450500D01*
X165102352Y-87450500D01*
X165304534Y-87418477D01*
X165318842Y-87413827D01*
X165388682Y-87411831D01*
X165444841Y-87444076D01*
X168731284Y-90730520D01*
X168731286Y-90730521D01*
X168731290Y-90730524D01*
X168868209Y-90809573D01*
X168868216Y-90809577D01*
X169020943Y-90850501D01*
X169020945Y-90850501D01*
X169186654Y-90850501D01*
X169186670Y-90850500D01*
X209757697Y-90850500D01*
X209757713Y-90850501D01*
X209765309Y-90850501D01*
X209923420Y-90850501D01*
X209923423Y-90850501D01*
X210076151Y-90809577D01*
X210126270Y-90780639D01*
X210213082Y-90730520D01*
X210324886Y-90618716D01*
X210324886Y-90618714D01*
X210335094Y-90608507D01*
X210335095Y-90608504D01*
X215144250Y-85799350D01*
X215205571Y-85765867D01*
X215275263Y-85770851D01*
X215331196Y-85812723D01*
X215332247Y-85814148D01*
X215469201Y-86002649D01*
X215469205Y-86002654D01*
X215469207Y-86002656D01*
X215647344Y-86180793D01*
X215647345Y-86180794D01*
X215647344Y-86180794D01*
X215653661Y-86185383D01*
X215696327Y-86240714D01*
X215702305Y-86310327D01*
X215669699Y-86372122D01*
X215608860Y-86406479D01*
X215561378Y-86408174D01*
X215506611Y-86399500D01*
X215333389Y-86399500D01*
X215293728Y-86405781D01*
X215162302Y-86426597D01*
X215079927Y-86453362D01*
X215032290Y-86468841D01*
X214997552Y-86480128D01*
X214843211Y-86558768D01*
X214786289Y-86600125D01*
X214703072Y-86660586D01*
X214703070Y-86660588D01*
X214703069Y-86660588D01*
X214580588Y-86783069D01*
X214580588Y-86783070D01*
X214580586Y-86783072D01*
X214545321Y-86831610D01*
X214478768Y-86923211D01*
X214400128Y-87077552D01*
X214346597Y-87242302D01*
X214324026Y-87384812D01*
X214319500Y-87413389D01*
X214319500Y-87586611D01*
X214346598Y-87757701D01*
X214400127Y-87922445D01*
X214478768Y-88076788D01*
X214580586Y-88216928D01*
X214703072Y-88339414D01*
X214843212Y-88441232D01*
X214997555Y-88519873D01*
X215162299Y-88573402D01*
X215333389Y-88600500D01*
X215333390Y-88600500D01*
X215506610Y-88600500D01*
X215506611Y-88600500D01*
X215677701Y-88573402D01*
X215842445Y-88519873D01*
X215996788Y-88441232D01*
X216136928Y-88339414D01*
X216259414Y-88216928D01*
X216361232Y-88076788D01*
X216439873Y-87922445D01*
X216493402Y-87757701D01*
X216520500Y-87586611D01*
X216520500Y-87413389D01*
X216510854Y-87352486D01*
X218249500Y-87352486D01*
X218249500Y-87647513D01*
X218275901Y-87848038D01*
X218288007Y-87939993D01*
X218362212Y-88216930D01*
X218364361Y-88224951D01*
X218364364Y-88224961D01*
X218477254Y-88497500D01*
X218477258Y-88497510D01*
X218624761Y-88752993D01*
X218804352Y-88987040D01*
X218804358Y-88987047D01*
X219012952Y-89195641D01*
X219012959Y-89195647D01*
X219247006Y-89375238D01*
X219502489Y-89522741D01*
X219502490Y-89522741D01*
X219502493Y-89522743D01*
X219633508Y-89577011D01*
X219760987Y-89629815D01*
X219775048Y-89635639D01*
X220060007Y-89711993D01*
X220352494Y-89750500D01*
X220352501Y-89750500D01*
X220647499Y-89750500D01*
X220647506Y-89750500D01*
X220939993Y-89711993D01*
X221224952Y-89635639D01*
X221497507Y-89522743D01*
X221752994Y-89375238D01*
X221987042Y-89195646D01*
X222195646Y-88987042D01*
X222375238Y-88752994D01*
X222522743Y-88497507D01*
X222635639Y-88224952D01*
X222711993Y-87939993D01*
X222750500Y-87647506D01*
X222750500Y-87413389D01*
X224479500Y-87413389D01*
X224479500Y-87586611D01*
X224506598Y-87757701D01*
X224560127Y-87922445D01*
X224638768Y-88076788D01*
X224740586Y-88216928D01*
X224863072Y-88339414D01*
X225003212Y-88441232D01*
X225157555Y-88519873D01*
X225322299Y-88573402D01*
X225493389Y-88600500D01*
X225493390Y-88600500D01*
X225666610Y-88600500D01*
X225666611Y-88600500D01*
X225837701Y-88573402D01*
X226002445Y-88519873D01*
X226156788Y-88441232D01*
X226296928Y-88339414D01*
X226419414Y-88216928D01*
X226521232Y-88076788D01*
X226599873Y-87922445D01*
X226653402Y-87757701D01*
X226680500Y-87586611D01*
X226680500Y-87413389D01*
X226653402Y-87242299D01*
X226599873Y-87077555D01*
X226521232Y-86923212D01*
X226419414Y-86783072D01*
X226296928Y-86660586D01*
X226156788Y-86558768D01*
X226002445Y-86480127D01*
X225837701Y-86426598D01*
X225837699Y-86426597D01*
X225837698Y-86426597D01*
X225706271Y-86405781D01*
X225666611Y-86399500D01*
X225493389Y-86399500D01*
X225453728Y-86405781D01*
X225322302Y-86426597D01*
X225239927Y-86453362D01*
X225192290Y-86468841D01*
X225157552Y-86480128D01*
X225003211Y-86558768D01*
X224946289Y-86600125D01*
X224863072Y-86660586D01*
X224863070Y-86660588D01*
X224863069Y-86660588D01*
X224740588Y-86783069D01*
X224740588Y-86783070D01*
X224740586Y-86783072D01*
X224705321Y-86831610D01*
X224638768Y-86923211D01*
X224560128Y-87077552D01*
X224506597Y-87242302D01*
X224484026Y-87384812D01*
X224479500Y-87413389D01*
X222750500Y-87413389D01*
X222750500Y-87352494D01*
X222711993Y-87060007D01*
X222635639Y-86775048D01*
X222522743Y-86502493D01*
X222476389Y-86422206D01*
X222375238Y-86247006D01*
X222195647Y-86012959D01*
X222195641Y-86012952D01*
X221987047Y-85804358D01*
X221987040Y-85804352D01*
X221752993Y-85624761D01*
X221497510Y-85477258D01*
X221497500Y-85477254D01*
X221224961Y-85364364D01*
X221224954Y-85364362D01*
X221224952Y-85364361D01*
X220939993Y-85288007D01*
X220884210Y-85280663D01*
X220647513Y-85249500D01*
X220647506Y-85249500D01*
X220352494Y-85249500D01*
X220352486Y-85249500D01*
X220074085Y-85286153D01*
X220060007Y-85288007D01*
X220004851Y-85302786D01*
X219775048Y-85364361D01*
X219775038Y-85364364D01*
X219502499Y-85477254D01*
X219502489Y-85477258D01*
X219247006Y-85624761D01*
X219012959Y-85804352D01*
X219012952Y-85804358D01*
X218804358Y-86012952D01*
X218804352Y-86012959D01*
X218624761Y-86247006D01*
X218477258Y-86502489D01*
X218477254Y-86502499D01*
X218364364Y-86775038D01*
X218364361Y-86775048D01*
X218304833Y-86997213D01*
X218288008Y-87060004D01*
X218288006Y-87060015D01*
X218249500Y-87352486D01*
X216510854Y-87352486D01*
X216493402Y-87242299D01*
X216439873Y-87077555D01*
X216361232Y-86923212D01*
X216259414Y-86783072D01*
X216207482Y-86731140D01*
X216173997Y-86669817D01*
X216178981Y-86600125D01*
X216220853Y-86544192D01*
X216286317Y-86519775D01*
X216314561Y-86520986D01*
X216315212Y-86521089D01*
X216315215Y-86521090D01*
X216564038Y-86560500D01*
X216564039Y-86560500D01*
X216815961Y-86560500D01*
X216815962Y-86560500D01*
X217064785Y-86521090D01*
X217304379Y-86443241D01*
X217528845Y-86328870D01*
X217732656Y-86180793D01*
X217910793Y-86002656D01*
X218058870Y-85798845D01*
X218173241Y-85574379D01*
X218251090Y-85334785D01*
X218290500Y-85085962D01*
X218290500Y-84834038D01*
X218251090Y-84585215D01*
X218173241Y-84345621D01*
X218173239Y-84345618D01*
X218173239Y-84345616D01*
X218131747Y-84264184D01*
X218058870Y-84121155D01*
X217957107Y-83981090D01*
X217910798Y-83917350D01*
X217910794Y-83917345D01*
X217732654Y-83739205D01*
X217732649Y-83739201D01*
X217528848Y-83591132D01*
X217528847Y-83591131D01*
X217528845Y-83591130D01*
X217458747Y-83555413D01*
X217304383Y-83476760D01*
X217064785Y-83398910D01*
X216815962Y-83359500D01*
X216564038Y-83359500D01*
X216439626Y-83379205D01*
X216315214Y-83398910D01*
X216075616Y-83476760D01*
X215851151Y-83591132D01*
X215647350Y-83739201D01*
X215647345Y-83739205D01*
X215469205Y-83917345D01*
X215469201Y-83917350D01*
X215321132Y-84121151D01*
X215234185Y-84291794D01*
X215186210Y-84342590D01*
X215123700Y-84359499D01*
X215055309Y-84359499D01*
X214978945Y-84379961D01*
X214902580Y-84400423D01*
X214902575Y-84400426D01*
X214765656Y-84479475D01*
X214765648Y-84479481D01*
X209631950Y-89613181D01*
X209570627Y-89646666D01*
X209544269Y-89649500D01*
X202740733Y-89649500D01*
X202673694Y-89629815D01*
X202627939Y-89577011D01*
X202617995Y-89507853D01*
X202647020Y-89444297D01*
X202678733Y-89418113D01*
X202714399Y-89397520D01*
X202752994Y-89375238D01*
X202987042Y-89195646D01*
X203195646Y-88987042D01*
X203375238Y-88752994D01*
X203522743Y-88497507D01*
X203635639Y-88224952D01*
X203711993Y-87939993D01*
X203750500Y-87647506D01*
X203750500Y-87413389D01*
X205479500Y-87413389D01*
X205479500Y-87586611D01*
X205506598Y-87757701D01*
X205560127Y-87922445D01*
X205638768Y-88076788D01*
X205740586Y-88216928D01*
X205863072Y-88339414D01*
X206003212Y-88441232D01*
X206157555Y-88519873D01*
X206322299Y-88573402D01*
X206493389Y-88600500D01*
X206493390Y-88600500D01*
X206666610Y-88600500D01*
X206666611Y-88600500D01*
X206837701Y-88573402D01*
X207002445Y-88519873D01*
X207156788Y-88441232D01*
X207296928Y-88339414D01*
X207419414Y-88216928D01*
X207521232Y-88076788D01*
X207599873Y-87922445D01*
X207653402Y-87757701D01*
X207680500Y-87586611D01*
X207680500Y-87413389D01*
X207653402Y-87242299D01*
X207599873Y-87077555D01*
X207521232Y-86923212D01*
X207419414Y-86783072D01*
X207296928Y-86660586D01*
X207156788Y-86558768D01*
X207002445Y-86480127D01*
X206837701Y-86426598D01*
X206837699Y-86426597D01*
X206837698Y-86426597D01*
X206706271Y-86405781D01*
X206666611Y-86399500D01*
X206493389Y-86399500D01*
X206453728Y-86405781D01*
X206322302Y-86426597D01*
X206239927Y-86453362D01*
X206192290Y-86468841D01*
X206157552Y-86480128D01*
X206003211Y-86558768D01*
X205946289Y-86600125D01*
X205863072Y-86660586D01*
X205863070Y-86660588D01*
X205863069Y-86660588D01*
X205740588Y-86783069D01*
X205740588Y-86783070D01*
X205740586Y-86783072D01*
X205705321Y-86831610D01*
X205638768Y-86923211D01*
X205560128Y-87077552D01*
X205506597Y-87242302D01*
X205484026Y-87384812D01*
X205479500Y-87413389D01*
X203750500Y-87413389D01*
X203750500Y-87352494D01*
X203711993Y-87060007D01*
X203635639Y-86775048D01*
X203522743Y-86502493D01*
X203476389Y-86422206D01*
X203375238Y-86247006D01*
X203195647Y-86012959D01*
X203195641Y-86012952D01*
X202987047Y-85804358D01*
X202987040Y-85804352D01*
X202752993Y-85624761D01*
X202497510Y-85477258D01*
X202497500Y-85477254D01*
X202224961Y-85364364D01*
X202224954Y-85364362D01*
X202224952Y-85364361D01*
X201939993Y-85288007D01*
X201884210Y-85280663D01*
X201647513Y-85249500D01*
X201647506Y-85249500D01*
X201352494Y-85249500D01*
X201352486Y-85249500D01*
X201074085Y-85286153D01*
X201060007Y-85288007D01*
X201004851Y-85302786D01*
X200775048Y-85364361D01*
X200775038Y-85364364D01*
X200502499Y-85477254D01*
X200502489Y-85477258D01*
X200247006Y-85624761D01*
X200012959Y-85804352D01*
X200012952Y-85804358D01*
X199804358Y-86012952D01*
X199804352Y-86012959D01*
X199624761Y-86247006D01*
X199477258Y-86502489D01*
X199477254Y-86502499D01*
X199364364Y-86775038D01*
X199364361Y-86775048D01*
X199304833Y-86997213D01*
X199288008Y-87060004D01*
X199288006Y-87060015D01*
X199249500Y-87352486D01*
X199249500Y-87647513D01*
X199275901Y-87848038D01*
X199288007Y-87939993D01*
X199362212Y-88216930D01*
X199364361Y-88224951D01*
X199364364Y-88224961D01*
X199477254Y-88497500D01*
X199477258Y-88497510D01*
X199624761Y-88752993D01*
X199804352Y-88987040D01*
X199804358Y-88987047D01*
X200012952Y-89195641D01*
X200012959Y-89195647D01*
X200247006Y-89375238D01*
X200321267Y-89418113D01*
X200369483Y-89468680D01*
X200382706Y-89537287D01*
X200356738Y-89602152D01*
X200299823Y-89642680D01*
X200259267Y-89649500D01*
X193722041Y-89649500D01*
X193655002Y-89629815D01*
X193609247Y-89577011D01*
X193599303Y-89507853D01*
X193628328Y-89444297D01*
X193634360Y-89437819D01*
X193973037Y-89099142D01*
X195195640Y-87876537D01*
X195256961Y-87843054D01*
X195326652Y-87848038D01*
X195382586Y-87889910D01*
X195397335Y-87918337D01*
X195398266Y-87917952D01*
X195400126Y-87922443D01*
X195400127Y-87922445D01*
X195478768Y-88076788D01*
X195580586Y-88216928D01*
X195703072Y-88339414D01*
X195843212Y-88441232D01*
X195997555Y-88519873D01*
X196162299Y-88573402D01*
X196333389Y-88600500D01*
X196333390Y-88600500D01*
X196506610Y-88600500D01*
X196506611Y-88600500D01*
X196677701Y-88573402D01*
X196842445Y-88519873D01*
X196996788Y-88441232D01*
X197136928Y-88339414D01*
X197259414Y-88216928D01*
X197361232Y-88076788D01*
X197439873Y-87922445D01*
X197493402Y-87757701D01*
X197520500Y-87586611D01*
X197520500Y-87413389D01*
X197493402Y-87242299D01*
X197439873Y-87077555D01*
X197361232Y-86923212D01*
X197259414Y-86783072D01*
X197207482Y-86731140D01*
X197173997Y-86669817D01*
X197178981Y-86600125D01*
X197220853Y-86544192D01*
X197286317Y-86519775D01*
X197314561Y-86520986D01*
X197315212Y-86521089D01*
X197315215Y-86521090D01*
X197564038Y-86560500D01*
X197564039Y-86560500D01*
X197815961Y-86560500D01*
X197815962Y-86560500D01*
X198064785Y-86521090D01*
X198304379Y-86443241D01*
X198528845Y-86328870D01*
X198732656Y-86180793D01*
X198910793Y-86002656D01*
X199058870Y-85798845D01*
X199173241Y-85574379D01*
X199251090Y-85334785D01*
X199290500Y-85085962D01*
X199290500Y-84834038D01*
X199251090Y-84585215D01*
X199173241Y-84345621D01*
X199173239Y-84345618D01*
X199173239Y-84345616D01*
X199131747Y-84264184D01*
X199058870Y-84121155D01*
X198957107Y-83981090D01*
X198910798Y-83917350D01*
X198910794Y-83917345D01*
X198732654Y-83739205D01*
X198732649Y-83739201D01*
X198528848Y-83591132D01*
X198528847Y-83591131D01*
X198528845Y-83591130D01*
X198458747Y-83555413D01*
X198304383Y-83476760D01*
X198064785Y-83398910D01*
X197815962Y-83359500D01*
X197564038Y-83359500D01*
X197439626Y-83379205D01*
X197315214Y-83398910D01*
X197075616Y-83476760D01*
X196851151Y-83591132D01*
X196647350Y-83739201D01*
X196647345Y-83739205D01*
X196469205Y-83917345D01*
X196469201Y-83917350D01*
X196321132Y-84121151D01*
X196206760Y-84345616D01*
X196128910Y-84585214D01*
X196089500Y-84834038D01*
X196089500Y-85085961D01*
X196106722Y-85194698D01*
X196097767Y-85263992D01*
X196071930Y-85301777D01*
X192160528Y-89213181D01*
X192099205Y-89246666D01*
X192072847Y-89249500D01*
X184192551Y-89249500D01*
X184125512Y-89229815D01*
X184079757Y-89177011D01*
X184069813Y-89107853D01*
X184098838Y-89044297D01*
X184104870Y-89037819D01*
X184155641Y-88987047D01*
X184155646Y-88987042D01*
X184335238Y-88752994D01*
X184482743Y-88497507D01*
X184595639Y-88224952D01*
X184671993Y-87939993D01*
X184710500Y-87647506D01*
X184710500Y-87413389D01*
X186439500Y-87413389D01*
X186439500Y-87586611D01*
X186466598Y-87757701D01*
X186520127Y-87922445D01*
X186598768Y-88076788D01*
X186700586Y-88216928D01*
X186823072Y-88339414D01*
X186963212Y-88441232D01*
X187117555Y-88519873D01*
X187282299Y-88573402D01*
X187453389Y-88600500D01*
X187453390Y-88600500D01*
X187626610Y-88600500D01*
X187626611Y-88600500D01*
X187797701Y-88573402D01*
X187962445Y-88519873D01*
X188116788Y-88441232D01*
X188256928Y-88339414D01*
X188379414Y-88216928D01*
X188481232Y-88076788D01*
X188559873Y-87922445D01*
X188613402Y-87757701D01*
X188640500Y-87586611D01*
X188640500Y-87413389D01*
X188613402Y-87242299D01*
X188559873Y-87077555D01*
X188481232Y-86923212D01*
X188379414Y-86783072D01*
X188256928Y-86660586D01*
X188116788Y-86558768D01*
X187962445Y-86480127D01*
X187797701Y-86426598D01*
X187797699Y-86426597D01*
X187797698Y-86426597D01*
X187666271Y-86405781D01*
X187626611Y-86399500D01*
X187453389Y-86399500D01*
X187413728Y-86405781D01*
X187282302Y-86426597D01*
X187199927Y-86453362D01*
X187152290Y-86468841D01*
X187117552Y-86480128D01*
X186963211Y-86558768D01*
X186906289Y-86600125D01*
X186823072Y-86660586D01*
X186823070Y-86660588D01*
X186823069Y-86660588D01*
X186700588Y-86783069D01*
X186700588Y-86783070D01*
X186700586Y-86783072D01*
X186665321Y-86831610D01*
X186598768Y-86923211D01*
X186520128Y-87077552D01*
X186466597Y-87242302D01*
X186444026Y-87384812D01*
X186439500Y-87413389D01*
X184710500Y-87413389D01*
X184710500Y-87352494D01*
X184671993Y-87060007D01*
X184595639Y-86775048D01*
X184482743Y-86502493D01*
X184436389Y-86422206D01*
X184335238Y-86247006D01*
X184155647Y-86012959D01*
X184155641Y-86012952D01*
X183947047Y-85804358D01*
X183947040Y-85804352D01*
X183712993Y-85624761D01*
X183457510Y-85477258D01*
X183457500Y-85477254D01*
X183184961Y-85364364D01*
X183184954Y-85364362D01*
X183184952Y-85364361D01*
X182899993Y-85288007D01*
X182844210Y-85280663D01*
X182607513Y-85249500D01*
X182607506Y-85249500D01*
X182312494Y-85249500D01*
X182312486Y-85249500D01*
X182034085Y-85286153D01*
X182020007Y-85288007D01*
X181964851Y-85302786D01*
X181735048Y-85364361D01*
X181735038Y-85364364D01*
X181462499Y-85477254D01*
X181462489Y-85477258D01*
X181207006Y-85624761D01*
X180972959Y-85804352D01*
X180972952Y-85804358D01*
X180764358Y-86012952D01*
X180764352Y-86012959D01*
X180584761Y-86247006D01*
X180437258Y-86502489D01*
X180437254Y-86502499D01*
X180324364Y-86775038D01*
X180324361Y-86775048D01*
X180264833Y-86997213D01*
X180248008Y-87060004D01*
X180248006Y-87060015D01*
X180209500Y-87352486D01*
X180209500Y-87647513D01*
X180235901Y-87848038D01*
X180248007Y-87939993D01*
X180322212Y-88216930D01*
X180324361Y-88224951D01*
X180324364Y-88224961D01*
X180437254Y-88497500D01*
X180437258Y-88497510D01*
X180584761Y-88752993D01*
X180764352Y-88987040D01*
X180764358Y-88987047D01*
X180815130Y-89037819D01*
X180848615Y-89099142D01*
X180843631Y-89168834D01*
X180801759Y-89224767D01*
X180736295Y-89249184D01*
X180727449Y-89249500D01*
X172550097Y-89249500D01*
X172483058Y-89229815D01*
X172462416Y-89213181D01*
X166294077Y-83044842D01*
X166260592Y-82983519D01*
X166263828Y-82918841D01*
X166268477Y-82904534D01*
X166300500Y-82702352D01*
X166300500Y-82497648D01*
X166268477Y-82295466D01*
X166205220Y-82100781D01*
X166205218Y-82100778D01*
X166205218Y-82100776D01*
X166153865Y-81999991D01*
X166112287Y-81918390D01*
X166096892Y-81897200D01*
X165991971Y-81752786D01*
X165847213Y-81608028D01*
X165681613Y-81487715D01*
X165681612Y-81487714D01*
X165681610Y-81487713D01*
X165621898Y-81457288D01*
X165499223Y-81394781D01*
X165304534Y-81331522D01*
X165129995Y-81303878D01*
X165102352Y-81299500D01*
X164897648Y-81299500D01*
X164873329Y-81303351D01*
X164695465Y-81331522D01*
X164500776Y-81394781D01*
X164318386Y-81487715D01*
X164152786Y-81608028D01*
X164008028Y-81752786D01*
X163887715Y-81918386D01*
X163794781Y-82100776D01*
X163731522Y-82295465D01*
X163699500Y-82497648D01*
X158680499Y-82497648D01*
X158680499Y-81999992D01*
X158669999Y-81897203D01*
X158614814Y-81730666D01*
X158522712Y-81581344D01*
X158398656Y-81457288D01*
X158269047Y-81377345D01*
X158249336Y-81365187D01*
X158249331Y-81365185D01*
X158247862Y-81364698D01*
X158082797Y-81310001D01*
X158082795Y-81310000D01*
X157980010Y-81299500D01*
X156779998Y-81299500D01*
X156779981Y-81299501D01*
X156677203Y-81310000D01*
X156677200Y-81310001D01*
X156510668Y-81365185D01*
X156510663Y-81365187D01*
X156361342Y-81457289D01*
X156237289Y-81581342D01*
X156145187Y-81730663D01*
X156145186Y-81730666D01*
X156090001Y-81897203D01*
X156090001Y-81897204D01*
X156090000Y-81897204D01*
X156079500Y-81999983D01*
X136500500Y-81999983D01*
X136500500Y-78921153D01*
X149699500Y-78921153D01*
X149699500Y-79078846D01*
X149730261Y-79233489D01*
X149730264Y-79233501D01*
X149790602Y-79379172D01*
X149790609Y-79379185D01*
X149878210Y-79510288D01*
X149878213Y-79510292D01*
X149989707Y-79621786D01*
X149989711Y-79621789D01*
X150120814Y-79709390D01*
X150120827Y-79709397D01*
X150266498Y-79769735D01*
X150266503Y-79769737D01*
X150421153Y-79800499D01*
X150421156Y-79800500D01*
X150421158Y-79800500D01*
X150578844Y-79800500D01*
X150578845Y-79800499D01*
X150733497Y-79769737D01*
X150879179Y-79709394D01*
X150936044Y-79671397D01*
X151002721Y-79650520D01*
X151004935Y-79650500D01*
X155967837Y-79650500D01*
X156034876Y-79670185D01*
X156080631Y-79722989D01*
X156089089Y-79748541D01*
X156089999Y-79752792D01*
X156105808Y-79800499D01*
X156145186Y-79919334D01*
X156237288Y-80068656D01*
X156361344Y-80192712D01*
X156510666Y-80284814D01*
X156677203Y-80339999D01*
X156779991Y-80350500D01*
X157980008Y-80350499D01*
X158082797Y-80339999D01*
X158249334Y-80284814D01*
X158398656Y-80192712D01*
X158522712Y-80068656D01*
X158614814Y-79919334D01*
X158669999Y-79752797D01*
X158680500Y-79650009D01*
X158680499Y-78947648D01*
X163699500Y-78947648D01*
X163699500Y-79152351D01*
X163731522Y-79354534D01*
X163794781Y-79549223D01*
X163856415Y-79670185D01*
X163883320Y-79722989D01*
X163887715Y-79731613D01*
X164008028Y-79897213D01*
X164152786Y-80041971D01*
X164307749Y-80154556D01*
X164318390Y-80162287D01*
X164434607Y-80221503D01*
X164500776Y-80255218D01*
X164500778Y-80255218D01*
X164500781Y-80255220D01*
X164591856Y-80284812D01*
X164695465Y-80318477D01*
X164796557Y-80334488D01*
X164897648Y-80350500D01*
X164897649Y-80350500D01*
X165102351Y-80350500D01*
X165102352Y-80350500D01*
X165304534Y-80318477D01*
X165318842Y-80313827D01*
X165388682Y-80311831D01*
X165444842Y-80344077D01*
X170425139Y-85324374D01*
X170425149Y-85324385D01*
X170429479Y-85328715D01*
X170429480Y-85328716D01*
X170541284Y-85440520D01*
X170541286Y-85440521D01*
X170541290Y-85440524D01*
X170589554Y-85468389D01*
X170589559Y-85468391D01*
X170678209Y-85519574D01*
X170678210Y-85519574D01*
X170678215Y-85519577D01*
X170830943Y-85560500D01*
X170989057Y-85560500D01*
X177083700Y-85560500D01*
X177150739Y-85580185D01*
X177194184Y-85628204D01*
X177266866Y-85770851D01*
X177281132Y-85798848D01*
X177429201Y-86002649D01*
X177429205Y-86002654D01*
X177429207Y-86002656D01*
X177607344Y-86180793D01*
X177607345Y-86180794D01*
X177607344Y-86180794D01*
X177613661Y-86185383D01*
X177656327Y-86240714D01*
X177662305Y-86310327D01*
X177629699Y-86372122D01*
X177568860Y-86406479D01*
X177521378Y-86408174D01*
X177466611Y-86399500D01*
X177293389Y-86399500D01*
X177253728Y-86405781D01*
X177122302Y-86426597D01*
X177039927Y-86453362D01*
X176992290Y-86468841D01*
X176957552Y-86480128D01*
X176803211Y-86558768D01*
X176746289Y-86600125D01*
X176663072Y-86660586D01*
X176663070Y-86660588D01*
X176663069Y-86660588D01*
X176540588Y-86783069D01*
X176540588Y-86783070D01*
X176540586Y-86783072D01*
X176505321Y-86831610D01*
X176438768Y-86923211D01*
X176360128Y-87077552D01*
X176306597Y-87242302D01*
X176284026Y-87384812D01*
X176279500Y-87413389D01*
X176279500Y-87586611D01*
X176306598Y-87757701D01*
X176360127Y-87922445D01*
X176438768Y-88076788D01*
X176540586Y-88216928D01*
X176663072Y-88339414D01*
X176803212Y-88441232D01*
X176957555Y-88519873D01*
X177122299Y-88573402D01*
X177293389Y-88600500D01*
X177293390Y-88600500D01*
X177466610Y-88600500D01*
X177466611Y-88600500D01*
X177637701Y-88573402D01*
X177802445Y-88519873D01*
X177956788Y-88441232D01*
X178096928Y-88339414D01*
X178219414Y-88216928D01*
X178321232Y-88076788D01*
X178399873Y-87922445D01*
X178453402Y-87757701D01*
X178480500Y-87586611D01*
X178480500Y-87413389D01*
X178453402Y-87242299D01*
X178399873Y-87077555D01*
X178321232Y-86923212D01*
X178219414Y-86783072D01*
X178167482Y-86731140D01*
X178133997Y-86669817D01*
X178138981Y-86600125D01*
X178180853Y-86544192D01*
X178246317Y-86519775D01*
X178274561Y-86520986D01*
X178275212Y-86521089D01*
X178275215Y-86521090D01*
X178524038Y-86560500D01*
X178524039Y-86560500D01*
X178775961Y-86560500D01*
X178775962Y-86560500D01*
X179024785Y-86521090D01*
X179264379Y-86443241D01*
X179488845Y-86328870D01*
X179692656Y-86180793D01*
X179870793Y-86002656D01*
X180018870Y-85798845D01*
X180133241Y-85574379D01*
X180211090Y-85334785D01*
X180250500Y-85085962D01*
X180250500Y-84834038D01*
X180211090Y-84585215D01*
X180133241Y-84345621D01*
X180133239Y-84345618D01*
X180133239Y-84345616D01*
X180091747Y-84264184D01*
X180018870Y-84121155D01*
X179917107Y-83981090D01*
X179870798Y-83917350D01*
X179870794Y-83917345D01*
X179692654Y-83739205D01*
X179692649Y-83739201D01*
X179488848Y-83591132D01*
X179488847Y-83591131D01*
X179488845Y-83591130D01*
X179418747Y-83555413D01*
X179264383Y-83476760D01*
X179024785Y-83398910D01*
X178775962Y-83359500D01*
X178524038Y-83359500D01*
X178399626Y-83379205D01*
X178275214Y-83398910D01*
X178035616Y-83476760D01*
X177811151Y-83591132D01*
X177607350Y-83739201D01*
X177607345Y-83739205D01*
X177429205Y-83917345D01*
X177429201Y-83917350D01*
X177281132Y-84121151D01*
X177281130Y-84121155D01*
X177194186Y-84291794D01*
X177194185Y-84291795D01*
X177146211Y-84342591D01*
X177083700Y-84359500D01*
X171210097Y-84359500D01*
X171143058Y-84339815D01*
X171122416Y-84323181D01*
X169093273Y-82294038D01*
X183399500Y-82294038D01*
X183399500Y-82545961D01*
X183438910Y-82794785D01*
X183516760Y-83034383D01*
X183631132Y-83258848D01*
X183779201Y-83462649D01*
X183779205Y-83462654D01*
X183957345Y-83640794D01*
X183957350Y-83640798D01*
X184097621Y-83742710D01*
X184161155Y-83788870D01*
X184304184Y-83861747D01*
X184385616Y-83903239D01*
X184385618Y-83903239D01*
X184385621Y-83903241D01*
X184625215Y-83981090D01*
X184874038Y-84020500D01*
X184874039Y-84020500D01*
X185125961Y-84020500D01*
X185125962Y-84020500D01*
X185374785Y-83981090D01*
X185614379Y-83903241D01*
X185838845Y-83788870D01*
X186042656Y-83640793D01*
X186220793Y-83462656D01*
X186368870Y-83258845D01*
X186483241Y-83034379D01*
X186561090Y-82794785D01*
X186600500Y-82545962D01*
X186600500Y-82294038D01*
X202439500Y-82294038D01*
X202439500Y-82545961D01*
X202478910Y-82794785D01*
X202556760Y-83034383D01*
X202671132Y-83258848D01*
X202819201Y-83462649D01*
X202819205Y-83462654D01*
X202997345Y-83640794D01*
X202997350Y-83640798D01*
X203137621Y-83742710D01*
X203201155Y-83788870D01*
X203344184Y-83861747D01*
X203425616Y-83903239D01*
X203425618Y-83903239D01*
X203425621Y-83903241D01*
X203665215Y-83981090D01*
X203914038Y-84020500D01*
X203914039Y-84020500D01*
X204165961Y-84020500D01*
X204165962Y-84020500D01*
X204414785Y-83981090D01*
X204654379Y-83903241D01*
X204878845Y-83788870D01*
X205082656Y-83640793D01*
X205260793Y-83462656D01*
X205408870Y-83258845D01*
X205523241Y-83034379D01*
X205601090Y-82794785D01*
X205640500Y-82545962D01*
X205640500Y-82294038D01*
X221439500Y-82294038D01*
X221439500Y-82545961D01*
X221478910Y-82794785D01*
X221556760Y-83034383D01*
X221671132Y-83258848D01*
X221819201Y-83462649D01*
X221819205Y-83462654D01*
X221997345Y-83640794D01*
X221997350Y-83640798D01*
X222137621Y-83742710D01*
X222201155Y-83788870D01*
X222344184Y-83861747D01*
X222425616Y-83903239D01*
X222425618Y-83903239D01*
X222425621Y-83903241D01*
X222665215Y-83981090D01*
X222914038Y-84020500D01*
X222914039Y-84020500D01*
X223165961Y-84020500D01*
X223165962Y-84020500D01*
X223414785Y-83981090D01*
X223654379Y-83903241D01*
X223878845Y-83788870D01*
X224082656Y-83640793D01*
X224260793Y-83462656D01*
X224408870Y-83258845D01*
X224523241Y-83034379D01*
X224601090Y-82794785D01*
X224640500Y-82545962D01*
X224640500Y-82294038D01*
X224601090Y-82045215D01*
X224523241Y-81805621D01*
X224523239Y-81805618D01*
X224523239Y-81805616D01*
X224481747Y-81724184D01*
X224408870Y-81581155D01*
X224340981Y-81487713D01*
X224260798Y-81377350D01*
X224260794Y-81377345D01*
X224082654Y-81199205D01*
X224082649Y-81199201D01*
X223878848Y-81051132D01*
X223878847Y-81051131D01*
X223878845Y-81051130D01*
X223808747Y-81015413D01*
X223654383Y-80936760D01*
X223414785Y-80858910D01*
X223165962Y-80819500D01*
X222914038Y-80819500D01*
X222789626Y-80839205D01*
X222665214Y-80858910D01*
X222425616Y-80936760D01*
X222201151Y-81051132D01*
X221997350Y-81199201D01*
X221997345Y-81199205D01*
X221819205Y-81377345D01*
X221819201Y-81377350D01*
X221671132Y-81581151D01*
X221556760Y-81805616D01*
X221478910Y-82045214D01*
X221439500Y-82294038D01*
X205640500Y-82294038D01*
X205601090Y-82045215D01*
X205523241Y-81805621D01*
X205523239Y-81805618D01*
X205523239Y-81805616D01*
X205481747Y-81724184D01*
X205408870Y-81581155D01*
X205340981Y-81487713D01*
X205260798Y-81377350D01*
X205260794Y-81377345D01*
X205082654Y-81199205D01*
X205082649Y-81199201D01*
X204878848Y-81051132D01*
X204878847Y-81051131D01*
X204878845Y-81051130D01*
X204808747Y-81015413D01*
X204654383Y-80936760D01*
X204414785Y-80858910D01*
X204165962Y-80819500D01*
X203914038Y-80819500D01*
X203789626Y-80839205D01*
X203665214Y-80858910D01*
X203425616Y-80936760D01*
X203201151Y-81051132D01*
X202997350Y-81199201D01*
X202997345Y-81199205D01*
X202819205Y-81377345D01*
X202819201Y-81377350D01*
X202671132Y-81581151D01*
X202556760Y-81805616D01*
X202478910Y-82045214D01*
X202439500Y-82294038D01*
X186600500Y-82294038D01*
X186561090Y-82045215D01*
X186483241Y-81805621D01*
X186483239Y-81805618D01*
X186483239Y-81805616D01*
X186441747Y-81724184D01*
X186368870Y-81581155D01*
X186300981Y-81487713D01*
X186220798Y-81377350D01*
X186220794Y-81377345D01*
X186042654Y-81199205D01*
X186042649Y-81199201D01*
X185838848Y-81051132D01*
X185838847Y-81051131D01*
X185838845Y-81051130D01*
X185768747Y-81015413D01*
X185614383Y-80936760D01*
X185374785Y-80858910D01*
X185125962Y-80819500D01*
X184874038Y-80819500D01*
X184749626Y-80839205D01*
X184625214Y-80858910D01*
X184385616Y-80936760D01*
X184161151Y-81051132D01*
X183957350Y-81199201D01*
X183957345Y-81199205D01*
X183779205Y-81377345D01*
X183779201Y-81377350D01*
X183631132Y-81581151D01*
X183516760Y-81805616D01*
X183438910Y-82045214D01*
X183399500Y-82294038D01*
X169093273Y-82294038D01*
X166294077Y-79494842D01*
X166260592Y-79433519D01*
X166263828Y-79368841D01*
X166268477Y-79354534D01*
X166300500Y-79152352D01*
X166300500Y-78947648D01*
X166268477Y-78745466D01*
X166205220Y-78550781D01*
X166205218Y-78550778D01*
X166205218Y-78550776D01*
X166153865Y-78449992D01*
X166112287Y-78368390D01*
X166096892Y-78347200D01*
X165991971Y-78202786D01*
X165847213Y-78058028D01*
X165681613Y-77937715D01*
X165681612Y-77937714D01*
X165681610Y-77937713D01*
X165621898Y-77907288D01*
X165499223Y-77844781D01*
X165304534Y-77781522D01*
X165129995Y-77753878D01*
X165102352Y-77749500D01*
X164897648Y-77749500D01*
X164873329Y-77753351D01*
X164695465Y-77781522D01*
X164500776Y-77844781D01*
X164318386Y-77937715D01*
X164152786Y-78058028D01*
X164008028Y-78202786D01*
X163887715Y-78368386D01*
X163794781Y-78550776D01*
X163731522Y-78745465D01*
X163699500Y-78947648D01*
X158680499Y-78947648D01*
X158680499Y-78449992D01*
X158673166Y-78378211D01*
X158669999Y-78347203D01*
X158669998Y-78347200D01*
X158614814Y-78180666D01*
X158522712Y-78031344D01*
X158398656Y-77907288D01*
X158249334Y-77815186D01*
X158082797Y-77760001D01*
X158082795Y-77760000D01*
X157980010Y-77749500D01*
X156779998Y-77749500D01*
X156779981Y-77749501D01*
X156677203Y-77760000D01*
X156677200Y-77760001D01*
X156510668Y-77815185D01*
X156510663Y-77815187D01*
X156361342Y-77907289D01*
X156237289Y-78031342D01*
X156145187Y-78180663D01*
X156145185Y-78180668D01*
X156090000Y-78347204D01*
X156089088Y-78351467D01*
X156055801Y-78412898D01*
X155994586Y-78446581D01*
X155967837Y-78449500D01*
X151132940Y-78449500D01*
X151065901Y-78429815D01*
X151045258Y-78413180D01*
X151010292Y-78378213D01*
X151010288Y-78378210D01*
X150879185Y-78290609D01*
X150879172Y-78290602D01*
X150733501Y-78230264D01*
X150733489Y-78230261D01*
X150578845Y-78199500D01*
X150578842Y-78199500D01*
X150421158Y-78199500D01*
X150421155Y-78199500D01*
X150266510Y-78230261D01*
X150266498Y-78230264D01*
X150120827Y-78290602D01*
X150120814Y-78290609D01*
X149989711Y-78378210D01*
X149989707Y-78378213D01*
X149878213Y-78489707D01*
X149878210Y-78489711D01*
X149790609Y-78620814D01*
X149790602Y-78620827D01*
X149730264Y-78766498D01*
X149730261Y-78766510D01*
X149699500Y-78921153D01*
X136500500Y-78921153D01*
X136500500Y-74899983D01*
X156079500Y-74899983D01*
X156079500Y-76100001D01*
X156079501Y-76100018D01*
X156090000Y-76202796D01*
X156090001Y-76202799D01*
X156137856Y-76347213D01*
X156145186Y-76369334D01*
X156237288Y-76518656D01*
X156361344Y-76642712D01*
X156510666Y-76734814D01*
X156677203Y-76789999D01*
X156779991Y-76800500D01*
X157980008Y-76800499D01*
X158082797Y-76789999D01*
X158249334Y-76734814D01*
X158398656Y-76642712D01*
X158522712Y-76518656D01*
X158614814Y-76369334D01*
X158669999Y-76202797D01*
X158680500Y-76100009D01*
X158680499Y-75397648D01*
X163699500Y-75397648D01*
X163699500Y-75602351D01*
X163731522Y-75804534D01*
X163794781Y-75999223D01*
X163887715Y-76181613D01*
X164008028Y-76347213D01*
X164152786Y-76491971D01*
X164307749Y-76604556D01*
X164318390Y-76612287D01*
X164434607Y-76671503D01*
X164500776Y-76705218D01*
X164500778Y-76705218D01*
X164500781Y-76705220D01*
X164591856Y-76734812D01*
X164695465Y-76768477D01*
X164796557Y-76784488D01*
X164897648Y-76800500D01*
X164897649Y-76800500D01*
X165102351Y-76800500D01*
X165102352Y-76800500D01*
X165304534Y-76768477D01*
X165499219Y-76705220D01*
X165681610Y-76612287D01*
X165810482Y-76518657D01*
X165847213Y-76491971D01*
X165847215Y-76491968D01*
X165847219Y-76491966D01*
X165991966Y-76347219D01*
X165991968Y-76347215D01*
X165991971Y-76347213D01*
X166112284Y-76181614D01*
X166112285Y-76181613D01*
X166112287Y-76181610D01*
X166119117Y-76168204D01*
X166167091Y-76117409D01*
X166229602Y-76100500D01*
X206636275Y-76100500D01*
X206636291Y-76100501D01*
X206643887Y-76100501D01*
X206801998Y-76100501D01*
X206802001Y-76100501D01*
X206954729Y-76059577D01*
X207004848Y-76030639D01*
X207091660Y-75980520D01*
X207203464Y-75868716D01*
X207203464Y-75868714D01*
X207213672Y-75858507D01*
X207213674Y-75858504D01*
X214155640Y-68916537D01*
X214216961Y-68883054D01*
X214286653Y-68888038D01*
X214342586Y-68929910D01*
X214357335Y-68958337D01*
X214358266Y-68957952D01*
X214360126Y-68962443D01*
X214360127Y-68962445D01*
X214438768Y-69116788D01*
X214540586Y-69256928D01*
X214663072Y-69379414D01*
X214803212Y-69481232D01*
X214957555Y-69559873D01*
X215122299Y-69613402D01*
X215293389Y-69640500D01*
X215293390Y-69640500D01*
X215466610Y-69640500D01*
X215466611Y-69640500D01*
X215637701Y-69613402D01*
X215802445Y-69559873D01*
X215956788Y-69481232D01*
X216096928Y-69379414D01*
X216219414Y-69256928D01*
X216321232Y-69116788D01*
X216399873Y-68962445D01*
X216453402Y-68797701D01*
X216480500Y-68626611D01*
X216480500Y-68453389D01*
X216470854Y-68392486D01*
X218209500Y-68392486D01*
X218209500Y-68687513D01*
X218235901Y-68888038D01*
X218248007Y-68979993D01*
X218322212Y-69256930D01*
X218324361Y-69264951D01*
X218324364Y-69264961D01*
X218437254Y-69537500D01*
X218437258Y-69537510D01*
X218584761Y-69792993D01*
X218764352Y-70027040D01*
X218764358Y-70027047D01*
X218972952Y-70235641D01*
X218972959Y-70235647D01*
X219207006Y-70415238D01*
X219462489Y-70562741D01*
X219462490Y-70562741D01*
X219462493Y-70562743D01*
X219671943Y-70649500D01*
X219697294Y-70660001D01*
X219735048Y-70675639D01*
X220020007Y-70751993D01*
X220312494Y-70790500D01*
X220312501Y-70790500D01*
X220607499Y-70790500D01*
X220607506Y-70790500D01*
X220899993Y-70751993D01*
X221184952Y-70675639D01*
X221457507Y-70562743D01*
X221712994Y-70415238D01*
X221947042Y-70235646D01*
X222155646Y-70027042D01*
X222335238Y-69792994D01*
X222482743Y-69537507D01*
X222595639Y-69264952D01*
X222671993Y-68979993D01*
X222710500Y-68687506D01*
X222710500Y-68453389D01*
X224439500Y-68453389D01*
X224439500Y-68626611D01*
X224466598Y-68797701D01*
X224520127Y-68962445D01*
X224598768Y-69116788D01*
X224700586Y-69256928D01*
X224823072Y-69379414D01*
X224963212Y-69481232D01*
X225117555Y-69559873D01*
X225282299Y-69613402D01*
X225453389Y-69640500D01*
X225453390Y-69640500D01*
X225626610Y-69640500D01*
X225626611Y-69640500D01*
X225797701Y-69613402D01*
X225962445Y-69559873D01*
X226116788Y-69481232D01*
X226256928Y-69379414D01*
X226379414Y-69256928D01*
X226481232Y-69116788D01*
X226559873Y-68962445D01*
X226613402Y-68797701D01*
X226640500Y-68626611D01*
X226640500Y-68453389D01*
X226613402Y-68282299D01*
X226559873Y-68117555D01*
X226481232Y-67963212D01*
X226379414Y-67823072D01*
X226256928Y-67700586D01*
X226116788Y-67598768D01*
X225962445Y-67520127D01*
X225797701Y-67466598D01*
X225797699Y-67466597D01*
X225797698Y-67466597D01*
X225666271Y-67445781D01*
X225626611Y-67439500D01*
X225453389Y-67439500D01*
X225413728Y-67445781D01*
X225282302Y-67466597D01*
X225117552Y-67520128D01*
X224963211Y-67598768D01*
X224908157Y-67638768D01*
X224823072Y-67700586D01*
X224823070Y-67700588D01*
X224823069Y-67700588D01*
X224700588Y-67823069D01*
X224700588Y-67823070D01*
X224700586Y-67823072D01*
X224671526Y-67863070D01*
X224598768Y-67963211D01*
X224520128Y-68117552D01*
X224466597Y-68282302D01*
X224444606Y-68421153D01*
X224439500Y-68453389D01*
X222710500Y-68453389D01*
X222710500Y-68392494D01*
X222671993Y-68100007D01*
X222595639Y-67815048D01*
X222482743Y-67542493D01*
X222459483Y-67502206D01*
X222335238Y-67287006D01*
X222155647Y-67052959D01*
X222155641Y-67052952D01*
X221947047Y-66844358D01*
X221947040Y-66844352D01*
X221712993Y-66664761D01*
X221457510Y-66517258D01*
X221457500Y-66517254D01*
X221184961Y-66404364D01*
X221184954Y-66404362D01*
X221184952Y-66404361D01*
X220899993Y-66328007D01*
X220851113Y-66321571D01*
X220607513Y-66289500D01*
X220607506Y-66289500D01*
X220312494Y-66289500D01*
X220312486Y-66289500D01*
X220034085Y-66326153D01*
X220020007Y-66328007D01*
X219845428Y-66374785D01*
X219735048Y-66404361D01*
X219735038Y-66404364D01*
X219462499Y-66517254D01*
X219462489Y-66517258D01*
X219207006Y-66664761D01*
X218972959Y-66844352D01*
X218972952Y-66844358D01*
X218764358Y-67052952D01*
X218764352Y-67052959D01*
X218584761Y-67287006D01*
X218437258Y-67542489D01*
X218437254Y-67542499D01*
X218324364Y-67815038D01*
X218324361Y-67815048D01*
X218286820Y-67955156D01*
X218248008Y-68100004D01*
X218248006Y-68100015D01*
X218209500Y-68392486D01*
X216470854Y-68392486D01*
X216453402Y-68282299D01*
X216399873Y-68117555D01*
X216321232Y-67963212D01*
X216219414Y-67823072D01*
X216167482Y-67771140D01*
X216133997Y-67709817D01*
X216138981Y-67640125D01*
X216180853Y-67584192D01*
X216246317Y-67559775D01*
X216274561Y-67560986D01*
X216275212Y-67561089D01*
X216275215Y-67561090D01*
X216524038Y-67600500D01*
X216524039Y-67600500D01*
X216775961Y-67600500D01*
X216775962Y-67600500D01*
X217024785Y-67561090D01*
X217264379Y-67483241D01*
X217488845Y-67368870D01*
X217692656Y-67220793D01*
X217870793Y-67042656D01*
X218018870Y-66838845D01*
X218133241Y-66614379D01*
X218211090Y-66374785D01*
X218250500Y-66125962D01*
X218250500Y-65874038D01*
X218211090Y-65625215D01*
X218133241Y-65385621D01*
X218133239Y-65385618D01*
X218133239Y-65385616D01*
X218091747Y-65304184D01*
X218018870Y-65161155D01*
X217917107Y-65021090D01*
X217870798Y-64957350D01*
X217870794Y-64957345D01*
X217692654Y-64779205D01*
X217692649Y-64779201D01*
X217488848Y-64631132D01*
X217488847Y-64631131D01*
X217488845Y-64631130D01*
X217418747Y-64595413D01*
X217264383Y-64516760D01*
X217024785Y-64438910D01*
X216775962Y-64399500D01*
X216524038Y-64399500D01*
X216399626Y-64419205D01*
X216275214Y-64438910D01*
X216035616Y-64516760D01*
X215811151Y-64631132D01*
X215607350Y-64779201D01*
X215607345Y-64779205D01*
X215429205Y-64957345D01*
X215429201Y-64957350D01*
X215281132Y-65161151D01*
X215166760Y-65385616D01*
X215088910Y-65625214D01*
X215049500Y-65874038D01*
X215049500Y-66125961D01*
X215066722Y-66234698D01*
X215057767Y-66303992D01*
X215031930Y-66341777D01*
X206510528Y-74863181D01*
X206449205Y-74896666D01*
X206422847Y-74899500D01*
X166229602Y-74899500D01*
X166162563Y-74879815D01*
X166119117Y-74831795D01*
X166112284Y-74818385D01*
X165991971Y-74652786D01*
X165847213Y-74508028D01*
X165681613Y-74387715D01*
X165681612Y-74387714D01*
X165681610Y-74387713D01*
X165621898Y-74357288D01*
X165499223Y-74294781D01*
X165304534Y-74231522D01*
X165129995Y-74203878D01*
X165102352Y-74199500D01*
X164897648Y-74199500D01*
X164873329Y-74203351D01*
X164695465Y-74231522D01*
X164500776Y-74294781D01*
X164318386Y-74387715D01*
X164152786Y-74508028D01*
X164008028Y-74652786D01*
X163887715Y-74818386D01*
X163794781Y-75000776D01*
X163731522Y-75195465D01*
X163699500Y-75397648D01*
X158680499Y-75397648D01*
X158680499Y-74899992D01*
X158669999Y-74797203D01*
X158614814Y-74630666D01*
X158522712Y-74481344D01*
X158398656Y-74357288D01*
X158249334Y-74265186D01*
X158082797Y-74210001D01*
X158082795Y-74210000D01*
X157980010Y-74199500D01*
X156779998Y-74199500D01*
X156779981Y-74199501D01*
X156677203Y-74210000D01*
X156677200Y-74210001D01*
X156510668Y-74265185D01*
X156510663Y-74265187D01*
X156361342Y-74357289D01*
X156237289Y-74481342D01*
X156145187Y-74630663D01*
X156145186Y-74630666D01*
X156090001Y-74797203D01*
X156090001Y-74797204D01*
X156090000Y-74797204D01*
X156079500Y-74899983D01*
X136500500Y-74899983D01*
X136500500Y-71349983D01*
X156079500Y-71349983D01*
X156079500Y-72550001D01*
X156079501Y-72550018D01*
X156090000Y-72652796D01*
X156090001Y-72652799D01*
X156137856Y-72797213D01*
X156145186Y-72819334D01*
X156237288Y-72968656D01*
X156361344Y-73092712D01*
X156510666Y-73184814D01*
X156677203Y-73239999D01*
X156779991Y-73250500D01*
X157980008Y-73250499D01*
X158082797Y-73239999D01*
X158249334Y-73184814D01*
X158398656Y-73092712D01*
X158522712Y-72968656D01*
X158614814Y-72819334D01*
X158669999Y-72652797D01*
X158680500Y-72550009D01*
X158680499Y-71847648D01*
X163699500Y-71847648D01*
X163699500Y-72052351D01*
X163731522Y-72254534D01*
X163794781Y-72449223D01*
X163887715Y-72631613D01*
X164008028Y-72797213D01*
X164152786Y-72941971D01*
X164307749Y-73054556D01*
X164318390Y-73062287D01*
X164434607Y-73121503D01*
X164500776Y-73155218D01*
X164500778Y-73155218D01*
X164500781Y-73155220D01*
X164591856Y-73184812D01*
X164695465Y-73218477D01*
X164796557Y-73234488D01*
X164897648Y-73250500D01*
X164897649Y-73250500D01*
X165102351Y-73250500D01*
X165102352Y-73250500D01*
X165304534Y-73218477D01*
X165499219Y-73155220D01*
X165681610Y-73062287D01*
X165810482Y-72968657D01*
X165847213Y-72941971D01*
X165847215Y-72941968D01*
X165847219Y-72941966D01*
X165991966Y-72797219D01*
X165991968Y-72797215D01*
X165991971Y-72797213D01*
X166112284Y-72631614D01*
X166112285Y-72631613D01*
X166112287Y-72631610D01*
X166119117Y-72618204D01*
X166167091Y-72567409D01*
X166229602Y-72550500D01*
X191226275Y-72550500D01*
X191226291Y-72550501D01*
X191233887Y-72550501D01*
X191391998Y-72550501D01*
X191392001Y-72550501D01*
X191544729Y-72509577D01*
X191594848Y-72480639D01*
X191681660Y-72430520D01*
X191793464Y-72318716D01*
X191793464Y-72318714D01*
X191803672Y-72308507D01*
X191803674Y-72308504D01*
X195155640Y-68956537D01*
X195216961Y-68923054D01*
X195286653Y-68928038D01*
X195342586Y-68969910D01*
X195357335Y-68998337D01*
X195358266Y-68997952D01*
X195360126Y-69002443D01*
X195360127Y-69002445D01*
X195438768Y-69156788D01*
X195540586Y-69296928D01*
X195663072Y-69419414D01*
X195803212Y-69521232D01*
X195957555Y-69599873D01*
X196122299Y-69653402D01*
X196293389Y-69680500D01*
X196293390Y-69680500D01*
X196466610Y-69680500D01*
X196466611Y-69680500D01*
X196637701Y-69653402D01*
X196802445Y-69599873D01*
X196956788Y-69521232D01*
X197096928Y-69419414D01*
X197219414Y-69296928D01*
X197321232Y-69156788D01*
X197399873Y-69002445D01*
X197453402Y-68837701D01*
X197480500Y-68666611D01*
X197480500Y-68493389D01*
X197470854Y-68432486D01*
X199209500Y-68432486D01*
X199209500Y-68727513D01*
X199235901Y-68928038D01*
X199248007Y-69019993D01*
X199322212Y-69296930D01*
X199324361Y-69304951D01*
X199324364Y-69304961D01*
X199437254Y-69577500D01*
X199437258Y-69577510D01*
X199584761Y-69832993D01*
X199764352Y-70067040D01*
X199764358Y-70067047D01*
X199972952Y-70275641D01*
X199972959Y-70275647D01*
X200207006Y-70455238D01*
X200462489Y-70602741D01*
X200462490Y-70602741D01*
X200462493Y-70602743D01*
X200652682Y-70681522D01*
X200733956Y-70715187D01*
X200735048Y-70715639D01*
X201020007Y-70791993D01*
X201312494Y-70830500D01*
X201312501Y-70830500D01*
X201607499Y-70830500D01*
X201607506Y-70830500D01*
X201899993Y-70791993D01*
X202184952Y-70715639D01*
X202457507Y-70602743D01*
X202712994Y-70455238D01*
X202947042Y-70275646D01*
X203155646Y-70067042D01*
X203335238Y-69832994D01*
X203482743Y-69577507D01*
X203595639Y-69304952D01*
X203671993Y-69019993D01*
X203710500Y-68727506D01*
X203710500Y-68493389D01*
X205439500Y-68493389D01*
X205439500Y-68666611D01*
X205442811Y-68687513D01*
X205460262Y-68797701D01*
X205466598Y-68837701D01*
X205520127Y-69002445D01*
X205598768Y-69156788D01*
X205700586Y-69296928D01*
X205823072Y-69419414D01*
X205963212Y-69521232D01*
X206117555Y-69599873D01*
X206282299Y-69653402D01*
X206453389Y-69680500D01*
X206453390Y-69680500D01*
X206626610Y-69680500D01*
X206626611Y-69680500D01*
X206797701Y-69653402D01*
X206962445Y-69599873D01*
X207116788Y-69521232D01*
X207256928Y-69419414D01*
X207379414Y-69296928D01*
X207481232Y-69156788D01*
X207559873Y-69002445D01*
X207613402Y-68837701D01*
X207640500Y-68666611D01*
X207640500Y-68493389D01*
X207613402Y-68322299D01*
X207559873Y-68157555D01*
X207481232Y-68003212D01*
X207379414Y-67863072D01*
X207256928Y-67740586D01*
X207116788Y-67638768D01*
X206962445Y-67560127D01*
X206797701Y-67506598D01*
X206797699Y-67506597D01*
X206797698Y-67506597D01*
X206666271Y-67485781D01*
X206626611Y-67479500D01*
X206453389Y-67479500D01*
X206413728Y-67485781D01*
X206282302Y-67506597D01*
X206208235Y-67530663D01*
X206140164Y-67552781D01*
X206117552Y-67560128D01*
X205963211Y-67638768D01*
X205906289Y-67680125D01*
X205823072Y-67740586D01*
X205823070Y-67740588D01*
X205823069Y-67740588D01*
X205700588Y-67863069D01*
X205700588Y-67863070D01*
X205700586Y-67863072D01*
X205673189Y-67900781D01*
X205598768Y-68003211D01*
X205520128Y-68157552D01*
X205466597Y-68322302D01*
X205439500Y-68493389D01*
X203710500Y-68493389D01*
X203710500Y-68432494D01*
X203671993Y-68140007D01*
X203595639Y-67855048D01*
X203579070Y-67815048D01*
X203543951Y-67730263D01*
X203482743Y-67582493D01*
X203470385Y-67561089D01*
X203335238Y-67327006D01*
X203155647Y-67092959D01*
X203155641Y-67092952D01*
X202947047Y-66884358D01*
X202947040Y-66884352D01*
X202712993Y-66704761D01*
X202457510Y-66557258D01*
X202457500Y-66557254D01*
X202184961Y-66444364D01*
X202184954Y-66444362D01*
X202184952Y-66444361D01*
X201899993Y-66368007D01*
X201851113Y-66361571D01*
X201607513Y-66329500D01*
X201607506Y-66329500D01*
X201312494Y-66329500D01*
X201312486Y-66329500D01*
X201034085Y-66366153D01*
X201020007Y-66368007D01*
X200884331Y-66404361D01*
X200735048Y-66444361D01*
X200735038Y-66444364D01*
X200462499Y-66557254D01*
X200462489Y-66557258D01*
X200207006Y-66704761D01*
X199972959Y-66884352D01*
X199972952Y-66884358D01*
X199764358Y-67092952D01*
X199764352Y-67092959D01*
X199584761Y-67327006D01*
X199437258Y-67582489D01*
X199437254Y-67582499D01*
X199324364Y-67855038D01*
X199324361Y-67855048D01*
X199282491Y-68011312D01*
X199248008Y-68140004D01*
X199248006Y-68140015D01*
X199209500Y-68432486D01*
X197470854Y-68432486D01*
X197453402Y-68322299D01*
X197399873Y-68157555D01*
X197321232Y-68003212D01*
X197219414Y-67863072D01*
X197167482Y-67811140D01*
X197133997Y-67749817D01*
X197138981Y-67680125D01*
X197180853Y-67624192D01*
X197246317Y-67599775D01*
X197274561Y-67600986D01*
X197275212Y-67601089D01*
X197275215Y-67601090D01*
X197524038Y-67640500D01*
X197524039Y-67640500D01*
X197775961Y-67640500D01*
X197775962Y-67640500D01*
X198024785Y-67601090D01*
X198264379Y-67523241D01*
X198488845Y-67408870D01*
X198692656Y-67260793D01*
X198870793Y-67082656D01*
X199018870Y-66878845D01*
X199133241Y-66654379D01*
X199211090Y-66414785D01*
X199250500Y-66165962D01*
X199250500Y-65914038D01*
X199211090Y-65665215D01*
X199133241Y-65425621D01*
X199133239Y-65425618D01*
X199133239Y-65425616D01*
X199091747Y-65344184D01*
X199018870Y-65201155D01*
X198989808Y-65161155D01*
X198870798Y-64997350D01*
X198870794Y-64997345D01*
X198692654Y-64819205D01*
X198692649Y-64819201D01*
X198488848Y-64671132D01*
X198488847Y-64671131D01*
X198488845Y-64671130D01*
X198418747Y-64635413D01*
X198264383Y-64556760D01*
X198024785Y-64478910D01*
X197775962Y-64439500D01*
X197524038Y-64439500D01*
X197399626Y-64459205D01*
X197275214Y-64478910D01*
X197035616Y-64556760D01*
X196811151Y-64671132D01*
X196607350Y-64819201D01*
X196607345Y-64819205D01*
X196429205Y-64997345D01*
X196429201Y-64997350D01*
X196281132Y-65201151D01*
X196166760Y-65425616D01*
X196088910Y-65665214D01*
X196049500Y-65914038D01*
X196049500Y-66165961D01*
X196066722Y-66274698D01*
X196057767Y-66343992D01*
X196031930Y-66381777D01*
X191100528Y-71313181D01*
X191039205Y-71346666D01*
X191012847Y-71349500D01*
X166229602Y-71349500D01*
X166162563Y-71329815D01*
X166119117Y-71281795D01*
X166112284Y-71268385D01*
X165991971Y-71102786D01*
X165847213Y-70958028D01*
X165681613Y-70837715D01*
X165681612Y-70837714D01*
X165681610Y-70837713D01*
X165591876Y-70791991D01*
X165499223Y-70744781D01*
X165304534Y-70681522D01*
X165129995Y-70653878D01*
X165102352Y-70649500D01*
X164897648Y-70649500D01*
X164873329Y-70653351D01*
X164695465Y-70681522D01*
X164500776Y-70744781D01*
X164318386Y-70837715D01*
X164152786Y-70958028D01*
X164008028Y-71102786D01*
X163887715Y-71268386D01*
X163794781Y-71450776D01*
X163731522Y-71645465D01*
X163699500Y-71847648D01*
X158680499Y-71847648D01*
X158680499Y-71349992D01*
X158669999Y-71247203D01*
X158614814Y-71080666D01*
X158522712Y-70931344D01*
X158398656Y-70807288D01*
X158297314Y-70744780D01*
X158249336Y-70715187D01*
X158249331Y-70715185D01*
X158247862Y-70714698D01*
X158082797Y-70660001D01*
X158082795Y-70660000D01*
X157980010Y-70649500D01*
X156779998Y-70649500D01*
X156779981Y-70649501D01*
X156677203Y-70660000D01*
X156677200Y-70660001D01*
X156510668Y-70715185D01*
X156510663Y-70715187D01*
X156361342Y-70807289D01*
X156237289Y-70931342D01*
X156145187Y-71080663D01*
X156145186Y-71080666D01*
X156090001Y-71247203D01*
X156090001Y-71247204D01*
X156090000Y-71247204D01*
X156079500Y-71349983D01*
X136500500Y-71349983D01*
X136500500Y-68421153D01*
X151199500Y-68421153D01*
X151199500Y-68578846D01*
X151230261Y-68733489D01*
X151230264Y-68733501D01*
X151290602Y-68879172D01*
X151290609Y-68879185D01*
X151378210Y-69010288D01*
X151378213Y-69010292D01*
X151489707Y-69121786D01*
X151489711Y-69121789D01*
X151620814Y-69209390D01*
X151620827Y-69209397D01*
X151765523Y-69269331D01*
X151766503Y-69269737D01*
X151903211Y-69296930D01*
X151921153Y-69300499D01*
X151921156Y-69300500D01*
X151921158Y-69300500D01*
X152078844Y-69300500D01*
X152078845Y-69300499D01*
X152233497Y-69269737D01*
X152379179Y-69209394D01*
X152510289Y-69121789D01*
X152595260Y-69036817D01*
X152656581Y-69003334D01*
X152682940Y-69000500D01*
X155967837Y-69000500D01*
X156034876Y-69020185D01*
X156080631Y-69072989D01*
X156089089Y-69098541D01*
X156089999Y-69102792D01*
X156145185Y-69269331D01*
X156145187Y-69269336D01*
X156145435Y-69269738D01*
X156237288Y-69418656D01*
X156361344Y-69542712D01*
X156510666Y-69634814D01*
X156677203Y-69689999D01*
X156779991Y-69700500D01*
X157980008Y-69700499D01*
X158082797Y-69689999D01*
X158249334Y-69634814D01*
X158398656Y-69542712D01*
X158522712Y-69418656D01*
X158614814Y-69269334D01*
X158669999Y-69102797D01*
X158680500Y-69000009D01*
X158680499Y-67799992D01*
X158669999Y-67697203D01*
X158614814Y-67530666D01*
X158522712Y-67381344D01*
X158398656Y-67257288D01*
X158249334Y-67165186D01*
X158082797Y-67110001D01*
X158082795Y-67110000D01*
X157980010Y-67099500D01*
X156779998Y-67099500D01*
X156779981Y-67099501D01*
X156677203Y-67110000D01*
X156677200Y-67110001D01*
X156510668Y-67165185D01*
X156510663Y-67165187D01*
X156361342Y-67257289D01*
X156237289Y-67381342D01*
X156145187Y-67530663D01*
X156145185Y-67530668D01*
X156090000Y-67697204D01*
X156089088Y-67701467D01*
X156055801Y-67762898D01*
X155994586Y-67796581D01*
X155967837Y-67799500D01*
X152425316Y-67799500D01*
X152377864Y-67790061D01*
X152233501Y-67730264D01*
X152233489Y-67730261D01*
X152078845Y-67699500D01*
X152078842Y-67699500D01*
X151921158Y-67699500D01*
X151921155Y-67699500D01*
X151766510Y-67730261D01*
X151766498Y-67730264D01*
X151620827Y-67790602D01*
X151620814Y-67790609D01*
X151489711Y-67878210D01*
X151489707Y-67878213D01*
X151378213Y-67989707D01*
X151378210Y-67989711D01*
X151290609Y-68120814D01*
X151290602Y-68120827D01*
X151230264Y-68266498D01*
X151230261Y-68266510D01*
X151199500Y-68421153D01*
X136500500Y-68421153D01*
X136500500Y-63802190D01*
X136520185Y-63735151D01*
X136572989Y-63689396D01*
X136642147Y-63679452D01*
X136705703Y-63708477D01*
X136739061Y-63754738D01*
X136790602Y-63879172D01*
X136790609Y-63879185D01*
X136878210Y-64010288D01*
X136878213Y-64010292D01*
X136989707Y-64121786D01*
X136989711Y-64121789D01*
X137120814Y-64209390D01*
X137120827Y-64209397D01*
X137223876Y-64252081D01*
X137278280Y-64295922D01*
X137295081Y-64330635D01*
X137295948Y-64333494D01*
X137356289Y-64479172D01*
X137356296Y-64479185D01*
X137443897Y-64610288D01*
X137443900Y-64610292D01*
X137555394Y-64721786D01*
X137555398Y-64721789D01*
X137686501Y-64809390D01*
X137686514Y-64809397D01*
X137830097Y-64868870D01*
X137832190Y-64869737D01*
X137986840Y-64900499D01*
X137986843Y-64900500D01*
X137986845Y-64900500D01*
X138144531Y-64900500D01*
X138144532Y-64900499D01*
X138299184Y-64869737D01*
X138444866Y-64809394D01*
X138499350Y-64772989D01*
X138576562Y-64721398D01*
X138643240Y-64700520D01*
X138645453Y-64700500D01*
X177426689Y-64700500D01*
X177493728Y-64720185D01*
X177539483Y-64772989D01*
X177549427Y-64842147D01*
X177520402Y-64905703D01*
X177514370Y-64912181D01*
X177429205Y-64997345D01*
X177429201Y-64997350D01*
X177281132Y-65201151D01*
X177281130Y-65201155D01*
X177200954Y-65358511D01*
X177194185Y-65371795D01*
X177146211Y-65422591D01*
X177083700Y-65439500D01*
X167446669Y-65439500D01*
X167446653Y-65439499D01*
X167439057Y-65439499D01*
X167280943Y-65439499D01*
X167173587Y-65468265D01*
X167128210Y-65480424D01*
X167128209Y-65480425D01*
X167078096Y-65509359D01*
X167078095Y-65509360D01*
X167060567Y-65519480D01*
X166991285Y-65559479D01*
X166991282Y-65559481D01*
X166879478Y-65671286D01*
X165444842Y-67105921D01*
X165383519Y-67139406D01*
X165318848Y-67136173D01*
X165304534Y-67131522D01*
X165129995Y-67103878D01*
X165102352Y-67099500D01*
X164897648Y-67099500D01*
X164873329Y-67103351D01*
X164695465Y-67131522D01*
X164500776Y-67194781D01*
X164318386Y-67287715D01*
X164152786Y-67408028D01*
X164008028Y-67552786D01*
X163887715Y-67718386D01*
X163794781Y-67900776D01*
X163731522Y-68095465D01*
X163699500Y-68297648D01*
X163699500Y-68502351D01*
X163731522Y-68704534D01*
X163794781Y-68899223D01*
X163856319Y-69019995D01*
X163883320Y-69072989D01*
X163887715Y-69081613D01*
X164008028Y-69247213D01*
X164152786Y-69391971D01*
X164275646Y-69481232D01*
X164318390Y-69512287D01*
X164411779Y-69559871D01*
X164500776Y-69605218D01*
X164500778Y-69605218D01*
X164500781Y-69605220D01*
X164525963Y-69613402D01*
X164695465Y-69668477D01*
X164771375Y-69680500D01*
X164897648Y-69700500D01*
X164897649Y-69700500D01*
X165102351Y-69700500D01*
X165102352Y-69700500D01*
X165304534Y-69668477D01*
X165499219Y-69605220D01*
X165681610Y-69512287D01*
X165810482Y-69418657D01*
X165847213Y-69391971D01*
X165847215Y-69391968D01*
X165847219Y-69391966D01*
X165991966Y-69247219D01*
X165991968Y-69247215D01*
X165991971Y-69247213D01*
X166057667Y-69156788D01*
X166112287Y-69081610D01*
X166205220Y-68899219D01*
X166268477Y-68704534D01*
X166300500Y-68502352D01*
X166300500Y-68297648D01*
X166268477Y-68095466D01*
X166263825Y-68081151D01*
X166261832Y-68011312D01*
X166294075Y-67955158D01*
X167572416Y-66676819D01*
X167633739Y-66643334D01*
X167660097Y-66640500D01*
X177083700Y-66640500D01*
X177150739Y-66660185D01*
X177194185Y-66708205D01*
X177281132Y-66878848D01*
X177429201Y-67082649D01*
X177429205Y-67082654D01*
X177429207Y-67082656D01*
X177607344Y-67260793D01*
X177607345Y-67260794D01*
X177607344Y-67260794D01*
X177613661Y-67265383D01*
X177656327Y-67320714D01*
X177662305Y-67390327D01*
X177629699Y-67452122D01*
X177568860Y-67486479D01*
X177521378Y-67488174D01*
X177466611Y-67479500D01*
X177293389Y-67479500D01*
X177253728Y-67485781D01*
X177122302Y-67506597D01*
X177048235Y-67530663D01*
X176980164Y-67552781D01*
X176957552Y-67560128D01*
X176803211Y-67638768D01*
X176746289Y-67680125D01*
X176663072Y-67740586D01*
X176663070Y-67740588D01*
X176663069Y-67740588D01*
X176540588Y-67863069D01*
X176540588Y-67863070D01*
X176540586Y-67863072D01*
X176513189Y-67900781D01*
X176438768Y-68003211D01*
X176360128Y-68157552D01*
X176306597Y-68322302D01*
X176279500Y-68493389D01*
X176279500Y-68666611D01*
X176282811Y-68687513D01*
X176300262Y-68797701D01*
X176306598Y-68837701D01*
X176360127Y-69002445D01*
X176438768Y-69156788D01*
X176540586Y-69296928D01*
X176663072Y-69419414D01*
X176803212Y-69521232D01*
X176957555Y-69599873D01*
X177122299Y-69653402D01*
X177293389Y-69680500D01*
X177293390Y-69680500D01*
X177466610Y-69680500D01*
X177466611Y-69680500D01*
X177637701Y-69653402D01*
X177802445Y-69599873D01*
X177956788Y-69521232D01*
X178096928Y-69419414D01*
X178219414Y-69296928D01*
X178321232Y-69156788D01*
X178399873Y-69002445D01*
X178453402Y-68837701D01*
X178480500Y-68666611D01*
X178480500Y-68493389D01*
X178470854Y-68432486D01*
X180209500Y-68432486D01*
X180209500Y-68727513D01*
X180235901Y-68928038D01*
X180248007Y-69019993D01*
X180322212Y-69296930D01*
X180324361Y-69304951D01*
X180324364Y-69304961D01*
X180437254Y-69577500D01*
X180437258Y-69577510D01*
X180584761Y-69832993D01*
X180764352Y-70067040D01*
X180764358Y-70067047D01*
X180972952Y-70275641D01*
X180972959Y-70275647D01*
X181207006Y-70455238D01*
X181462489Y-70602741D01*
X181462490Y-70602741D01*
X181462493Y-70602743D01*
X181652682Y-70681522D01*
X181733956Y-70715187D01*
X181735048Y-70715639D01*
X182020007Y-70791993D01*
X182312494Y-70830500D01*
X182312501Y-70830500D01*
X182607499Y-70830500D01*
X182607506Y-70830500D01*
X182899993Y-70791993D01*
X183184952Y-70715639D01*
X183457507Y-70602743D01*
X183712994Y-70455238D01*
X183947042Y-70275646D01*
X184155646Y-70067042D01*
X184335238Y-69832994D01*
X184482743Y-69577507D01*
X184595639Y-69304952D01*
X184671993Y-69019993D01*
X184710500Y-68727506D01*
X184710500Y-68493389D01*
X186439500Y-68493389D01*
X186439500Y-68666611D01*
X186442811Y-68687513D01*
X186460262Y-68797701D01*
X186466598Y-68837701D01*
X186520127Y-69002445D01*
X186598768Y-69156788D01*
X186700586Y-69296928D01*
X186823072Y-69419414D01*
X186963212Y-69521232D01*
X187117555Y-69599873D01*
X187282299Y-69653402D01*
X187453389Y-69680500D01*
X187453390Y-69680500D01*
X187626610Y-69680500D01*
X187626611Y-69680500D01*
X187797701Y-69653402D01*
X187962445Y-69599873D01*
X188116788Y-69521232D01*
X188256928Y-69419414D01*
X188379414Y-69296928D01*
X188481232Y-69156788D01*
X188559873Y-69002445D01*
X188613402Y-68837701D01*
X188640500Y-68666611D01*
X188640500Y-68493389D01*
X188613402Y-68322299D01*
X188559873Y-68157555D01*
X188481232Y-68003212D01*
X188379414Y-67863072D01*
X188256928Y-67740586D01*
X188116788Y-67638768D01*
X187962445Y-67560127D01*
X187797701Y-67506598D01*
X187797699Y-67506597D01*
X187797698Y-67506597D01*
X187666271Y-67485781D01*
X187626611Y-67479500D01*
X187453389Y-67479500D01*
X187413728Y-67485781D01*
X187282302Y-67506597D01*
X187208235Y-67530663D01*
X187140164Y-67552781D01*
X187117552Y-67560128D01*
X186963211Y-67638768D01*
X186906289Y-67680125D01*
X186823072Y-67740586D01*
X186823070Y-67740588D01*
X186823069Y-67740588D01*
X186700588Y-67863069D01*
X186700588Y-67863070D01*
X186700586Y-67863072D01*
X186673189Y-67900781D01*
X186598768Y-68003211D01*
X186520128Y-68157552D01*
X186466597Y-68322302D01*
X186439500Y-68493389D01*
X184710500Y-68493389D01*
X184710500Y-68432494D01*
X184671993Y-68140007D01*
X184595639Y-67855048D01*
X184579070Y-67815048D01*
X184543951Y-67730263D01*
X184482743Y-67582493D01*
X184470385Y-67561089D01*
X184335238Y-67327006D01*
X184155647Y-67092959D01*
X184155641Y-67092952D01*
X183947047Y-66884358D01*
X183947040Y-66884352D01*
X183712993Y-66704761D01*
X183457510Y-66557258D01*
X183457500Y-66557254D01*
X183184961Y-66444364D01*
X183184954Y-66444362D01*
X183184952Y-66444361D01*
X182899993Y-66368007D01*
X182851113Y-66361571D01*
X182607513Y-66329500D01*
X182607506Y-66329500D01*
X182312494Y-66329500D01*
X182312486Y-66329500D01*
X182034085Y-66366153D01*
X182020007Y-66368007D01*
X181884331Y-66404361D01*
X181735048Y-66444361D01*
X181735038Y-66444364D01*
X181462499Y-66557254D01*
X181462489Y-66557258D01*
X181207006Y-66704761D01*
X180972959Y-66884352D01*
X180972952Y-66884358D01*
X180764358Y-67092952D01*
X180764352Y-67092959D01*
X180584761Y-67327006D01*
X180437258Y-67582489D01*
X180437254Y-67582499D01*
X180324364Y-67855038D01*
X180324361Y-67855048D01*
X180282491Y-68011312D01*
X180248008Y-68140004D01*
X180248006Y-68140015D01*
X180209500Y-68432486D01*
X178470854Y-68432486D01*
X178453402Y-68322299D01*
X178399873Y-68157555D01*
X178321232Y-68003212D01*
X178219414Y-67863072D01*
X178167482Y-67811140D01*
X178133997Y-67749817D01*
X178138981Y-67680125D01*
X178180853Y-67624192D01*
X178246317Y-67599775D01*
X178274561Y-67600986D01*
X178275212Y-67601089D01*
X178275215Y-67601090D01*
X178524038Y-67640500D01*
X178524039Y-67640500D01*
X178775961Y-67640500D01*
X178775962Y-67640500D01*
X179024785Y-67601090D01*
X179264379Y-67523241D01*
X179488845Y-67408870D01*
X179692656Y-67260793D01*
X179870793Y-67082656D01*
X180018870Y-66878845D01*
X180133241Y-66654379D01*
X180211090Y-66414785D01*
X180250500Y-66165962D01*
X180250500Y-65914038D01*
X180223552Y-65743897D01*
X180232506Y-65674605D01*
X180277503Y-65621153D01*
X180344254Y-65600513D01*
X180346025Y-65600500D01*
X185393230Y-65600500D01*
X185393246Y-65600501D01*
X185400842Y-65600501D01*
X185558953Y-65600501D01*
X185558956Y-65600501D01*
X185711684Y-65559577D01*
X185781132Y-65519481D01*
X185848615Y-65480520D01*
X185960419Y-65368716D01*
X185960419Y-65368714D01*
X185970623Y-65358511D01*
X185970626Y-65358506D01*
X187192315Y-64136819D01*
X187253638Y-64103334D01*
X187279996Y-64100500D01*
X202433700Y-64100500D01*
X202500739Y-64120185D01*
X202544184Y-64168204D01*
X202628405Y-64333497D01*
X202631132Y-64338848D01*
X202779201Y-64542649D01*
X202779205Y-64542654D01*
X202957345Y-64720794D01*
X202957350Y-64720798D01*
X203124374Y-64842147D01*
X203161155Y-64868870D01*
X203246158Y-64912181D01*
X203385616Y-64983239D01*
X203385618Y-64983239D01*
X203385621Y-64983241D01*
X203625215Y-65061090D01*
X203874038Y-65100500D01*
X203874039Y-65100500D01*
X204125961Y-65100500D01*
X204125962Y-65100500D01*
X204374785Y-65061090D01*
X204614379Y-64983241D01*
X204838845Y-64868870D01*
X205042656Y-64720793D01*
X205220793Y-64542656D01*
X205368870Y-64338845D01*
X205483241Y-64114379D01*
X205561090Y-63874785D01*
X205600500Y-63625962D01*
X205600500Y-63374038D01*
X205561090Y-63125215D01*
X205483241Y-62885621D01*
X205480782Y-62880796D01*
X205467886Y-62812128D01*
X205494161Y-62747387D01*
X205551267Y-62707129D01*
X205591267Y-62700500D01*
X221339903Y-62700500D01*
X221406942Y-62720185D01*
X221427584Y-62736819D01*
X221467841Y-62777076D01*
X221501326Y-62838399D01*
X221498091Y-62903076D01*
X221438910Y-63085214D01*
X221410197Y-63266503D01*
X221399500Y-63334038D01*
X221399500Y-63585962D01*
X221418905Y-63708477D01*
X221438910Y-63834785D01*
X221516760Y-64074383D01*
X221585550Y-64209390D01*
X221606679Y-64250858D01*
X221631132Y-64298848D01*
X221779201Y-64502649D01*
X221779205Y-64502654D01*
X221957345Y-64680794D01*
X221957350Y-64680798D01*
X222134343Y-64809390D01*
X222161155Y-64828870D01*
X222301735Y-64900499D01*
X222385616Y-64943239D01*
X222385618Y-64943239D01*
X222385621Y-64943241D01*
X222625215Y-65021090D01*
X222874038Y-65060500D01*
X222874039Y-65060500D01*
X223125961Y-65060500D01*
X223125962Y-65060500D01*
X223374785Y-65021090D01*
X223614379Y-64943241D01*
X223838845Y-64828870D01*
X224042656Y-64680793D01*
X224220793Y-64502656D01*
X224368870Y-64298845D01*
X224483241Y-64074379D01*
X224561090Y-63834785D01*
X224600500Y-63585962D01*
X224600500Y-63334038D01*
X224561090Y-63085215D01*
X224483241Y-62845621D01*
X224483239Y-62845618D01*
X224483239Y-62845616D01*
X224429080Y-62739324D01*
X224368870Y-62621155D01*
X224338128Y-62578842D01*
X224220798Y-62417350D01*
X224220794Y-62417345D01*
X224042654Y-62239205D01*
X224042649Y-62239201D01*
X223838848Y-62091132D01*
X223838847Y-62091131D01*
X223838845Y-62091130D01*
X223768747Y-62055413D01*
X223614383Y-61976760D01*
X223374785Y-61898910D01*
X223336663Y-61892872D01*
X223125962Y-61859500D01*
X222874038Y-61859500D01*
X222755909Y-61878210D01*
X222625214Y-61898910D01*
X222536175Y-61927841D01*
X222443074Y-61958091D01*
X222373234Y-61960086D01*
X222317076Y-61927841D01*
X222127590Y-61738355D01*
X222127588Y-61738352D01*
X222008717Y-61619481D01*
X222008716Y-61619480D01*
X221921904Y-61569360D01*
X221921904Y-61569359D01*
X221921900Y-61569358D01*
X221871785Y-61540423D01*
X221719057Y-61499499D01*
X221560943Y-61499499D01*
X221553347Y-61499499D01*
X221553331Y-61499500D01*
X184341041Y-61499500D01*
X184300120Y-61510464D01*
X184300120Y-61510465D01*
X184262852Y-61520451D01*
X184188315Y-61540423D01*
X184188310Y-61540426D01*
X184051391Y-61619475D01*
X184051383Y-61619481D01*
X183807684Y-61863181D01*
X183746361Y-61896666D01*
X183720003Y-61899500D01*
X168855114Y-61899500D01*
X168788075Y-61879815D01*
X168742320Y-61827011D01*
X168732376Y-61757853D01*
X168744629Y-61719205D01*
X168754669Y-61699500D01*
X168826557Y-61558412D01*
X168892246Y-61356243D01*
X168925500Y-61146287D01*
X168925500Y-60933713D01*
X168892246Y-60723757D01*
X168826557Y-60521588D01*
X168730051Y-60332184D01*
X168730049Y-60332181D01*
X168730048Y-60332179D01*
X168605109Y-60160213D01*
X168454786Y-60009890D01*
X168282820Y-59884951D01*
X168282115Y-59884591D01*
X168274054Y-59880485D01*
X168223259Y-59832512D01*
X168206463Y-59764692D01*
X168228999Y-59698556D01*
X168274054Y-59659515D01*
X168282816Y-59655051D01*
X168304789Y-59639086D01*
X168454786Y-59530109D01*
X168454788Y-59530106D01*
X168454792Y-59530104D01*
X168605104Y-59379792D01*
X168605106Y-59379788D01*
X168605109Y-59379786D01*
X168728902Y-59209397D01*
X168730051Y-59207816D01*
X168826557Y-59018412D01*
X168892246Y-58816243D01*
X168925500Y-58606287D01*
X168925500Y-58393713D01*
X168892246Y-58183757D01*
X168826557Y-57981588D01*
X168730051Y-57792184D01*
X168730049Y-57792181D01*
X168730048Y-57792179D01*
X168605109Y-57620213D01*
X168454786Y-57469890D01*
X168282820Y-57344951D01*
X168282115Y-57344591D01*
X168274054Y-57340485D01*
X168223259Y-57292512D01*
X168206463Y-57224692D01*
X168228999Y-57158556D01*
X168274054Y-57119515D01*
X168282816Y-57115051D01*
X168304789Y-57099086D01*
X168454786Y-56990109D01*
X168454788Y-56990106D01*
X168454792Y-56990104D01*
X168605104Y-56839792D01*
X168605106Y-56839788D01*
X168605109Y-56839786D01*
X168730048Y-56667820D01*
X168730047Y-56667820D01*
X168730051Y-56667816D01*
X168826557Y-56478412D01*
X168892246Y-56276243D01*
X168925500Y-56066287D01*
X168925500Y-55853713D01*
X168892246Y-55643757D01*
X168826557Y-55441588D01*
X168730051Y-55252184D01*
X168730049Y-55252181D01*
X168730048Y-55252179D01*
X168605109Y-55080213D01*
X168454790Y-54929894D01*
X168454785Y-54929890D01*
X168281140Y-54803730D01*
X168238474Y-54748400D01*
X168232495Y-54678787D01*
X168265100Y-54616992D01*
X168297732Y-54592927D01*
X168332816Y-54575051D01*
X168332815Y-54575051D01*
X168332818Y-54575050D01*
X168504786Y-54450109D01*
X168504788Y-54450106D01*
X168504792Y-54450104D01*
X168655104Y-54299792D01*
X168655106Y-54299788D01*
X168655109Y-54299786D01*
X168780048Y-54127820D01*
X168780047Y-54127820D01*
X168780051Y-54127816D01*
X168876557Y-53938412D01*
X168942246Y-53736243D01*
X168975500Y-53526287D01*
X168975500Y-53313713D01*
X168942246Y-53103757D01*
X168876557Y-52901588D01*
X168780051Y-52712184D01*
X168780049Y-52712181D01*
X168780048Y-52712179D01*
X168655109Y-52540213D01*
X168504786Y-52389890D01*
X168332820Y-52264951D01*
X168332115Y-52264591D01*
X168324054Y-52260485D01*
X168273259Y-52212512D01*
X168256463Y-52144692D01*
X168278999Y-52078556D01*
X168324054Y-52039515D01*
X168332816Y-52035051D01*
X168354789Y-52019086D01*
X168504786Y-51910109D01*
X168504788Y-51910106D01*
X168504792Y-51910104D01*
X168655104Y-51759792D01*
X168655106Y-51759788D01*
X168655109Y-51759786D01*
X168780048Y-51587820D01*
X168780047Y-51587820D01*
X168780051Y-51587816D01*
X168876557Y-51398412D01*
X168942246Y-51196243D01*
X168975500Y-50986287D01*
X168975500Y-50773713D01*
X168942246Y-50563757D01*
X168876557Y-50361588D01*
X168780051Y-50172184D01*
X168780049Y-50172181D01*
X168780048Y-50172179D01*
X168655109Y-50000213D01*
X168504786Y-49849890D01*
X168332820Y-49724951D01*
X168332115Y-49724591D01*
X168324054Y-49720485D01*
X168273259Y-49672512D01*
X168256463Y-49604692D01*
X168278999Y-49538556D01*
X168324054Y-49499515D01*
X168332816Y-49495051D01*
X168429234Y-49425000D01*
X168504786Y-49370109D01*
X168504788Y-49370106D01*
X168504792Y-49370104D01*
X168655104Y-49219792D01*
X168655106Y-49219788D01*
X168655109Y-49219786D01*
X168713661Y-49139193D01*
X168780051Y-49047816D01*
X168786690Y-49034786D01*
X168800235Y-49008205D01*
X168848209Y-48957409D01*
X168910719Y-48940500D01*
X175339903Y-48940500D01*
X175406942Y-48960185D01*
X175427584Y-48976819D01*
X179148181Y-52697416D01*
X179181666Y-52758739D01*
X179184500Y-52785097D01*
X179184500Y-54132870D01*
X179184501Y-54132876D01*
X179190908Y-54192483D01*
X179241202Y-54327328D01*
X179241206Y-54327335D01*
X179327452Y-54442544D01*
X179327455Y-54442547D01*
X179442664Y-54528793D01*
X179442671Y-54528797D01*
X179577517Y-54579091D01*
X179577516Y-54579091D01*
X179584444Y-54579835D01*
X179637127Y-54585500D01*
X181432872Y-54585499D01*
X181492483Y-54579091D01*
X181627331Y-54528796D01*
X181742546Y-54442546D01*
X181828796Y-54327331D01*
X181879091Y-54192483D01*
X181885500Y-54132873D01*
X181885499Y-52337128D01*
X181879091Y-52277517D01*
X181874404Y-52264951D01*
X181828797Y-52142671D01*
X181828793Y-52142664D01*
X181742547Y-52027455D01*
X181742544Y-52027452D01*
X181627335Y-51941206D01*
X181627328Y-51941202D01*
X181495917Y-51892189D01*
X181439983Y-51850318D01*
X181415566Y-51784853D01*
X181430418Y-51716580D01*
X181451563Y-51688332D01*
X181565104Y-51574792D01*
X181690051Y-51402816D01*
X181786557Y-51213412D01*
X181852246Y-51011243D01*
X181885500Y-50801287D01*
X181885500Y-50588713D01*
X181852246Y-50378757D01*
X181786557Y-50176588D01*
X181690051Y-49987184D01*
X181690049Y-49987181D01*
X181690048Y-49987179D01*
X181565109Y-49815213D01*
X181414786Y-49664890D01*
X181242820Y-49539951D01*
X181240082Y-49538556D01*
X181234054Y-49535485D01*
X181183259Y-49487512D01*
X181166463Y-49419692D01*
X181188999Y-49353556D01*
X181234054Y-49314515D01*
X181242816Y-49310051D01*
X181367048Y-49219792D01*
X181414786Y-49185109D01*
X181414788Y-49185106D01*
X181414792Y-49185104D01*
X181565104Y-49034792D01*
X181565106Y-49034788D01*
X181565109Y-49034786D01*
X181690048Y-48862820D01*
X181690047Y-48862820D01*
X181690051Y-48862816D01*
X181786557Y-48673412D01*
X181852246Y-48471243D01*
X181885500Y-48261287D01*
X181885500Y-48048713D01*
X181852246Y-47838757D01*
X181786557Y-47636588D01*
X181690051Y-47447184D01*
X181690049Y-47447181D01*
X181690048Y-47447179D01*
X181565109Y-47275213D01*
X181414786Y-47124890D01*
X181242820Y-46999951D01*
X181240082Y-46998556D01*
X181234054Y-46995485D01*
X181183259Y-46947512D01*
X181166463Y-46879692D01*
X181188999Y-46813556D01*
X181234054Y-46774515D01*
X181242816Y-46770051D01*
X181264789Y-46754086D01*
X181414786Y-46645109D01*
X181414788Y-46645106D01*
X181414792Y-46645104D01*
X181565104Y-46494792D01*
X181565106Y-46494788D01*
X181565109Y-46494786D01*
X181690048Y-46322820D01*
X181690047Y-46322820D01*
X181690051Y-46322816D01*
X181786557Y-46133412D01*
X181852246Y-45931243D01*
X181885500Y-45721287D01*
X181885500Y-45508713D01*
X181852246Y-45298757D01*
X181786557Y-45096588D01*
X181690051Y-44907184D01*
X181690049Y-44907181D01*
X181690048Y-44907179D01*
X181565109Y-44735213D01*
X181414786Y-44584890D01*
X181242820Y-44459951D01*
X181053414Y-44363444D01*
X181053413Y-44363443D01*
X181053412Y-44363443D01*
X180851243Y-44297754D01*
X180851241Y-44297753D01*
X180851240Y-44297753D01*
X180689957Y-44272208D01*
X180641287Y-44264500D01*
X180428713Y-44264500D01*
X180380042Y-44272208D01*
X180218760Y-44297753D01*
X180016585Y-44363444D01*
X179827179Y-44459951D01*
X179655213Y-44584890D01*
X179504890Y-44735213D01*
X179379951Y-44907179D01*
X179283444Y-45096585D01*
X179283443Y-45096587D01*
X179283443Y-45096588D01*
X179256519Y-45179452D01*
X179217753Y-45298760D01*
X179196763Y-45431286D01*
X179184500Y-45508713D01*
X179184500Y-45721287D01*
X179217754Y-45931243D01*
X179277864Y-46116243D01*
X179283444Y-46133414D01*
X179379951Y-46322820D01*
X179504890Y-46494786D01*
X179655213Y-46645109D01*
X179827182Y-46770050D01*
X179835946Y-46774516D01*
X179886742Y-46822491D01*
X179903536Y-46890312D01*
X179880998Y-46956447D01*
X179835946Y-46995484D01*
X179827182Y-46999949D01*
X179655213Y-47124890D01*
X179504890Y-47275213D01*
X179379951Y-47447179D01*
X179283444Y-47636585D01*
X179283443Y-47636587D01*
X179283443Y-47636588D01*
X179256401Y-47719815D01*
X179217753Y-47838760D01*
X179184500Y-48048713D01*
X179184500Y-48195903D01*
X179164815Y-48262942D01*
X179112011Y-48308697D01*
X179042853Y-48318641D01*
X178979297Y-48289616D01*
X178972819Y-48283584D01*
X176127590Y-45438355D01*
X176127588Y-45438352D01*
X176008717Y-45319481D01*
X176008716Y-45319480D01*
X175921904Y-45269360D01*
X175921904Y-45269359D01*
X175921900Y-45269358D01*
X175871785Y-45240423D01*
X175719057Y-45199499D01*
X175560943Y-45199499D01*
X175553347Y-45199499D01*
X175553331Y-45199500D01*
X168910719Y-45199500D01*
X168843680Y-45179815D01*
X168800235Y-45131795D01*
X168780052Y-45092185D01*
X168780051Y-45092184D01*
X168655109Y-44920213D01*
X168504786Y-44769890D01*
X168332820Y-44644951D01*
X168143414Y-44548444D01*
X168143413Y-44548443D01*
X168143412Y-44548443D01*
X167941243Y-44482754D01*
X167941241Y-44482753D01*
X167941240Y-44482753D01*
X167779957Y-44457208D01*
X167731287Y-44449500D01*
X165518713Y-44449500D01*
X165470042Y-44457208D01*
X165308760Y-44482753D01*
X165106585Y-44548444D01*
X164917179Y-44644951D01*
X164745213Y-44769890D01*
X164594890Y-44920213D01*
X164469951Y-45092179D01*
X164373444Y-45281585D01*
X164307753Y-45483760D01*
X164285892Y-45621786D01*
X164274500Y-45693713D01*
X164274500Y-45906287D01*
X164307754Y-46116243D01*
X164313333Y-46133414D01*
X164373444Y-46318414D01*
X164469951Y-46507820D01*
X164594890Y-46679786D01*
X164745213Y-46830109D01*
X164917182Y-46955050D01*
X164925946Y-46959516D01*
X164976742Y-47007491D01*
X164993536Y-47075312D01*
X164970998Y-47141447D01*
X164925946Y-47180484D01*
X164917182Y-47184949D01*
X164745213Y-47309890D01*
X164594890Y-47460213D01*
X164469951Y-47632179D01*
X164373444Y-47821585D01*
X164307753Y-48023760D01*
X164274500Y-48233713D01*
X164274500Y-48446286D01*
X164302296Y-48621786D01*
X164307754Y-48656243D01*
X164313333Y-48673414D01*
X164373444Y-48858414D01*
X164469951Y-49047820D01*
X164594890Y-49219786D01*
X164745213Y-49370109D01*
X164917182Y-49495050D01*
X164925946Y-49499516D01*
X164976742Y-49547491D01*
X164993536Y-49615312D01*
X164970998Y-49681447D01*
X164925946Y-49720484D01*
X164917182Y-49724949D01*
X164745213Y-49849890D01*
X164594890Y-50000213D01*
X164469951Y-50172179D01*
X164373444Y-50361585D01*
X164307753Y-50563760D01*
X164274500Y-50773713D01*
X164274500Y-50986286D01*
X164291890Y-51096086D01*
X164307754Y-51196243D01*
X164313333Y-51213414D01*
X164373444Y-51398414D01*
X164469951Y-51587820D01*
X164594890Y-51759786D01*
X164745213Y-51910109D01*
X164917182Y-52035050D01*
X164925946Y-52039516D01*
X164976742Y-52087491D01*
X164993536Y-52155312D01*
X164970998Y-52221447D01*
X164925946Y-52260484D01*
X164917182Y-52264949D01*
X164745213Y-52389890D01*
X164594890Y-52540213D01*
X164469951Y-52712179D01*
X164373444Y-52901585D01*
X164307753Y-53103760D01*
X164274500Y-53313713D01*
X164274500Y-53526286D01*
X164307753Y-53736239D01*
X164373444Y-53938414D01*
X164469951Y-54127820D01*
X164594890Y-54299786D01*
X164745213Y-54450109D01*
X164917182Y-54575050D01*
X164917184Y-54575051D01*
X164937691Y-54585500D01*
X164952268Y-54592927D01*
X165003064Y-54640900D01*
X165019860Y-54708721D01*
X164997323Y-54774856D01*
X164968859Y-54803730D01*
X164795214Y-54929890D01*
X164795209Y-54929894D01*
X164644890Y-55080213D01*
X164519951Y-55252179D01*
X164423444Y-55441585D01*
X164357753Y-55643760D01*
X164337800Y-55769738D01*
X164324500Y-55853713D01*
X164324500Y-56066287D01*
X164357754Y-56276243D01*
X164371486Y-56318507D01*
X164423444Y-56478414D01*
X164519951Y-56667820D01*
X164644890Y-56839786D01*
X164795213Y-56990109D01*
X164967182Y-57115050D01*
X164975946Y-57119516D01*
X165026742Y-57167491D01*
X165043536Y-57235312D01*
X165020998Y-57301447D01*
X164975946Y-57340484D01*
X164967182Y-57344949D01*
X164795213Y-57469890D01*
X164644890Y-57620213D01*
X164519951Y-57792179D01*
X164423444Y-57981585D01*
X164357753Y-58183760D01*
X164344649Y-58266498D01*
X164324500Y-58393713D01*
X164324500Y-58606287D01*
X164357754Y-58816243D01*
X164420803Y-59010288D01*
X164423444Y-59018414D01*
X164519951Y-59207820D01*
X164644890Y-59379786D01*
X164795213Y-59530109D01*
X164967182Y-59655050D01*
X164975946Y-59659516D01*
X165026742Y-59707491D01*
X165043536Y-59775312D01*
X165020998Y-59841447D01*
X164975946Y-59880484D01*
X164967182Y-59884949D01*
X164795213Y-60009890D01*
X164644890Y-60160213D01*
X164519951Y-60332179D01*
X164423444Y-60521585D01*
X164357753Y-60723760D01*
X164324500Y-60933713D01*
X164324500Y-61146287D01*
X164357754Y-61356243D01*
X164404301Y-61499500D01*
X164423444Y-61558414D01*
X164505371Y-61719205D01*
X164518267Y-61787874D01*
X164491991Y-61852615D01*
X164434884Y-61892872D01*
X164394886Y-61899500D01*
X151605114Y-61899500D01*
X151538075Y-61879815D01*
X151492320Y-61827011D01*
X151482376Y-61757853D01*
X151494629Y-61719205D01*
X151504669Y-61699500D01*
X151576557Y-61558412D01*
X151642246Y-61356243D01*
X151675500Y-61146287D01*
X151675500Y-60933713D01*
X151642246Y-60723757D01*
X151576557Y-60521588D01*
X151480051Y-60332184D01*
X151480049Y-60332181D01*
X151480048Y-60332179D01*
X151355109Y-60160213D01*
X151204786Y-60009890D01*
X151032820Y-59884951D01*
X151032115Y-59884591D01*
X151024054Y-59880485D01*
X150973259Y-59832512D01*
X150956463Y-59764692D01*
X150978999Y-59698556D01*
X151024054Y-59659515D01*
X151032816Y-59655051D01*
X151054789Y-59639086D01*
X151204786Y-59530109D01*
X151204788Y-59530106D01*
X151204792Y-59530104D01*
X151355104Y-59379792D01*
X151355106Y-59379788D01*
X151355109Y-59379786D01*
X151435063Y-59269737D01*
X151480051Y-59207816D01*
X151480349Y-59207230D01*
X151500235Y-59168205D01*
X151548209Y-59117409D01*
X151610719Y-59100500D01*
X152920234Y-59100500D01*
X152987273Y-59120185D01*
X152989125Y-59121398D01*
X153120814Y-59209390D01*
X153120827Y-59209397D01*
X153266498Y-59269735D01*
X153266503Y-59269737D01*
X153421153Y-59300499D01*
X153421156Y-59300500D01*
X153421158Y-59300500D01*
X153578844Y-59300500D01*
X153578845Y-59300499D01*
X153733497Y-59269737D01*
X153879179Y-59209394D01*
X154010289Y-59121789D01*
X154121789Y-59010289D01*
X154209394Y-58879179D01*
X154269737Y-58733497D01*
X154300500Y-58578842D01*
X154300500Y-58421158D01*
X154300500Y-58421155D01*
X154300499Y-58421153D01*
X154269738Y-58266510D01*
X154269737Y-58266503D01*
X154235463Y-58183757D01*
X154209397Y-58120827D01*
X154209390Y-58120814D01*
X154121789Y-57989711D01*
X154121786Y-57989707D01*
X154010292Y-57878213D01*
X154010288Y-57878210D01*
X153879185Y-57790609D01*
X153879172Y-57790602D01*
X153733501Y-57730264D01*
X153733489Y-57730261D01*
X153578845Y-57699500D01*
X153578842Y-57699500D01*
X153421158Y-57699500D01*
X153421155Y-57699500D01*
X153266510Y-57730261D01*
X153266498Y-57730264D01*
X153120827Y-57790602D01*
X153120814Y-57790609D01*
X152989125Y-57878602D01*
X152922447Y-57899480D01*
X152920234Y-57899500D01*
X151610719Y-57899500D01*
X151543680Y-57879815D01*
X151500235Y-57831795D01*
X151480052Y-57792185D01*
X151480051Y-57792184D01*
X151355109Y-57620213D01*
X151204786Y-57469890D01*
X151032820Y-57344951D01*
X151032115Y-57344591D01*
X151024054Y-57340485D01*
X150973259Y-57292512D01*
X150956463Y-57224692D01*
X150978999Y-57158556D01*
X151024054Y-57119515D01*
X151032816Y-57115051D01*
X151054789Y-57099086D01*
X151204786Y-56990109D01*
X151204788Y-56990106D01*
X151204792Y-56990104D01*
X151355104Y-56839792D01*
X151355106Y-56839788D01*
X151355109Y-56839786D01*
X151413661Y-56759193D01*
X151480051Y-56667816D01*
X151480349Y-56667230D01*
X151500235Y-56628205D01*
X151548209Y-56577409D01*
X151610719Y-56560500D01*
X152453331Y-56560500D01*
X152453347Y-56560501D01*
X152460943Y-56560501D01*
X152619054Y-56560501D01*
X152619057Y-56560501D01*
X152771785Y-56519577D01*
X152821904Y-56490639D01*
X152908716Y-56440520D01*
X153020520Y-56328716D01*
X153020520Y-56328714D01*
X153030728Y-56318507D01*
X153030729Y-56318504D01*
X153514662Y-55834572D01*
X153575983Y-55801089D01*
X153578150Y-55800638D01*
X153636085Y-55789113D01*
X153733497Y-55769737D01*
X153879179Y-55709394D01*
X154010289Y-55621789D01*
X154121789Y-55510289D01*
X154209394Y-55379179D01*
X154269737Y-55233497D01*
X154300500Y-55078842D01*
X154300500Y-54921158D01*
X154300500Y-54921155D01*
X154300499Y-54921153D01*
X154277142Y-54803730D01*
X154269737Y-54766503D01*
X154245688Y-54708443D01*
X154209397Y-54620827D01*
X154209390Y-54620814D01*
X154121789Y-54489711D01*
X154121786Y-54489707D01*
X154010292Y-54378213D01*
X154010288Y-54378210D01*
X153879185Y-54290609D01*
X153879172Y-54290602D01*
X153733501Y-54230264D01*
X153733489Y-54230261D01*
X153578845Y-54199500D01*
X153578842Y-54199500D01*
X153421158Y-54199500D01*
X153421155Y-54199500D01*
X153266510Y-54230261D01*
X153266498Y-54230264D01*
X153120827Y-54290602D01*
X153120814Y-54290609D01*
X152989711Y-54378210D01*
X152989707Y-54378213D01*
X152878213Y-54489707D01*
X152878210Y-54489711D01*
X152790609Y-54620814D01*
X152790602Y-54620827D01*
X152730264Y-54766498D01*
X152730261Y-54766508D01*
X152699361Y-54921850D01*
X152666976Y-54983761D01*
X152665425Y-54985339D01*
X152327584Y-55323181D01*
X152266261Y-55356666D01*
X152239903Y-55359500D01*
X151610719Y-55359500D01*
X151543680Y-55339815D01*
X151500235Y-55291795D01*
X151480052Y-55252185D01*
X151480051Y-55252184D01*
X151355109Y-55080213D01*
X151204786Y-54929890D01*
X151032820Y-54804951D01*
X151032115Y-54804591D01*
X151024054Y-54800485D01*
X150973259Y-54752512D01*
X150956463Y-54684692D01*
X150978999Y-54618556D01*
X151024054Y-54579515D01*
X151032816Y-54575051D01*
X151096485Y-54528793D01*
X151204786Y-54450109D01*
X151204788Y-54450106D01*
X151204792Y-54450104D01*
X151355104Y-54299792D01*
X151416077Y-54215868D01*
X151471407Y-54173202D01*
X151541020Y-54167223D01*
X151585285Y-54185650D01*
X151620821Y-54209394D01*
X151620823Y-54209395D01*
X151620827Y-54209397D01*
X151766498Y-54269735D01*
X151766503Y-54269737D01*
X151917569Y-54299786D01*
X151921153Y-54300499D01*
X151921156Y-54300500D01*
X151921158Y-54300500D01*
X152078844Y-54300500D01*
X152078845Y-54300499D01*
X152233497Y-54269737D01*
X152379179Y-54209394D01*
X152510289Y-54121789D01*
X152621789Y-54010289D01*
X152709394Y-53879179D01*
X152769737Y-53733497D01*
X152800500Y-53578842D01*
X152800500Y-53421158D01*
X152800500Y-53421155D01*
X152800499Y-53421153D01*
X152769737Y-53266503D01*
X152769735Y-53266498D01*
X152709397Y-53120827D01*
X152709390Y-53120814D01*
X152621789Y-52989711D01*
X152621786Y-52989707D01*
X152510292Y-52878213D01*
X152510288Y-52878210D01*
X152379185Y-52790609D01*
X152379172Y-52790602D01*
X152233501Y-52730264D01*
X152233489Y-52730261D01*
X152078845Y-52699500D01*
X152078842Y-52699500D01*
X151921158Y-52699500D01*
X151921155Y-52699500D01*
X151766510Y-52730261D01*
X151766498Y-52730264D01*
X151643476Y-52781221D01*
X151574006Y-52788690D01*
X151511527Y-52757414D01*
X151485539Y-52722955D01*
X151480051Y-52712184D01*
X151470836Y-52699500D01*
X151355109Y-52540213D01*
X151204786Y-52389890D01*
X151032820Y-52264951D01*
X151032115Y-52264591D01*
X151024054Y-52260485D01*
X150973259Y-52212512D01*
X150956463Y-52144692D01*
X150978999Y-52078556D01*
X151024054Y-52039515D01*
X151032816Y-52035051D01*
X151054789Y-52019086D01*
X151204786Y-51910109D01*
X151204788Y-51910106D01*
X151204792Y-51910104D01*
X151355104Y-51759792D01*
X151355106Y-51759788D01*
X151355109Y-51759786D01*
X151480048Y-51587820D01*
X151480047Y-51587820D01*
X151480051Y-51587816D01*
X151576557Y-51398412D01*
X151642246Y-51196243D01*
X151675500Y-50986287D01*
X151675500Y-50773713D01*
X151642246Y-50563757D01*
X151576557Y-50361588D01*
X151480051Y-50172184D01*
X151480049Y-50172181D01*
X151480048Y-50172179D01*
X151355109Y-50000213D01*
X151204786Y-49849890D01*
X151032820Y-49724951D01*
X151032115Y-49724591D01*
X151024054Y-49720485D01*
X150973259Y-49672512D01*
X150956463Y-49604692D01*
X150978999Y-49538556D01*
X151024054Y-49499515D01*
X151032816Y-49495051D01*
X151129234Y-49425000D01*
X151204786Y-49370109D01*
X151204788Y-49370106D01*
X151204792Y-49370104D01*
X151355104Y-49219792D01*
X151355106Y-49219788D01*
X151355109Y-49219786D01*
X151480048Y-49047820D01*
X151480047Y-49047820D01*
X151480051Y-49047816D01*
X151576557Y-48858412D01*
X151642246Y-48656243D01*
X151675500Y-48446287D01*
X151675500Y-48233713D01*
X151642246Y-48023757D01*
X151576557Y-47821588D01*
X151480051Y-47632184D01*
X151480049Y-47632181D01*
X151480048Y-47632179D01*
X151355109Y-47460213D01*
X151227986Y-47333090D01*
X151194501Y-47271767D01*
X151199485Y-47202075D01*
X151241357Y-47146142D01*
X151272335Y-47129227D01*
X151283948Y-47124896D01*
X151367331Y-47093796D01*
X151482546Y-47007546D01*
X151568796Y-46892331D01*
X151619091Y-46757483D01*
X151625500Y-46697873D01*
X151625499Y-44902128D01*
X151619091Y-44842517D01*
X151604893Y-44804451D01*
X151568797Y-44707671D01*
X151568793Y-44707664D01*
X151482547Y-44592455D01*
X151482544Y-44592452D01*
X151367335Y-44506206D01*
X151367328Y-44506202D01*
X151232482Y-44455908D01*
X151232483Y-44455908D01*
X151172883Y-44449501D01*
X151172881Y-44449500D01*
X151172873Y-44449500D01*
X151172865Y-44449500D01*
X149853364Y-44449500D01*
X149814820Y-44441834D01*
X149814635Y-44442527D01*
X149806786Y-44440424D01*
X149806785Y-44440423D01*
X149654057Y-44399499D01*
X149495943Y-44399499D01*
X149488347Y-44399499D01*
X149488331Y-44399500D01*
X138079766Y-44399500D01*
X138012727Y-44379815D01*
X138010875Y-44378602D01*
X137879185Y-44290609D01*
X137879172Y-44290602D01*
X137733501Y-44230264D01*
X137733489Y-44230261D01*
X137578845Y-44199500D01*
X137578842Y-44199500D01*
X137421158Y-44199500D01*
X137421155Y-44199500D01*
X137266510Y-44230261D01*
X137266498Y-44230264D01*
X137120827Y-44290602D01*
X137120814Y-44290609D01*
X136989711Y-44378210D01*
X136989707Y-44378213D01*
X136878213Y-44489707D01*
X136878210Y-44489711D01*
X136790609Y-44620814D01*
X136790602Y-44620827D01*
X136739061Y-44745261D01*
X136695220Y-44799665D01*
X136628926Y-44821730D01*
X136561227Y-44804451D01*
X136513616Y-44753314D01*
X136500500Y-44697809D01*
X136500500Y-42124500D01*
X136520185Y-42057461D01*
X136572989Y-42011706D01*
X136624500Y-42000500D01*
X230875500Y-42000500D01*
X230942539Y-42020185D01*
G37*
%TD.AperFunction*%
M02*
