%TF.GenerationSoftware,KiCad,Pcbnew,10.0.6*%
%TF.CreationDate,2026-09-01T21:26:02+05:00*%
%TF.ProjectId,macro-pad,6d616372-6f2d-4706-9164-2e6b69636164,rev?*%
%TF.SameCoordinates,Original*%
%TF.FileFunction,Soldermask,Top*%
%TF.FilePolarity,Negative*%
%FSLAX46Y46*%
G04 Gerber Fmt 4.6, Leading zero omitted, Abs format (unit mm)*
G04 Created by KiCad (PCBNEW 10.0.6) date 2026-09-01 21:26:02*
%MOMM*%
%LPD*%
G01*
G04 APERTURE LIST*
G04 Aperture macros list*
%AMRoundRect*
0 Rectangle with rounded corners*
0 $1 Rounding radius*
0 $2 $3 $4 $5 $6 $7 $8 $9 X,Y pos of 4 corners*
0 Add a 4 corners polygon primitive as box body*
4,1,4,$2,$3,$4,$5,$6,$7,$8,$9,$2,$3,0*
0 Add four circle primitives for the rounded corners*
1,1,$1+$1,$2,$3*
1,1,$1+$1,$4,$5*
1,1,$1+$1,$6,$7*
1,1,$1+$1,$8,$9*
0 Add four rect primitives between the rounded corners*
20,1,$1+$1,$2,$3,$4,$5,0*
20,1,$1+$1,$4,$5,$6,$7,0*
20,1,$1+$1,$6,$7,$8,$9,0*
20,1,$1+$1,$8,$9,$2,$3,0*%
G04 Aperture macros list end*
%ADD10C,1.700000*%
%ADD11C,4.000000*%
%ADD12C,2.200000*%
%ADD13RoundRect,0.250000X-0.550000X-0.550000X0.550000X-0.550000X0.550000X0.550000X-0.550000X0.550000X0*%
%ADD14C,1.600000*%
%ADD15R,1.700000X1.700000*%
%ADD16O,1.700000X1.700000*%
%ADD17R,3.500000X1.700000*%
%ADD18O,3.600000X1.700000*%
%ADD19O,3.700000X1.700000*%
G04 APERTURE END LIST*
D10*
%TO.C,SW4*%
X177380000Y-87500000D03*
D11*
X182460000Y-87500000D03*
D10*
X187540000Y-87500000D03*
D12*
X185000000Y-82420000D03*
X178650000Y-84960000D03*
%TD*%
D13*
%TO.C,D6*%
X157380000Y-86150000D03*
D14*
X165000000Y-86150000D03*
%TD*%
D10*
%TO.C,SW3*%
X215380000Y-68540000D03*
D11*
X220460000Y-68540000D03*
D10*
X225540000Y-68540000D03*
D12*
X223000000Y-63460000D03*
X216650000Y-66000000D03*
%TD*%
D13*
%TO.C,D5*%
X157380000Y-82600000D03*
D14*
X165000000Y-82600000D03*
%TD*%
D10*
%TO.C,SW1*%
X177380000Y-68580000D03*
D11*
X182460000Y-68580000D03*
D10*
X187540000Y-68580000D03*
D12*
X185000000Y-63500000D03*
X178650000Y-66040000D03*
%TD*%
D13*
%TO.C,D3*%
X157380000Y-75500000D03*
D14*
X165000000Y-75500000D03*
%TD*%
D13*
%TO.C,D1*%
X157380000Y-68400000D03*
D14*
X165000000Y-68400000D03*
%TD*%
D15*
%TO.C,U2*%
X180535000Y-53235000D03*
D16*
X180535000Y-50695000D03*
X180535000Y-48155000D03*
X180535000Y-45615000D03*
%TD*%
D13*
%TO.C,D4*%
X157380000Y-79050000D03*
D14*
X165000000Y-79050000D03*
%TD*%
D10*
%TO.C,SW6*%
X215420000Y-87500000D03*
D11*
X220500000Y-87500000D03*
D10*
X225580000Y-87500000D03*
D12*
X223040000Y-82420000D03*
X216690000Y-84960000D03*
%TD*%
D17*
%TO.C,U1*%
X149375000Y-45800000D03*
D18*
X149375000Y-48340000D03*
X149375000Y-50880000D03*
X149375000Y-53420000D03*
X149375000Y-55960000D03*
X149375000Y-58500000D03*
X149375000Y-61040000D03*
X166625000Y-61040000D03*
X166625000Y-58500000D03*
X166625000Y-55960000D03*
D19*
X166625000Y-53420000D03*
X166625000Y-50880000D03*
X166625000Y-48340000D03*
X166625000Y-45800000D03*
%TD*%
D10*
%TO.C,SW5*%
X196420000Y-87500000D03*
D11*
X201500000Y-87500000D03*
D10*
X206580000Y-87500000D03*
D12*
X204040000Y-82420000D03*
X197690000Y-84960000D03*
%TD*%
D10*
%TO.C,SW2*%
X196380000Y-68580000D03*
D11*
X201460000Y-68580000D03*
D10*
X206540000Y-68580000D03*
D12*
X204000000Y-63500000D03*
X197650000Y-66040000D03*
%TD*%
D13*
%TO.C,D2*%
X157380000Y-71950000D03*
D14*
X165000000Y-71950000D03*
%TD*%
M02*
