M48
; DRILL file KiCad 10.0.6 date 2026-09-01T21:26:14
; FORMAT={-:-/ absolute / metric / decimal}
; #@! TF.CreationDate,2026-09-01T21:26:14+05:00
; #@! TF.GenerationSoftware,Kicad,Pcbnew,10.0.6
; #@! TF.FileFunction,Plated,1,2,PTH
FMAT,2
METRIC
; #@! TA.AperFunction,Plated,PTH,ViaDrill
T1C0.300
; #@! TA.AperFunction,Plated,PTH,ComponentDrill
T2C0.800
; #@! TA.AperFunction,Plated,PTH,ComponentDrill
T3C1.000
; #@! TA.AperFunction,Plated,PTH,ComponentDrill
T4C1.500
%
G90
G05
T1
X137.5Y-45.0
X137.5Y-63.5
X138.066Y-64.1
X138.1Y-48.0
X141.0Y-51.0
X141.0Y-62.5
X150.5Y-79.0
X152.0Y-53.5
X152.0Y-68.5
X153.5Y-55.0
X153.5Y-58.5
T2
X157.38Y-68.4
X157.38Y-71.95
X157.38Y-75.5
X157.38Y-79.05
X157.38Y-82.6
X157.38Y-86.15
X165.0Y-68.4
X165.0Y-71.95
X165.0Y-75.5
X165.0Y-79.05
X165.0Y-82.6
X165.0Y-86.15
T3
X150.375Y-45.8
X150.375Y-48.34
X150.375Y-50.88
X150.375Y-53.42
X150.375Y-55.96
X150.375Y-58.5
X150.375Y-61.04
X165.625Y-45.8
X165.625Y-48.34
X165.625Y-50.88
X165.625Y-53.42
X165.625Y-55.96
X165.625Y-58.5
X165.625Y-61.04
X180.535Y-45.615
X180.535Y-48.155
X180.535Y-50.695
X180.535Y-53.235
T4
X178.65Y-66.04
X178.65Y-84.96
X185.0Y-63.5
X185.0Y-82.42
X197.65Y-66.04
X197.69Y-84.96
X204.0Y-63.5
X204.04Y-82.42
X216.65Y-66.0
X216.69Y-84.96
X223.0Y-63.46
X223.04Y-82.42
M30
