%TF.GenerationSoftware,KiCad,Pcbnew,10.0.6*%
%TF.CreationDate,2026-09-01T21:26:02+05:00*%
%TF.ProjectId,macro-pad,6d616372-6f2d-4706-9164-2e6b69636164,rev?*%
%TF.SameCoordinates,Original*%
%TF.FileFunction,Legend,Top*%
%TF.FilePolarity,Positive*%
%FSLAX46Y46*%
G04 Gerber Fmt 4.6, Leading zero omitted, Abs format (unit mm)*
G04 Created by KiCad (PCBNEW 10.0.6) date 2026-09-01 21:26:02*
%MOMM*%
%LPD*%
G01*
G04 APERTURE LIST*
%ADD10C,0.150000*%
%ADD11C,0.101600*%
%ADD12C,0.120000*%
%ADD13C,0.040000*%
%ADD14C,0.127000*%
%ADD15C,0.254000*%
%ADD16C,0.025400*%
G04 APERTURE END LIST*
D10*
X181126667Y-80033200D02*
X181269524Y-80080819D01*
X181269524Y-80080819D02*
X181507619Y-80080819D01*
X181507619Y-80080819D02*
X181602857Y-80033200D01*
X181602857Y-80033200D02*
X181650476Y-79985580D01*
X181650476Y-79985580D02*
X181698095Y-79890342D01*
X181698095Y-79890342D02*
X181698095Y-79795104D01*
X181698095Y-79795104D02*
X181650476Y-79699866D01*
X181650476Y-79699866D02*
X181602857Y-79652247D01*
X181602857Y-79652247D02*
X181507619Y-79604628D01*
X181507619Y-79604628D02*
X181317143Y-79557009D01*
X181317143Y-79557009D02*
X181221905Y-79509390D01*
X181221905Y-79509390D02*
X181174286Y-79461771D01*
X181174286Y-79461771D02*
X181126667Y-79366533D01*
X181126667Y-79366533D02*
X181126667Y-79271295D01*
X181126667Y-79271295D02*
X181174286Y-79176057D01*
X181174286Y-79176057D02*
X181221905Y-79128438D01*
X181221905Y-79128438D02*
X181317143Y-79080819D01*
X181317143Y-79080819D02*
X181555238Y-79080819D01*
X181555238Y-79080819D02*
X181698095Y-79128438D01*
X182031429Y-79080819D02*
X182269524Y-80080819D01*
X182269524Y-80080819D02*
X182460000Y-79366533D01*
X182460000Y-79366533D02*
X182650476Y-80080819D01*
X182650476Y-80080819D02*
X182888572Y-79080819D01*
X183698095Y-79414152D02*
X183698095Y-80080819D01*
X183460000Y-79033200D02*
X183221905Y-79747485D01*
X183221905Y-79747485D02*
X183840952Y-79747485D01*
X160451905Y-84484819D02*
X160451905Y-83484819D01*
X160451905Y-83484819D02*
X160690000Y-83484819D01*
X160690000Y-83484819D02*
X160832857Y-83532438D01*
X160832857Y-83532438D02*
X160928095Y-83627676D01*
X160928095Y-83627676D02*
X160975714Y-83722914D01*
X160975714Y-83722914D02*
X161023333Y-83913390D01*
X161023333Y-83913390D02*
X161023333Y-84056247D01*
X161023333Y-84056247D02*
X160975714Y-84246723D01*
X160975714Y-84246723D02*
X160928095Y-84341961D01*
X160928095Y-84341961D02*
X160832857Y-84437200D01*
X160832857Y-84437200D02*
X160690000Y-84484819D01*
X160690000Y-84484819D02*
X160451905Y-84484819D01*
X161880476Y-83484819D02*
X161690000Y-83484819D01*
X161690000Y-83484819D02*
X161594762Y-83532438D01*
X161594762Y-83532438D02*
X161547143Y-83580057D01*
X161547143Y-83580057D02*
X161451905Y-83722914D01*
X161451905Y-83722914D02*
X161404286Y-83913390D01*
X161404286Y-83913390D02*
X161404286Y-84294342D01*
X161404286Y-84294342D02*
X161451905Y-84389580D01*
X161451905Y-84389580D02*
X161499524Y-84437200D01*
X161499524Y-84437200D02*
X161594762Y-84484819D01*
X161594762Y-84484819D02*
X161785238Y-84484819D01*
X161785238Y-84484819D02*
X161880476Y-84437200D01*
X161880476Y-84437200D02*
X161928095Y-84389580D01*
X161928095Y-84389580D02*
X161975714Y-84294342D01*
X161975714Y-84294342D02*
X161975714Y-84056247D01*
X161975714Y-84056247D02*
X161928095Y-83961009D01*
X161928095Y-83961009D02*
X161880476Y-83913390D01*
X161880476Y-83913390D02*
X161785238Y-83865771D01*
X161785238Y-83865771D02*
X161594762Y-83865771D01*
X161594762Y-83865771D02*
X161499524Y-83913390D01*
X161499524Y-83913390D02*
X161451905Y-83961009D01*
X161451905Y-83961009D02*
X161404286Y-84056247D01*
X157118095Y-84804819D02*
X157118095Y-83804819D01*
X157689523Y-84804819D02*
X157260952Y-84233390D01*
X157689523Y-83804819D02*
X157118095Y-84376247D01*
X219126667Y-61073200D02*
X219269524Y-61120819D01*
X219269524Y-61120819D02*
X219507619Y-61120819D01*
X219507619Y-61120819D02*
X219602857Y-61073200D01*
X219602857Y-61073200D02*
X219650476Y-61025580D01*
X219650476Y-61025580D02*
X219698095Y-60930342D01*
X219698095Y-60930342D02*
X219698095Y-60835104D01*
X219698095Y-60835104D02*
X219650476Y-60739866D01*
X219650476Y-60739866D02*
X219602857Y-60692247D01*
X219602857Y-60692247D02*
X219507619Y-60644628D01*
X219507619Y-60644628D02*
X219317143Y-60597009D01*
X219317143Y-60597009D02*
X219221905Y-60549390D01*
X219221905Y-60549390D02*
X219174286Y-60501771D01*
X219174286Y-60501771D02*
X219126667Y-60406533D01*
X219126667Y-60406533D02*
X219126667Y-60311295D01*
X219126667Y-60311295D02*
X219174286Y-60216057D01*
X219174286Y-60216057D02*
X219221905Y-60168438D01*
X219221905Y-60168438D02*
X219317143Y-60120819D01*
X219317143Y-60120819D02*
X219555238Y-60120819D01*
X219555238Y-60120819D02*
X219698095Y-60168438D01*
X220031429Y-60120819D02*
X220269524Y-61120819D01*
X220269524Y-61120819D02*
X220460000Y-60406533D01*
X220460000Y-60406533D02*
X220650476Y-61120819D01*
X220650476Y-61120819D02*
X220888572Y-60120819D01*
X221174286Y-60120819D02*
X221793333Y-60120819D01*
X221793333Y-60120819D02*
X221460000Y-60501771D01*
X221460000Y-60501771D02*
X221602857Y-60501771D01*
X221602857Y-60501771D02*
X221698095Y-60549390D01*
X221698095Y-60549390D02*
X221745714Y-60597009D01*
X221745714Y-60597009D02*
X221793333Y-60692247D01*
X221793333Y-60692247D02*
X221793333Y-60930342D01*
X221793333Y-60930342D02*
X221745714Y-61025580D01*
X221745714Y-61025580D02*
X221698095Y-61073200D01*
X221698095Y-61073200D02*
X221602857Y-61120819D01*
X221602857Y-61120819D02*
X221317143Y-61120819D01*
X221317143Y-61120819D02*
X221221905Y-61073200D01*
X221221905Y-61073200D02*
X221174286Y-61025580D01*
X160451905Y-80934819D02*
X160451905Y-79934819D01*
X160451905Y-79934819D02*
X160690000Y-79934819D01*
X160690000Y-79934819D02*
X160832857Y-79982438D01*
X160832857Y-79982438D02*
X160928095Y-80077676D01*
X160928095Y-80077676D02*
X160975714Y-80172914D01*
X160975714Y-80172914D02*
X161023333Y-80363390D01*
X161023333Y-80363390D02*
X161023333Y-80506247D01*
X161023333Y-80506247D02*
X160975714Y-80696723D01*
X160975714Y-80696723D02*
X160928095Y-80791961D01*
X160928095Y-80791961D02*
X160832857Y-80887200D01*
X160832857Y-80887200D02*
X160690000Y-80934819D01*
X160690000Y-80934819D02*
X160451905Y-80934819D01*
X161928095Y-79934819D02*
X161451905Y-79934819D01*
X161451905Y-79934819D02*
X161404286Y-80411009D01*
X161404286Y-80411009D02*
X161451905Y-80363390D01*
X161451905Y-80363390D02*
X161547143Y-80315771D01*
X161547143Y-80315771D02*
X161785238Y-80315771D01*
X161785238Y-80315771D02*
X161880476Y-80363390D01*
X161880476Y-80363390D02*
X161928095Y-80411009D01*
X161928095Y-80411009D02*
X161975714Y-80506247D01*
X161975714Y-80506247D02*
X161975714Y-80744342D01*
X161975714Y-80744342D02*
X161928095Y-80839580D01*
X161928095Y-80839580D02*
X161880476Y-80887200D01*
X161880476Y-80887200D02*
X161785238Y-80934819D01*
X161785238Y-80934819D02*
X161547143Y-80934819D01*
X161547143Y-80934819D02*
X161451905Y-80887200D01*
X161451905Y-80887200D02*
X161404286Y-80839580D01*
X157118095Y-81254819D02*
X157118095Y-80254819D01*
X157689523Y-81254819D02*
X157260952Y-80683390D01*
X157689523Y-80254819D02*
X157118095Y-80826247D01*
X181126667Y-61113200D02*
X181269524Y-61160819D01*
X181269524Y-61160819D02*
X181507619Y-61160819D01*
X181507619Y-61160819D02*
X181602857Y-61113200D01*
X181602857Y-61113200D02*
X181650476Y-61065580D01*
X181650476Y-61065580D02*
X181698095Y-60970342D01*
X181698095Y-60970342D02*
X181698095Y-60875104D01*
X181698095Y-60875104D02*
X181650476Y-60779866D01*
X181650476Y-60779866D02*
X181602857Y-60732247D01*
X181602857Y-60732247D02*
X181507619Y-60684628D01*
X181507619Y-60684628D02*
X181317143Y-60637009D01*
X181317143Y-60637009D02*
X181221905Y-60589390D01*
X181221905Y-60589390D02*
X181174286Y-60541771D01*
X181174286Y-60541771D02*
X181126667Y-60446533D01*
X181126667Y-60446533D02*
X181126667Y-60351295D01*
X181126667Y-60351295D02*
X181174286Y-60256057D01*
X181174286Y-60256057D02*
X181221905Y-60208438D01*
X181221905Y-60208438D02*
X181317143Y-60160819D01*
X181317143Y-60160819D02*
X181555238Y-60160819D01*
X181555238Y-60160819D02*
X181698095Y-60208438D01*
X182031429Y-60160819D02*
X182269524Y-61160819D01*
X182269524Y-61160819D02*
X182460000Y-60446533D01*
X182460000Y-60446533D02*
X182650476Y-61160819D01*
X182650476Y-61160819D02*
X182888572Y-60160819D01*
X183793333Y-61160819D02*
X183221905Y-61160819D01*
X183507619Y-61160819D02*
X183507619Y-60160819D01*
X183507619Y-60160819D02*
X183412381Y-60303676D01*
X183412381Y-60303676D02*
X183317143Y-60398914D01*
X183317143Y-60398914D02*
X183221905Y-60446533D01*
X160451905Y-73834819D02*
X160451905Y-72834819D01*
X160451905Y-72834819D02*
X160690000Y-72834819D01*
X160690000Y-72834819D02*
X160832857Y-72882438D01*
X160832857Y-72882438D02*
X160928095Y-72977676D01*
X160928095Y-72977676D02*
X160975714Y-73072914D01*
X160975714Y-73072914D02*
X161023333Y-73263390D01*
X161023333Y-73263390D02*
X161023333Y-73406247D01*
X161023333Y-73406247D02*
X160975714Y-73596723D01*
X160975714Y-73596723D02*
X160928095Y-73691961D01*
X160928095Y-73691961D02*
X160832857Y-73787200D01*
X160832857Y-73787200D02*
X160690000Y-73834819D01*
X160690000Y-73834819D02*
X160451905Y-73834819D01*
X161356667Y-72834819D02*
X161975714Y-72834819D01*
X161975714Y-72834819D02*
X161642381Y-73215771D01*
X161642381Y-73215771D02*
X161785238Y-73215771D01*
X161785238Y-73215771D02*
X161880476Y-73263390D01*
X161880476Y-73263390D02*
X161928095Y-73311009D01*
X161928095Y-73311009D02*
X161975714Y-73406247D01*
X161975714Y-73406247D02*
X161975714Y-73644342D01*
X161975714Y-73644342D02*
X161928095Y-73739580D01*
X161928095Y-73739580D02*
X161880476Y-73787200D01*
X161880476Y-73787200D02*
X161785238Y-73834819D01*
X161785238Y-73834819D02*
X161499524Y-73834819D01*
X161499524Y-73834819D02*
X161404286Y-73787200D01*
X161404286Y-73787200D02*
X161356667Y-73739580D01*
X157118095Y-74154819D02*
X157118095Y-73154819D01*
X157689523Y-74154819D02*
X157260952Y-73583390D01*
X157689523Y-73154819D02*
X157118095Y-73726247D01*
X160451905Y-66734819D02*
X160451905Y-65734819D01*
X160451905Y-65734819D02*
X160690000Y-65734819D01*
X160690000Y-65734819D02*
X160832857Y-65782438D01*
X160832857Y-65782438D02*
X160928095Y-65877676D01*
X160928095Y-65877676D02*
X160975714Y-65972914D01*
X160975714Y-65972914D02*
X161023333Y-66163390D01*
X161023333Y-66163390D02*
X161023333Y-66306247D01*
X161023333Y-66306247D02*
X160975714Y-66496723D01*
X160975714Y-66496723D02*
X160928095Y-66591961D01*
X160928095Y-66591961D02*
X160832857Y-66687200D01*
X160832857Y-66687200D02*
X160690000Y-66734819D01*
X160690000Y-66734819D02*
X160451905Y-66734819D01*
X161975714Y-66734819D02*
X161404286Y-66734819D01*
X161690000Y-66734819D02*
X161690000Y-65734819D01*
X161690000Y-65734819D02*
X161594762Y-65877676D01*
X161594762Y-65877676D02*
X161499524Y-65972914D01*
X161499524Y-65972914D02*
X161404286Y-66020533D01*
X157118095Y-67054819D02*
X157118095Y-66054819D01*
X157689523Y-67054819D02*
X157260952Y-66483390D01*
X157689523Y-66054819D02*
X157118095Y-66626247D01*
X214589819Y-50276904D02*
X215399342Y-50276904D01*
X215399342Y-50276904D02*
X215494580Y-50229285D01*
X215494580Y-50229285D02*
X215542200Y-50181666D01*
X215542200Y-50181666D02*
X215589819Y-50086428D01*
X215589819Y-50086428D02*
X215589819Y-49895952D01*
X215589819Y-49895952D02*
X215542200Y-49800714D01*
X215542200Y-49800714D02*
X215494580Y-49753095D01*
X215494580Y-49753095D02*
X215399342Y-49705476D01*
X215399342Y-49705476D02*
X214589819Y-49705476D01*
X214685057Y-49276904D02*
X214637438Y-49229285D01*
X214637438Y-49229285D02*
X214589819Y-49134047D01*
X214589819Y-49134047D02*
X214589819Y-48895952D01*
X214589819Y-48895952D02*
X214637438Y-48800714D01*
X214637438Y-48800714D02*
X214685057Y-48753095D01*
X214685057Y-48753095D02*
X214780295Y-48705476D01*
X214780295Y-48705476D02*
X214875533Y-48705476D01*
X214875533Y-48705476D02*
X215018390Y-48753095D01*
X215018390Y-48753095D02*
X215589819Y-49324523D01*
X215589819Y-49324523D02*
X215589819Y-48705476D01*
X182838450Y-46525713D02*
X182874164Y-46418571D01*
X182874164Y-46418571D02*
X182874164Y-46239999D01*
X182874164Y-46239999D02*
X182838450Y-46168571D01*
X182838450Y-46168571D02*
X182802735Y-46132856D01*
X182802735Y-46132856D02*
X182731307Y-46097142D01*
X182731307Y-46097142D02*
X182659878Y-46097142D01*
X182659878Y-46097142D02*
X182588450Y-46132856D01*
X182588450Y-46132856D02*
X182552735Y-46168571D01*
X182552735Y-46168571D02*
X182517021Y-46239999D01*
X182517021Y-46239999D02*
X182481307Y-46382856D01*
X182481307Y-46382856D02*
X182445592Y-46454285D01*
X182445592Y-46454285D02*
X182409878Y-46489999D01*
X182409878Y-46489999D02*
X182338450Y-46525713D01*
X182338450Y-46525713D02*
X182267021Y-46525713D01*
X182267021Y-46525713D02*
X182195592Y-46489999D01*
X182195592Y-46489999D02*
X182159878Y-46454285D01*
X182159878Y-46454285D02*
X182124164Y-46382856D01*
X182124164Y-46382856D02*
X182124164Y-46204285D01*
X182124164Y-46204285D02*
X182159878Y-46097142D01*
X182874164Y-45775713D02*
X182124164Y-45775713D01*
X182124164Y-45775713D02*
X182124164Y-45597142D01*
X182124164Y-45597142D02*
X182159878Y-45489999D01*
X182159878Y-45489999D02*
X182231307Y-45418570D01*
X182231307Y-45418570D02*
X182302735Y-45382856D01*
X182302735Y-45382856D02*
X182445592Y-45347142D01*
X182445592Y-45347142D02*
X182552735Y-45347142D01*
X182552735Y-45347142D02*
X182695592Y-45382856D01*
X182695592Y-45382856D02*
X182767021Y-45418570D01*
X182767021Y-45418570D02*
X182838450Y-45489999D01*
X182838450Y-45489999D02*
X182874164Y-45597142D01*
X182874164Y-45597142D02*
X182874164Y-45775713D01*
X182659878Y-45061427D02*
X182659878Y-44704285D01*
X182874164Y-45132856D02*
X182124164Y-44882856D01*
X182124164Y-44882856D02*
X182874164Y-44632856D01*
X182838450Y-49047856D02*
X182874164Y-48940714D01*
X182874164Y-48940714D02*
X182874164Y-48762142D01*
X182874164Y-48762142D02*
X182838450Y-48690714D01*
X182838450Y-48690714D02*
X182802735Y-48654999D01*
X182802735Y-48654999D02*
X182731307Y-48619285D01*
X182731307Y-48619285D02*
X182659878Y-48619285D01*
X182659878Y-48619285D02*
X182588450Y-48654999D01*
X182588450Y-48654999D02*
X182552735Y-48690714D01*
X182552735Y-48690714D02*
X182517021Y-48762142D01*
X182517021Y-48762142D02*
X182481307Y-48904999D01*
X182481307Y-48904999D02*
X182445592Y-48976428D01*
X182445592Y-48976428D02*
X182409878Y-49012142D01*
X182409878Y-49012142D02*
X182338450Y-49047856D01*
X182338450Y-49047856D02*
X182267021Y-49047856D01*
X182267021Y-49047856D02*
X182195592Y-49012142D01*
X182195592Y-49012142D02*
X182159878Y-48976428D01*
X182159878Y-48976428D02*
X182124164Y-48904999D01*
X182124164Y-48904999D02*
X182124164Y-48726428D01*
X182124164Y-48726428D02*
X182159878Y-48619285D01*
X182802735Y-47869285D02*
X182838450Y-47904999D01*
X182838450Y-47904999D02*
X182874164Y-48012142D01*
X182874164Y-48012142D02*
X182874164Y-48083570D01*
X182874164Y-48083570D02*
X182838450Y-48190713D01*
X182838450Y-48190713D02*
X182767021Y-48262142D01*
X182767021Y-48262142D02*
X182695592Y-48297856D01*
X182695592Y-48297856D02*
X182552735Y-48333570D01*
X182552735Y-48333570D02*
X182445592Y-48333570D01*
X182445592Y-48333570D02*
X182302735Y-48297856D01*
X182302735Y-48297856D02*
X182231307Y-48262142D01*
X182231307Y-48262142D02*
X182159878Y-48190713D01*
X182159878Y-48190713D02*
X182124164Y-48083570D01*
X182124164Y-48083570D02*
X182124164Y-48012142D01*
X182124164Y-48012142D02*
X182159878Y-47904999D01*
X182159878Y-47904999D02*
X182195592Y-47869285D01*
X182874164Y-47190713D02*
X182874164Y-47547856D01*
X182874164Y-47547856D02*
X182124164Y-47547856D01*
X182124164Y-51694999D02*
X182874164Y-51444999D01*
X182874164Y-51444999D02*
X182124164Y-51194999D01*
X182802735Y-50516428D02*
X182838450Y-50552142D01*
X182838450Y-50552142D02*
X182874164Y-50659285D01*
X182874164Y-50659285D02*
X182874164Y-50730713D01*
X182874164Y-50730713D02*
X182838450Y-50837856D01*
X182838450Y-50837856D02*
X182767021Y-50909285D01*
X182767021Y-50909285D02*
X182695592Y-50944999D01*
X182695592Y-50944999D02*
X182552735Y-50980713D01*
X182552735Y-50980713D02*
X182445592Y-50980713D01*
X182445592Y-50980713D02*
X182302735Y-50944999D01*
X182302735Y-50944999D02*
X182231307Y-50909285D01*
X182231307Y-50909285D02*
X182159878Y-50837856D01*
X182159878Y-50837856D02*
X182124164Y-50730713D01*
X182124164Y-50730713D02*
X182124164Y-50659285D01*
X182124164Y-50659285D02*
X182159878Y-50552142D01*
X182159878Y-50552142D02*
X182195592Y-50516428D01*
X182802735Y-49766428D02*
X182838450Y-49802142D01*
X182838450Y-49802142D02*
X182874164Y-49909285D01*
X182874164Y-49909285D02*
X182874164Y-49980713D01*
X182874164Y-49980713D02*
X182838450Y-50087856D01*
X182838450Y-50087856D02*
X182767021Y-50159285D01*
X182767021Y-50159285D02*
X182695592Y-50194999D01*
X182695592Y-50194999D02*
X182552735Y-50230713D01*
X182552735Y-50230713D02*
X182445592Y-50230713D01*
X182445592Y-50230713D02*
X182302735Y-50194999D01*
X182302735Y-50194999D02*
X182231307Y-50159285D01*
X182231307Y-50159285D02*
X182159878Y-50087856D01*
X182159878Y-50087856D02*
X182124164Y-49980713D01*
X182124164Y-49980713D02*
X182124164Y-49909285D01*
X182124164Y-49909285D02*
X182159878Y-49802142D01*
X182159878Y-49802142D02*
X182195592Y-49766428D01*
X182159878Y-53806428D02*
X182124164Y-53877857D01*
X182124164Y-53877857D02*
X182124164Y-53984999D01*
X182124164Y-53984999D02*
X182159878Y-54092142D01*
X182159878Y-54092142D02*
X182231307Y-54163571D01*
X182231307Y-54163571D02*
X182302735Y-54199285D01*
X182302735Y-54199285D02*
X182445592Y-54234999D01*
X182445592Y-54234999D02*
X182552735Y-54234999D01*
X182552735Y-54234999D02*
X182695592Y-54199285D01*
X182695592Y-54199285D02*
X182767021Y-54163571D01*
X182767021Y-54163571D02*
X182838450Y-54092142D01*
X182838450Y-54092142D02*
X182874164Y-53984999D01*
X182874164Y-53984999D02*
X182874164Y-53913571D01*
X182874164Y-53913571D02*
X182838450Y-53806428D01*
X182838450Y-53806428D02*
X182802735Y-53770714D01*
X182802735Y-53770714D02*
X182552735Y-53770714D01*
X182552735Y-53770714D02*
X182552735Y-53913571D01*
X182874164Y-53449285D02*
X182124164Y-53449285D01*
X182124164Y-53449285D02*
X182874164Y-53020714D01*
X182874164Y-53020714D02*
X182124164Y-53020714D01*
X182874164Y-52663571D02*
X182124164Y-52663571D01*
X182124164Y-52663571D02*
X182124164Y-52485000D01*
X182124164Y-52485000D02*
X182159878Y-52377857D01*
X182159878Y-52377857D02*
X182231307Y-52306428D01*
X182231307Y-52306428D02*
X182302735Y-52270714D01*
X182302735Y-52270714D02*
X182445592Y-52235000D01*
X182445592Y-52235000D02*
X182552735Y-52235000D01*
X182552735Y-52235000D02*
X182695592Y-52270714D01*
X182695592Y-52270714D02*
X182767021Y-52306428D01*
X182767021Y-52306428D02*
X182838450Y-52377857D01*
X182838450Y-52377857D02*
X182874164Y-52485000D01*
X182874164Y-52485000D02*
X182874164Y-52663571D01*
X194106428Y-48879819D02*
X194296904Y-48879819D01*
X194296904Y-48879819D02*
X194392142Y-48927438D01*
X194392142Y-48927438D02*
X194487380Y-49022676D01*
X194487380Y-49022676D02*
X194534999Y-49213152D01*
X194534999Y-49213152D02*
X194534999Y-49546485D01*
X194534999Y-49546485D02*
X194487380Y-49736961D01*
X194487380Y-49736961D02*
X194392142Y-49832200D01*
X194392142Y-49832200D02*
X194296904Y-49879819D01*
X194296904Y-49879819D02*
X194106428Y-49879819D01*
X194106428Y-49879819D02*
X194011190Y-49832200D01*
X194011190Y-49832200D02*
X193915952Y-49736961D01*
X193915952Y-49736961D02*
X193868333Y-49546485D01*
X193868333Y-49546485D02*
X193868333Y-49213152D01*
X193868333Y-49213152D02*
X193915952Y-49022676D01*
X193915952Y-49022676D02*
X194011190Y-48927438D01*
X194011190Y-48927438D02*
X194106428Y-48879819D01*
X195439761Y-49879819D02*
X194963571Y-49879819D01*
X194963571Y-49879819D02*
X194963571Y-48879819D01*
X195773095Y-49356009D02*
X196106428Y-49356009D01*
X196249285Y-49879819D02*
X195773095Y-49879819D01*
X195773095Y-49879819D02*
X195773095Y-48879819D01*
X195773095Y-48879819D02*
X196249285Y-48879819D01*
X196677857Y-49879819D02*
X196677857Y-48879819D01*
X196677857Y-48879819D02*
X196915952Y-48879819D01*
X196915952Y-48879819D02*
X197058809Y-48927438D01*
X197058809Y-48927438D02*
X197154047Y-49022676D01*
X197154047Y-49022676D02*
X197201666Y-49117914D01*
X197201666Y-49117914D02*
X197249285Y-49308390D01*
X197249285Y-49308390D02*
X197249285Y-49451247D01*
X197249285Y-49451247D02*
X197201666Y-49641723D01*
X197201666Y-49641723D02*
X197154047Y-49736961D01*
X197154047Y-49736961D02*
X197058809Y-49832200D01*
X197058809Y-49832200D02*
X196915952Y-49879819D01*
X196915952Y-49879819D02*
X196677857Y-49879819D01*
X198439762Y-49879819D02*
X198439762Y-48879819D01*
X198439762Y-48879819D02*
X198820714Y-48879819D01*
X198820714Y-48879819D02*
X198915952Y-48927438D01*
X198915952Y-48927438D02*
X198963571Y-48975057D01*
X198963571Y-48975057D02*
X199011190Y-49070295D01*
X199011190Y-49070295D02*
X199011190Y-49213152D01*
X199011190Y-49213152D02*
X198963571Y-49308390D01*
X198963571Y-49308390D02*
X198915952Y-49356009D01*
X198915952Y-49356009D02*
X198820714Y-49403628D01*
X198820714Y-49403628D02*
X198439762Y-49403628D01*
X199868333Y-49879819D02*
X199868333Y-49356009D01*
X199868333Y-49356009D02*
X199820714Y-49260771D01*
X199820714Y-49260771D02*
X199725476Y-49213152D01*
X199725476Y-49213152D02*
X199535000Y-49213152D01*
X199535000Y-49213152D02*
X199439762Y-49260771D01*
X199868333Y-49832200D02*
X199773095Y-49879819D01*
X199773095Y-49879819D02*
X199535000Y-49879819D01*
X199535000Y-49879819D02*
X199439762Y-49832200D01*
X199439762Y-49832200D02*
X199392143Y-49736961D01*
X199392143Y-49736961D02*
X199392143Y-49641723D01*
X199392143Y-49641723D02*
X199439762Y-49546485D01*
X199439762Y-49546485D02*
X199535000Y-49498866D01*
X199535000Y-49498866D02*
X199773095Y-49498866D01*
X199773095Y-49498866D02*
X199868333Y-49451247D01*
X200344524Y-49213152D02*
X200344524Y-49879819D01*
X200344524Y-49308390D02*
X200392143Y-49260771D01*
X200392143Y-49260771D02*
X200487381Y-49213152D01*
X200487381Y-49213152D02*
X200630238Y-49213152D01*
X200630238Y-49213152D02*
X200725476Y-49260771D01*
X200725476Y-49260771D02*
X200773095Y-49356009D01*
X200773095Y-49356009D02*
X200773095Y-49879819D01*
X201630238Y-49832200D02*
X201535000Y-49879819D01*
X201535000Y-49879819D02*
X201344524Y-49879819D01*
X201344524Y-49879819D02*
X201249286Y-49832200D01*
X201249286Y-49832200D02*
X201201667Y-49736961D01*
X201201667Y-49736961D02*
X201201667Y-49356009D01*
X201201667Y-49356009D02*
X201249286Y-49260771D01*
X201249286Y-49260771D02*
X201344524Y-49213152D01*
X201344524Y-49213152D02*
X201535000Y-49213152D01*
X201535000Y-49213152D02*
X201630238Y-49260771D01*
X201630238Y-49260771D02*
X201677857Y-49356009D01*
X201677857Y-49356009D02*
X201677857Y-49451247D01*
X201677857Y-49451247D02*
X201201667Y-49546485D01*
X202249286Y-49879819D02*
X202154048Y-49832200D01*
X202154048Y-49832200D02*
X202106429Y-49736961D01*
X202106429Y-49736961D02*
X202106429Y-48879819D01*
X160451905Y-77384819D02*
X160451905Y-76384819D01*
X160451905Y-76384819D02*
X160690000Y-76384819D01*
X160690000Y-76384819D02*
X160832857Y-76432438D01*
X160832857Y-76432438D02*
X160928095Y-76527676D01*
X160928095Y-76527676D02*
X160975714Y-76622914D01*
X160975714Y-76622914D02*
X161023333Y-76813390D01*
X161023333Y-76813390D02*
X161023333Y-76956247D01*
X161023333Y-76956247D02*
X160975714Y-77146723D01*
X160975714Y-77146723D02*
X160928095Y-77241961D01*
X160928095Y-77241961D02*
X160832857Y-77337200D01*
X160832857Y-77337200D02*
X160690000Y-77384819D01*
X160690000Y-77384819D02*
X160451905Y-77384819D01*
X161880476Y-76718152D02*
X161880476Y-77384819D01*
X161642381Y-76337200D02*
X161404286Y-77051485D01*
X161404286Y-77051485D02*
X162023333Y-77051485D01*
X157118095Y-77704819D02*
X157118095Y-76704819D01*
X157689523Y-77704819D02*
X157260952Y-77133390D01*
X157689523Y-76704819D02*
X157118095Y-77276247D01*
X219166667Y-80033200D02*
X219309524Y-80080819D01*
X219309524Y-80080819D02*
X219547619Y-80080819D01*
X219547619Y-80080819D02*
X219642857Y-80033200D01*
X219642857Y-80033200D02*
X219690476Y-79985580D01*
X219690476Y-79985580D02*
X219738095Y-79890342D01*
X219738095Y-79890342D02*
X219738095Y-79795104D01*
X219738095Y-79795104D02*
X219690476Y-79699866D01*
X219690476Y-79699866D02*
X219642857Y-79652247D01*
X219642857Y-79652247D02*
X219547619Y-79604628D01*
X219547619Y-79604628D02*
X219357143Y-79557009D01*
X219357143Y-79557009D02*
X219261905Y-79509390D01*
X219261905Y-79509390D02*
X219214286Y-79461771D01*
X219214286Y-79461771D02*
X219166667Y-79366533D01*
X219166667Y-79366533D02*
X219166667Y-79271295D01*
X219166667Y-79271295D02*
X219214286Y-79176057D01*
X219214286Y-79176057D02*
X219261905Y-79128438D01*
X219261905Y-79128438D02*
X219357143Y-79080819D01*
X219357143Y-79080819D02*
X219595238Y-79080819D01*
X219595238Y-79080819D02*
X219738095Y-79128438D01*
X220071429Y-79080819D02*
X220309524Y-80080819D01*
X220309524Y-80080819D02*
X220500000Y-79366533D01*
X220500000Y-79366533D02*
X220690476Y-80080819D01*
X220690476Y-80080819D02*
X220928572Y-79080819D01*
X221738095Y-79080819D02*
X221547619Y-79080819D01*
X221547619Y-79080819D02*
X221452381Y-79128438D01*
X221452381Y-79128438D02*
X221404762Y-79176057D01*
X221404762Y-79176057D02*
X221309524Y-79318914D01*
X221309524Y-79318914D02*
X221261905Y-79509390D01*
X221261905Y-79509390D02*
X221261905Y-79890342D01*
X221261905Y-79890342D02*
X221309524Y-79985580D01*
X221309524Y-79985580D02*
X221357143Y-80033200D01*
X221357143Y-80033200D02*
X221452381Y-80080819D01*
X221452381Y-80080819D02*
X221642857Y-80080819D01*
X221642857Y-80080819D02*
X221738095Y-80033200D01*
X221738095Y-80033200D02*
X221785714Y-79985580D01*
X221785714Y-79985580D02*
X221833333Y-79890342D01*
X221833333Y-79890342D02*
X221833333Y-79652247D01*
X221833333Y-79652247D02*
X221785714Y-79557009D01*
X221785714Y-79557009D02*
X221738095Y-79509390D01*
X221738095Y-79509390D02*
X221642857Y-79461771D01*
X221642857Y-79461771D02*
X221452381Y-79461771D01*
X221452381Y-79461771D02*
X221357143Y-79509390D01*
X221357143Y-79509390D02*
X221309524Y-79557009D01*
X221309524Y-79557009D02*
X221261905Y-79652247D01*
D11*
X157322666Y-55476985D02*
X157322666Y-56196652D01*
X157322666Y-56196652D02*
X157365000Y-56281318D01*
X157365000Y-56281318D02*
X157407333Y-56323652D01*
X157407333Y-56323652D02*
X157492000Y-56365985D01*
X157492000Y-56365985D02*
X157661333Y-56365985D01*
X157661333Y-56365985D02*
X157746000Y-56323652D01*
X157746000Y-56323652D02*
X157788333Y-56281318D01*
X157788333Y-56281318D02*
X157830666Y-56196652D01*
X157830666Y-56196652D02*
X157830666Y-55476985D01*
X158719666Y-56365985D02*
X158211666Y-56365985D01*
X158465666Y-56365985D02*
X158465666Y-55476985D01*
X158465666Y-55476985D02*
X158380999Y-55603985D01*
X158380999Y-55603985D02*
X158296333Y-55688652D01*
X158296333Y-55688652D02*
X158211666Y-55730985D01*
D10*
X153238095Y-52327200D02*
X153380952Y-52374819D01*
X153380952Y-52374819D02*
X153619047Y-52374819D01*
X153619047Y-52374819D02*
X153714285Y-52327200D01*
X153714285Y-52327200D02*
X153761904Y-52279580D01*
X153761904Y-52279580D02*
X153809523Y-52184342D01*
X153809523Y-52184342D02*
X153809523Y-52089104D01*
X153809523Y-52089104D02*
X153761904Y-51993866D01*
X153761904Y-51993866D02*
X153714285Y-51946247D01*
X153714285Y-51946247D02*
X153619047Y-51898628D01*
X153619047Y-51898628D02*
X153428571Y-51851009D01*
X153428571Y-51851009D02*
X153333333Y-51803390D01*
X153333333Y-51803390D02*
X153285714Y-51755771D01*
X153285714Y-51755771D02*
X153238095Y-51660533D01*
X153238095Y-51660533D02*
X153238095Y-51565295D01*
X153238095Y-51565295D02*
X153285714Y-51470057D01*
X153285714Y-51470057D02*
X153333333Y-51422438D01*
X153333333Y-51422438D02*
X153428571Y-51374819D01*
X153428571Y-51374819D02*
X153666666Y-51374819D01*
X153666666Y-51374819D02*
X153809523Y-51422438D01*
X154619047Y-52327200D02*
X154523809Y-52374819D01*
X154523809Y-52374819D02*
X154333333Y-52374819D01*
X154333333Y-52374819D02*
X154238095Y-52327200D01*
X154238095Y-52327200D02*
X154190476Y-52231961D01*
X154190476Y-52231961D02*
X154190476Y-51851009D01*
X154190476Y-51851009D02*
X154238095Y-51755771D01*
X154238095Y-51755771D02*
X154333333Y-51708152D01*
X154333333Y-51708152D02*
X154523809Y-51708152D01*
X154523809Y-51708152D02*
X154619047Y-51755771D01*
X154619047Y-51755771D02*
X154666666Y-51851009D01*
X154666666Y-51851009D02*
X154666666Y-51946247D01*
X154666666Y-51946247D02*
X154190476Y-52041485D01*
X155476190Y-52327200D02*
X155380952Y-52374819D01*
X155380952Y-52374819D02*
X155190476Y-52374819D01*
X155190476Y-52374819D02*
X155095238Y-52327200D01*
X155095238Y-52327200D02*
X155047619Y-52231961D01*
X155047619Y-52231961D02*
X155047619Y-51851009D01*
X155047619Y-51851009D02*
X155095238Y-51755771D01*
X155095238Y-51755771D02*
X155190476Y-51708152D01*
X155190476Y-51708152D02*
X155380952Y-51708152D01*
X155380952Y-51708152D02*
X155476190Y-51755771D01*
X155476190Y-51755771D02*
X155523809Y-51851009D01*
X155523809Y-51851009D02*
X155523809Y-51946247D01*
X155523809Y-51946247D02*
X155047619Y-52041485D01*
X156333333Y-52327200D02*
X156238095Y-52374819D01*
X156238095Y-52374819D02*
X156047619Y-52374819D01*
X156047619Y-52374819D02*
X155952381Y-52327200D01*
X155952381Y-52327200D02*
X155904762Y-52231961D01*
X155904762Y-52231961D02*
X155904762Y-51851009D01*
X155904762Y-51851009D02*
X155952381Y-51755771D01*
X155952381Y-51755771D02*
X156047619Y-51708152D01*
X156047619Y-51708152D02*
X156238095Y-51708152D01*
X156238095Y-51708152D02*
X156333333Y-51755771D01*
X156333333Y-51755771D02*
X156380952Y-51851009D01*
X156380952Y-51851009D02*
X156380952Y-51946247D01*
X156380952Y-51946247D02*
X155904762Y-52041485D01*
X157238095Y-52374819D02*
X157238095Y-51374819D01*
X157238095Y-52327200D02*
X157142857Y-52374819D01*
X157142857Y-52374819D02*
X156952381Y-52374819D01*
X156952381Y-52374819D02*
X156857143Y-52327200D01*
X156857143Y-52327200D02*
X156809524Y-52279580D01*
X156809524Y-52279580D02*
X156761905Y-52184342D01*
X156761905Y-52184342D02*
X156761905Y-51898628D01*
X156761905Y-51898628D02*
X156809524Y-51803390D01*
X156809524Y-51803390D02*
X156857143Y-51755771D01*
X156857143Y-51755771D02*
X156952381Y-51708152D01*
X156952381Y-51708152D02*
X157142857Y-51708152D01*
X157142857Y-51708152D02*
X157238095Y-51755771D01*
X158428572Y-52327200D02*
X158571429Y-52374819D01*
X158571429Y-52374819D02*
X158809524Y-52374819D01*
X158809524Y-52374819D02*
X158904762Y-52327200D01*
X158904762Y-52327200D02*
X158952381Y-52279580D01*
X158952381Y-52279580D02*
X159000000Y-52184342D01*
X159000000Y-52184342D02*
X159000000Y-52089104D01*
X159000000Y-52089104D02*
X158952381Y-51993866D01*
X158952381Y-51993866D02*
X158904762Y-51946247D01*
X158904762Y-51946247D02*
X158809524Y-51898628D01*
X158809524Y-51898628D02*
X158619048Y-51851009D01*
X158619048Y-51851009D02*
X158523810Y-51803390D01*
X158523810Y-51803390D02*
X158476191Y-51755771D01*
X158476191Y-51755771D02*
X158428572Y-51660533D01*
X158428572Y-51660533D02*
X158428572Y-51565295D01*
X158428572Y-51565295D02*
X158476191Y-51470057D01*
X158476191Y-51470057D02*
X158523810Y-51422438D01*
X158523810Y-51422438D02*
X158619048Y-51374819D01*
X158619048Y-51374819D02*
X158857143Y-51374819D01*
X158857143Y-51374819D02*
X159000000Y-51422438D01*
X159285715Y-51708152D02*
X159666667Y-51708152D01*
X159428572Y-51374819D02*
X159428572Y-52231961D01*
X159428572Y-52231961D02*
X159476191Y-52327200D01*
X159476191Y-52327200D02*
X159571429Y-52374819D01*
X159571429Y-52374819D02*
X159666667Y-52374819D01*
X160428572Y-51708152D02*
X160428572Y-52374819D01*
X160000001Y-51708152D02*
X160000001Y-52231961D01*
X160000001Y-52231961D02*
X160047620Y-52327200D01*
X160047620Y-52327200D02*
X160142858Y-52374819D01*
X160142858Y-52374819D02*
X160285715Y-52374819D01*
X160285715Y-52374819D02*
X160380953Y-52327200D01*
X160380953Y-52327200D02*
X160428572Y-52279580D01*
X161333334Y-52374819D02*
X161333334Y-51374819D01*
X161333334Y-52327200D02*
X161238096Y-52374819D01*
X161238096Y-52374819D02*
X161047620Y-52374819D01*
X161047620Y-52374819D02*
X160952382Y-52327200D01*
X160952382Y-52327200D02*
X160904763Y-52279580D01*
X160904763Y-52279580D02*
X160857144Y-52184342D01*
X160857144Y-52184342D02*
X160857144Y-51898628D01*
X160857144Y-51898628D02*
X160904763Y-51803390D01*
X160904763Y-51803390D02*
X160952382Y-51755771D01*
X160952382Y-51755771D02*
X161047620Y-51708152D01*
X161047620Y-51708152D02*
X161238096Y-51708152D01*
X161238096Y-51708152D02*
X161333334Y-51755771D01*
X161809525Y-52374819D02*
X161809525Y-51708152D01*
X161809525Y-51374819D02*
X161761906Y-51422438D01*
X161761906Y-51422438D02*
X161809525Y-51470057D01*
X161809525Y-51470057D02*
X161857144Y-51422438D01*
X161857144Y-51422438D02*
X161809525Y-51374819D01*
X161809525Y-51374819D02*
X161809525Y-51470057D01*
X162428572Y-52374819D02*
X162333334Y-52327200D01*
X162333334Y-52327200D02*
X162285715Y-52279580D01*
X162285715Y-52279580D02*
X162238096Y-52184342D01*
X162238096Y-52184342D02*
X162238096Y-51898628D01*
X162238096Y-51898628D02*
X162285715Y-51803390D01*
X162285715Y-51803390D02*
X162333334Y-51755771D01*
X162333334Y-51755771D02*
X162428572Y-51708152D01*
X162428572Y-51708152D02*
X162571429Y-51708152D01*
X162571429Y-51708152D02*
X162666667Y-51755771D01*
X162666667Y-51755771D02*
X162714286Y-51803390D01*
X162714286Y-51803390D02*
X162761905Y-51898628D01*
X162761905Y-51898628D02*
X162761905Y-52184342D01*
X162761905Y-52184342D02*
X162714286Y-52279580D01*
X162714286Y-52279580D02*
X162666667Y-52327200D01*
X162666667Y-52327200D02*
X162571429Y-52374819D01*
X162571429Y-52374819D02*
X162428572Y-52374819D01*
X156476191Y-53374819D02*
X157142857Y-54374819D01*
X157142857Y-53374819D02*
X156476191Y-54374819D01*
X157523810Y-54374819D02*
X157523810Y-53374819D01*
X157952381Y-54089104D02*
X158428571Y-54089104D01*
X157857143Y-54374819D02*
X158190476Y-53374819D01*
X158190476Y-53374819D02*
X158523809Y-54374819D01*
X159047619Y-53374819D02*
X159238095Y-53374819D01*
X159238095Y-53374819D02*
X159333333Y-53422438D01*
X159333333Y-53422438D02*
X159428571Y-53517676D01*
X159428571Y-53517676D02*
X159476190Y-53708152D01*
X159476190Y-53708152D02*
X159476190Y-54041485D01*
X159476190Y-54041485D02*
X159428571Y-54231961D01*
X159428571Y-54231961D02*
X159333333Y-54327200D01*
X159333333Y-54327200D02*
X159238095Y-54374819D01*
X159238095Y-54374819D02*
X159047619Y-54374819D01*
X159047619Y-54374819D02*
X158952381Y-54327200D01*
X158952381Y-54327200D02*
X158857143Y-54231961D01*
X158857143Y-54231961D02*
X158809524Y-54041485D01*
X158809524Y-54041485D02*
X158809524Y-53708152D01*
X158809524Y-53708152D02*
X158857143Y-53517676D01*
X158857143Y-53517676D02*
X158952381Y-53422438D01*
X158952381Y-53422438D02*
X159047619Y-53374819D01*
X200166667Y-80033200D02*
X200309524Y-80080819D01*
X200309524Y-80080819D02*
X200547619Y-80080819D01*
X200547619Y-80080819D02*
X200642857Y-80033200D01*
X200642857Y-80033200D02*
X200690476Y-79985580D01*
X200690476Y-79985580D02*
X200738095Y-79890342D01*
X200738095Y-79890342D02*
X200738095Y-79795104D01*
X200738095Y-79795104D02*
X200690476Y-79699866D01*
X200690476Y-79699866D02*
X200642857Y-79652247D01*
X200642857Y-79652247D02*
X200547619Y-79604628D01*
X200547619Y-79604628D02*
X200357143Y-79557009D01*
X200357143Y-79557009D02*
X200261905Y-79509390D01*
X200261905Y-79509390D02*
X200214286Y-79461771D01*
X200214286Y-79461771D02*
X200166667Y-79366533D01*
X200166667Y-79366533D02*
X200166667Y-79271295D01*
X200166667Y-79271295D02*
X200214286Y-79176057D01*
X200214286Y-79176057D02*
X200261905Y-79128438D01*
X200261905Y-79128438D02*
X200357143Y-79080819D01*
X200357143Y-79080819D02*
X200595238Y-79080819D01*
X200595238Y-79080819D02*
X200738095Y-79128438D01*
X201071429Y-79080819D02*
X201309524Y-80080819D01*
X201309524Y-80080819D02*
X201500000Y-79366533D01*
X201500000Y-79366533D02*
X201690476Y-80080819D01*
X201690476Y-80080819D02*
X201928572Y-79080819D01*
X202785714Y-79080819D02*
X202309524Y-79080819D01*
X202309524Y-79080819D02*
X202261905Y-79557009D01*
X202261905Y-79557009D02*
X202309524Y-79509390D01*
X202309524Y-79509390D02*
X202404762Y-79461771D01*
X202404762Y-79461771D02*
X202642857Y-79461771D01*
X202642857Y-79461771D02*
X202738095Y-79509390D01*
X202738095Y-79509390D02*
X202785714Y-79557009D01*
X202785714Y-79557009D02*
X202833333Y-79652247D01*
X202833333Y-79652247D02*
X202833333Y-79890342D01*
X202833333Y-79890342D02*
X202785714Y-79985580D01*
X202785714Y-79985580D02*
X202738095Y-80033200D01*
X202738095Y-80033200D02*
X202642857Y-80080819D01*
X202642857Y-80080819D02*
X202404762Y-80080819D01*
X202404762Y-80080819D02*
X202309524Y-80033200D01*
X202309524Y-80033200D02*
X202261905Y-79985580D01*
X200126667Y-61113200D02*
X200269524Y-61160819D01*
X200269524Y-61160819D02*
X200507619Y-61160819D01*
X200507619Y-61160819D02*
X200602857Y-61113200D01*
X200602857Y-61113200D02*
X200650476Y-61065580D01*
X200650476Y-61065580D02*
X200698095Y-60970342D01*
X200698095Y-60970342D02*
X200698095Y-60875104D01*
X200698095Y-60875104D02*
X200650476Y-60779866D01*
X200650476Y-60779866D02*
X200602857Y-60732247D01*
X200602857Y-60732247D02*
X200507619Y-60684628D01*
X200507619Y-60684628D02*
X200317143Y-60637009D01*
X200317143Y-60637009D02*
X200221905Y-60589390D01*
X200221905Y-60589390D02*
X200174286Y-60541771D01*
X200174286Y-60541771D02*
X200126667Y-60446533D01*
X200126667Y-60446533D02*
X200126667Y-60351295D01*
X200126667Y-60351295D02*
X200174286Y-60256057D01*
X200174286Y-60256057D02*
X200221905Y-60208438D01*
X200221905Y-60208438D02*
X200317143Y-60160819D01*
X200317143Y-60160819D02*
X200555238Y-60160819D01*
X200555238Y-60160819D02*
X200698095Y-60208438D01*
X201031429Y-60160819D02*
X201269524Y-61160819D01*
X201269524Y-61160819D02*
X201460000Y-60446533D01*
X201460000Y-60446533D02*
X201650476Y-61160819D01*
X201650476Y-61160819D02*
X201888572Y-60160819D01*
X202221905Y-60256057D02*
X202269524Y-60208438D01*
X202269524Y-60208438D02*
X202364762Y-60160819D01*
X202364762Y-60160819D02*
X202602857Y-60160819D01*
X202602857Y-60160819D02*
X202698095Y-60208438D01*
X202698095Y-60208438D02*
X202745714Y-60256057D01*
X202745714Y-60256057D02*
X202793333Y-60351295D01*
X202793333Y-60351295D02*
X202793333Y-60446533D01*
X202793333Y-60446533D02*
X202745714Y-60589390D01*
X202745714Y-60589390D02*
X202174286Y-61160819D01*
X202174286Y-61160819D02*
X202793333Y-61160819D01*
X160451905Y-70284819D02*
X160451905Y-69284819D01*
X160451905Y-69284819D02*
X160690000Y-69284819D01*
X160690000Y-69284819D02*
X160832857Y-69332438D01*
X160832857Y-69332438D02*
X160928095Y-69427676D01*
X160928095Y-69427676D02*
X160975714Y-69522914D01*
X160975714Y-69522914D02*
X161023333Y-69713390D01*
X161023333Y-69713390D02*
X161023333Y-69856247D01*
X161023333Y-69856247D02*
X160975714Y-70046723D01*
X160975714Y-70046723D02*
X160928095Y-70141961D01*
X160928095Y-70141961D02*
X160832857Y-70237200D01*
X160832857Y-70237200D02*
X160690000Y-70284819D01*
X160690000Y-70284819D02*
X160451905Y-70284819D01*
X161404286Y-69380057D02*
X161451905Y-69332438D01*
X161451905Y-69332438D02*
X161547143Y-69284819D01*
X161547143Y-69284819D02*
X161785238Y-69284819D01*
X161785238Y-69284819D02*
X161880476Y-69332438D01*
X161880476Y-69332438D02*
X161928095Y-69380057D01*
X161928095Y-69380057D02*
X161975714Y-69475295D01*
X161975714Y-69475295D02*
X161975714Y-69570533D01*
X161975714Y-69570533D02*
X161928095Y-69713390D01*
X161928095Y-69713390D02*
X161356667Y-70284819D01*
X161356667Y-70284819D02*
X161975714Y-70284819D01*
X157118095Y-70604819D02*
X157118095Y-69604819D01*
X157689523Y-70604819D02*
X157260952Y-70033390D01*
X157689523Y-69604819D02*
X157118095Y-70176247D01*
%TO.C,SW4*%
D12*
X175475000Y-80515000D02*
X189445000Y-80515000D01*
X175475000Y-94485000D02*
X175475000Y-80515000D01*
X189445000Y-80515000D02*
X189445000Y-94485000D01*
X189445000Y-94485000D02*
X175475000Y-94485000D01*
%TO.C,D6*%
X158420000Y-86150000D02*
X159070000Y-86150000D01*
X159670000Y-85030000D02*
X159670000Y-87270000D01*
X159790000Y-85030000D02*
X159790000Y-87270000D01*
X159910000Y-85030000D02*
X159910000Y-87270000D01*
X163960000Y-86150000D02*
X163310000Y-86150000D01*
X159070000Y-85030000D02*
X163310000Y-85030000D01*
X163310000Y-87270000D01*
X159070000Y-87270000D01*
X159070000Y-85030000D01*
%TO.C,SW3*%
X213475000Y-61555000D02*
X227445000Y-61555000D01*
X213475000Y-75525000D02*
X213475000Y-61555000D01*
X227445000Y-61555000D02*
X227445000Y-75525000D01*
X227445000Y-75525000D02*
X213475000Y-75525000D01*
%TO.C,D5*%
X158420000Y-82600000D02*
X159070000Y-82600000D01*
X159670000Y-81480000D02*
X159670000Y-83720000D01*
X159790000Y-81480000D02*
X159790000Y-83720000D01*
X159910000Y-81480000D02*
X159910000Y-83720000D01*
X163960000Y-82600000D02*
X163310000Y-82600000D01*
X159070000Y-81480000D02*
X163310000Y-81480000D01*
X163310000Y-83720000D01*
X159070000Y-83720000D01*
X159070000Y-81480000D01*
%TO.C,SW1*%
X175475000Y-61595000D02*
X189445000Y-61595000D01*
X175475000Y-75565000D02*
X175475000Y-61595000D01*
X189445000Y-61595000D02*
X189445000Y-75565000D01*
X189445000Y-75565000D02*
X175475000Y-75565000D01*
%TO.C,D3*%
X158420000Y-75500000D02*
X159070000Y-75500000D01*
X159670000Y-74380000D02*
X159670000Y-76620000D01*
X159790000Y-74380000D02*
X159790000Y-76620000D01*
X159910000Y-74380000D02*
X159910000Y-76620000D01*
X163960000Y-75500000D02*
X163310000Y-75500000D01*
X159070000Y-74380000D02*
X163310000Y-74380000D01*
X163310000Y-76620000D01*
X159070000Y-76620000D01*
X159070000Y-74380000D01*
%TO.C,D1*%
X158420000Y-68400000D02*
X159070000Y-68400000D01*
X159670000Y-67280000D02*
X159670000Y-69520000D01*
X159790000Y-67280000D02*
X159790000Y-69520000D01*
X159910000Y-67280000D02*
X159910000Y-69520000D01*
X163960000Y-68400000D02*
X163310000Y-68400000D01*
X159070000Y-67280000D02*
X163310000Y-67280000D01*
X163310000Y-69520000D01*
X159070000Y-69520000D01*
X159070000Y-67280000D01*
%TO.C,U2*%
D13*
X179035000Y-43425000D02*
X179035000Y-55425000D01*
X179035000Y-55425000D02*
X217035000Y-55425000D01*
X184035000Y-55425000D02*
X184035000Y-43425000D01*
X213535000Y-55425000D02*
X213535000Y-43425000D01*
X217035000Y-43425000D02*
X179035000Y-43425000D01*
X217035000Y-55425000D02*
X217035000Y-43425000D01*
%TO.C,D4*%
D12*
X158420000Y-79050000D02*
X159070000Y-79050000D01*
X159670000Y-77930000D02*
X159670000Y-80170000D01*
X159790000Y-77930000D02*
X159790000Y-80170000D01*
X159910000Y-77930000D02*
X159910000Y-80170000D01*
X163960000Y-79050000D02*
X163310000Y-79050000D01*
X159070000Y-77930000D02*
X163310000Y-77930000D01*
X163310000Y-80170000D01*
X159070000Y-80170000D01*
X159070000Y-77930000D01*
%TO.C,SW6*%
X213515000Y-80515000D02*
X227485000Y-80515000D01*
X213515000Y-94485000D02*
X213515000Y-80515000D01*
X227485000Y-80515000D02*
X227485000Y-94485000D01*
X227485000Y-94485000D02*
X213515000Y-94485000D01*
%TO.C,U1*%
D14*
X149100000Y-44920000D02*
X149100000Y-61920000D01*
X151100000Y-63920000D02*
X164900000Y-63920000D01*
X153500000Y-41495970D02*
X162500000Y-41495970D01*
X153500000Y-48849270D02*
X153500000Y-41495970D01*
X162500000Y-41495970D02*
X162500000Y-48849270D01*
X162500000Y-48849270D02*
X153500000Y-48849270D01*
X164900000Y-42920910D02*
X151100000Y-42920910D01*
X166900000Y-61920000D02*
X166900000Y-44920000D01*
D12*
X149100000Y-44920000D02*
G75*
G02*
X151100000Y-42920000I2044612J-44612D01*
G01*
X151100000Y-63920000D02*
G75*
G02*
X149100000Y-61920000I44857J2044857D01*
G01*
X164900000Y-42920000D02*
G75*
G02*
X166900000Y-44920000I-44610J-2044610D01*
G01*
X166900000Y-61920000D02*
G75*
G02*
X164900000Y-63920000I-2000000J0D01*
G01*
D15*
X147127000Y-44620000D02*
G75*
G02*
X146873000Y-44620000I-127000J0D01*
G01*
X146873000Y-44620000D02*
G75*
G02*
X147127000Y-44620000I127000J0D01*
G01*
D16*
X149112285Y-44858295D02*
X149115333Y-44809527D01*
X149119397Y-44760506D01*
X149112285Y-44858295D01*
X166889492Y-61941574D02*
X166887713Y-61990850D01*
X166884665Y-62039618D01*
X166880601Y-62088639D01*
X166875268Y-62137407D01*
X166868664Y-62186175D01*
X166861044Y-62234690D01*
X166852153Y-62282950D01*
X166842248Y-62330955D01*
X166889492Y-61941574D01*
%TO.C,SW5*%
D12*
X194515000Y-80515000D02*
X208485000Y-80515000D01*
X194515000Y-94485000D02*
X194515000Y-80515000D01*
X208485000Y-80515000D02*
X208485000Y-94485000D01*
X208485000Y-94485000D02*
X194515000Y-94485000D01*
%TO.C,SW2*%
X194475000Y-61595000D02*
X208445000Y-61595000D01*
X194475000Y-75565000D02*
X194475000Y-61595000D01*
X208445000Y-61595000D02*
X208445000Y-75565000D01*
X208445000Y-75565000D02*
X194475000Y-75565000D01*
%TO.C,D2*%
X158420000Y-71950000D02*
X159070000Y-71950000D01*
X159670000Y-70830000D02*
X159670000Y-73070000D01*
X159790000Y-70830000D02*
X159790000Y-73070000D01*
X159910000Y-70830000D02*
X159910000Y-73070000D01*
X163960000Y-71950000D02*
X163310000Y-71950000D01*
X159070000Y-70830000D02*
X163310000Y-70830000D01*
X163310000Y-73070000D01*
X159070000Y-73070000D01*
X159070000Y-70830000D01*
%TD*%
M02*
