%TF.GenerationSoftware,KiCad,Pcbnew,10.0.6*%
%TF.CreationDate,2026-09-01T21:26:02+05:00*%
%TF.ProjectId,macro-pad,6d616372-6f2d-4706-9164-2e6b69636164,rev?*%
%TF.SameCoordinates,Original*%
%TF.FileFunction,Copper,L2,Bot*%
%TF.FilePolarity,Positive*%
%FSLAX46Y46*%
G04 Gerber Fmt 4.6, Leading zero omitted, Abs format (unit mm)*
G04 Created by KiCad (PCBNEW 10.0.6) date 2026-09-01 21:26:02*
%MOMM*%
%LPD*%
G01*
G04 APERTURE LIST*
G04 Aperture macros list*
%AMRoundRect*
0 Rectangle with rounded corners*
0 $1 Rounding radius*
0 $2 $3 $4 $5 $6 $7 $8 $9 X,Y pos of 4 corners*
0 Add a 4 corners polygon primitive as box body*
4,1,4,$2,$3,$4,$5,$6,$7,$8,$9,$2,$3,0*
0 Add four circle primitives for the rounded corners*
1,1,$1+$1,$2,$3*
1,1,$1+$1,$4,$5*
1,1,$1+$1,$6,$7*
1,1,$1+$1,$8,$9*
0 Add four rect primitives between the rounded corners*
20,1,$1+$1,$2,$3,$4,$5,0*
20,1,$1+$1,$4,$5,$6,$7,0*
20,1,$1+$1,$6,$7,$8,$9,0*
20,1,$1+$1,$8,$9,$2,$3,0*%
G04 Aperture macros list end*
%TA.AperFunction,ComponentPad*%
%ADD10C,2.200000*%
%TD*%
%TA.AperFunction,ComponentPad*%
%ADD11RoundRect,0.250000X-0.550000X-0.550000X0.550000X-0.550000X0.550000X0.550000X-0.550000X0.550000X0*%
%TD*%
%TA.AperFunction,ComponentPad*%
%ADD12C,1.600000*%
%TD*%
%TA.AperFunction,ComponentPad*%
%ADD13R,1.700000X1.700000*%
%TD*%
%TA.AperFunction,ComponentPad*%
%ADD14O,1.700000X1.700000*%
%TD*%
%TA.AperFunction,ComponentPad*%
%ADD15R,3.500000X1.700000*%
%TD*%
%TA.AperFunction,ComponentPad*%
%ADD16O,3.600000X1.700000*%
%TD*%
%TA.AperFunction,ComponentPad*%
%ADD17O,3.700000X1.700000*%
%TD*%
%TA.AperFunction,ViaPad*%
%ADD18C,0.600000*%
%TD*%
%TA.AperFunction,Conductor*%
%ADD19C,0.200000*%
%TD*%
G04 APERTURE END LIST*
D10*
%TO.P,SW4,1,1_1*%
%TO.N,C0*%
X185000000Y-82420000D03*
%TO.P,SW4,2,2_2*%
%TO.N,Net-(D4-A)*%
X178650000Y-84960000D03*
%TD*%
D11*
%TO.P,D6,1,K_1*%
%TO.N,R1*%
X157380000Y-86150000D03*
D12*
%TO.P,D6,2,A_2*%
%TO.N,Net-(D6-A)*%
X165000000Y-86150000D03*
%TD*%
D10*
%TO.P,SW3,1,1_1*%
%TO.N,C2*%
X223000000Y-63460000D03*
%TO.P,SW3,2,2_2*%
%TO.N,Net-(D3-A)*%
X216650000Y-66000000D03*
%TD*%
D11*
%TO.P,D5,1,K_1*%
%TO.N,R1*%
X157380000Y-82600000D03*
D12*
%TO.P,D5,2,A_2*%
%TO.N,Net-(D5-A)*%
X165000000Y-82600000D03*
%TD*%
D10*
%TO.P,SW1,1,1_1*%
%TO.N,C0*%
X185000000Y-63500000D03*
%TO.P,SW1,2,2_2*%
%TO.N,Net-(D1-A)*%
X178650000Y-66040000D03*
%TD*%
D11*
%TO.P,D3,1,K_1*%
%TO.N,R0*%
X157380000Y-75500000D03*
D12*
%TO.P,D3,2,A_2*%
%TO.N,Net-(D3-A)*%
X165000000Y-75500000D03*
%TD*%
D11*
%TO.P,D1,1,K_1*%
%TO.N,R0*%
X157380000Y-68400000D03*
D12*
%TO.P,D1,2,A_2*%
%TO.N,Net-(D1-A)*%
X165000000Y-68400000D03*
%TD*%
D13*
%TO.P,U2,1,GND_1*%
%TO.N,GND*%
X180535000Y-53235000D03*
D14*
%TO.P,U2,2,VCC_2*%
%TO.N,INP*%
X180535000Y-50695000D03*
%TO.P,U2,3,SCL_3*%
%TO.N,SCL*%
X180535000Y-48155000D03*
%TO.P,U2,4,SDA_4*%
%TO.N,SDA*%
X180535000Y-45615000D03*
%TD*%
D11*
%TO.P,D4,1,K_1*%
%TO.N,R1*%
X157380000Y-79050000D03*
D12*
%TO.P,D4,2,A_2*%
%TO.N,Net-(D4-A)*%
X165000000Y-79050000D03*
%TD*%
D10*
%TO.P,SW6,1,1_1*%
%TO.N,C2*%
X223040000Y-82420000D03*
%TO.P,SW6,2,2_2*%
%TO.N,Net-(D6-A)*%
X216690000Y-84960000D03*
%TD*%
D15*
%TO.P,U1,1,PA02_A0_D0_1*%
%TO.N,C0*%
X149375000Y-45800000D03*
D16*
%TO.P,U1,2,PA4_A1_D1_2*%
%TO.N,C1*%
X149375000Y-48340000D03*
%TO.P,U1,3,PA10_A2_D2_3*%
%TO.N,C2*%
X149375000Y-50880000D03*
%TO.P,U1,4,PA11_A3_D3_4*%
%TO.N,R0*%
X149375000Y-53420000D03*
%TO.P,U1,5,PA8_A4_D4_SDA_5*%
%TO.N,SDA*%
X149375000Y-55960000D03*
%TO.P,U1,6,PA9_A5_D5_SCL_6*%
%TO.N,SCL*%
X149375000Y-58500000D03*
%TO.P,U1,7,PB08_A6_D6_TX_7*%
%TO.N,R1*%
X149375000Y-61040000D03*
%TO.P,U1,8,PB09_A7_D7_RX_8*%
%TO.N,unconnected-(U1-PB09_A7_D7_RX-Pad8)*%
X166625000Y-61040000D03*
%TO.P,U1,9,PA7_A8_D8_SCK_9*%
%TO.N,unconnected-(U1-PA7_A8_D8_SCK-Pad9)*%
X166625000Y-58500000D03*
%TO.P,U1,10,PA5_A9_D9_MISO_10*%
%TO.N,unconnected-(U1-PA5_A9_D9_MISO-Pad10)*%
X166625000Y-55960000D03*
D17*
%TO.P,U1,11,PA6_A10_D10_MOSI_11*%
%TO.N,unconnected-(U1-PA6_A10_D10_MOSI-Pad11)*%
X166625000Y-53420000D03*
%TO.P,U1,12,3V3_12*%
%TO.N,unconnected-(U1-3V3-Pad12)*%
X166625000Y-50880000D03*
%TO.P,U1,13,GND_13*%
%TO.N,GND*%
X166625000Y-48340000D03*
%TO.P,U1,14,5V_14*%
%TO.N,INP*%
X166625000Y-45800000D03*
%TD*%
D10*
%TO.P,SW5,1,1_1*%
%TO.N,C1*%
X204040000Y-82420000D03*
%TO.P,SW5,2,2_2*%
%TO.N,Net-(D5-A)*%
X197690000Y-84960000D03*
%TD*%
%TO.P,SW2,1,1_1*%
%TO.N,C1*%
X204000000Y-63500000D03*
%TO.P,SW2,2,2_2*%
%TO.N,Net-(D2-A)*%
X197650000Y-66040000D03*
%TD*%
D11*
%TO.P,D2,1,K_1*%
%TO.N,R0*%
X157380000Y-71950000D03*
D12*
%TO.P,D2,2,A_2*%
%TO.N,Net-(D2-A)*%
X165000000Y-71950000D03*
%TD*%
D18*
%TO.N,SCL*%
X153500000Y-58500000D03*
%TO.N,SDA*%
X153500000Y-55000000D03*
%TO.N,R0*%
X152000000Y-53500000D03*
X152000000Y-68500000D03*
%TO.N,R1*%
X150500000Y-79000000D03*
%TO.N,C0*%
X137500000Y-45000000D03*
X137500000Y-63500000D03*
%TO.N,C1*%
X138065687Y-64100000D03*
X138100000Y-48000000D03*
%TO.N,C2*%
X141000000Y-51000000D03*
X141000000Y-62500000D03*
%TD*%
%TO.N,SCL*%
D19*
X171580000Y-57110000D02*
X154890000Y-57110000D01*
X154890000Y-57110000D02*
X153500000Y-58500000D01*
X180535000Y-48155000D02*
X171580000Y-57110000D01*
%TO.N,SDA*%
X161495000Y-47005000D02*
X153500000Y-55000000D01*
X180535000Y-45615000D02*
X179145000Y-47005000D01*
X179145000Y-47005000D02*
X161495000Y-47005000D01*
%TO.N,R0*%
X152000000Y-68500000D02*
X152000000Y-53500000D01*
X157380000Y-75500000D02*
X157380000Y-68400000D01*
%TO.N,R1*%
X150500000Y-61165000D02*
X150375000Y-61040000D01*
X157380000Y-86150000D02*
X157380000Y-79050000D01*
X150500000Y-79000000D02*
X150500000Y-61165000D01*
%TO.N,C0*%
X137500000Y-63500000D02*
X137500000Y-45000000D01*
X185000000Y-63500000D02*
X185000000Y-82420000D01*
%TO.N,C1*%
X204040000Y-63540000D02*
X204000000Y-63500000D01*
X138100000Y-64065687D02*
X138100000Y-48000000D01*
X138065687Y-64100000D02*
X138100000Y-64065687D01*
X204040000Y-82420000D02*
X204040000Y-63540000D01*
%TO.N,C2*%
X223000000Y-63460000D02*
X223000000Y-82380000D01*
X223000000Y-82380000D02*
X223040000Y-82420000D01*
X141000000Y-62500000D02*
X141000000Y-51000000D01*
%TD*%
%TA.AperFunction,NonConductor*%
G36*
X136705703Y-45208477D02*
G01*
X136739061Y-45254738D01*
X136790602Y-45379172D01*
X136790609Y-45379185D01*
X136878602Y-45510874D01*
X136899480Y-45577551D01*
X136899500Y-45579765D01*
X136899500Y-62920234D01*
X136879815Y-62987273D01*
X136878602Y-62989125D01*
X136790609Y-63120814D01*
X136790602Y-63120827D01*
X136739061Y-63245261D01*
X136695220Y-63299665D01*
X136628926Y-63321730D01*
X136561227Y-63304451D01*
X136513616Y-63253314D01*
X136500500Y-63197809D01*
X136500500Y-45302190D01*
X136520185Y-45235151D01*
X136572989Y-45189396D01*
X136642147Y-45179452D01*
X136705703Y-45208477D01*
G37*
%TD.AperFunction*%
%TA.AperFunction,NonConductor*%
G36*
X230942539Y-42020185D02*
G01*
X230988294Y-42072989D01*
X230999500Y-42124500D01*
X230999500Y-98875500D01*
X230979815Y-98942539D01*
X230927011Y-98988294D01*
X230875500Y-98999500D01*
X136624500Y-98999500D01*
X136557461Y-98979815D01*
X136511706Y-98927011D01*
X136500500Y-98875500D01*
X136500500Y-63802190D01*
X136520185Y-63735151D01*
X136572989Y-63689396D01*
X136642147Y-63679452D01*
X136705703Y-63708477D01*
X136739061Y-63754738D01*
X136790602Y-63879172D01*
X136790609Y-63879185D01*
X136878210Y-64010288D01*
X136878213Y-64010292D01*
X136989707Y-64121786D01*
X136989711Y-64121789D01*
X137120814Y-64209390D01*
X137120827Y-64209397D01*
X137223876Y-64252081D01*
X137278280Y-64295922D01*
X137295081Y-64330635D01*
X137295948Y-64333494D01*
X137356289Y-64479172D01*
X137356296Y-64479185D01*
X137443897Y-64610288D01*
X137443900Y-64610292D01*
X137555394Y-64721786D01*
X137555398Y-64721789D01*
X137686501Y-64809390D01*
X137686514Y-64809397D01*
X137830097Y-64868870D01*
X137832190Y-64869737D01*
X137986840Y-64900499D01*
X137986843Y-64900500D01*
X137986845Y-64900500D01*
X138144531Y-64900500D01*
X138144532Y-64900499D01*
X138299184Y-64869737D01*
X138444866Y-64809394D01*
X138575976Y-64721789D01*
X138687476Y-64610289D01*
X138775081Y-64479179D01*
X138775193Y-64478910D01*
X138808085Y-64399500D01*
X138835424Y-64333497D01*
X138866187Y-64178842D01*
X138866187Y-64021158D01*
X138866187Y-64021155D01*
X138866186Y-64021153D01*
X138864025Y-64010288D01*
X138835424Y-63866503D01*
X138775081Y-63720821D01*
X138754084Y-63689396D01*
X138721398Y-63640477D01*
X138700520Y-63573800D01*
X138700500Y-63571587D01*
X138700500Y-50921153D01*
X140199500Y-50921153D01*
X140199500Y-51078846D01*
X140230261Y-51233489D01*
X140230264Y-51233501D01*
X140290602Y-51379172D01*
X140290609Y-51379185D01*
X140378602Y-51510874D01*
X140399480Y-51577551D01*
X140399500Y-51579765D01*
X140399500Y-61920234D01*
X140379815Y-61987273D01*
X140378602Y-61989125D01*
X140290609Y-62120814D01*
X140290602Y-62120827D01*
X140230264Y-62266498D01*
X140230261Y-62266510D01*
X140199500Y-62421153D01*
X140199500Y-62578846D01*
X140230261Y-62733489D01*
X140230264Y-62733501D01*
X140290602Y-62879172D01*
X140290609Y-62879185D01*
X140378210Y-63010288D01*
X140378213Y-63010292D01*
X140489707Y-63121786D01*
X140489711Y-63121789D01*
X140620814Y-63209390D01*
X140620827Y-63209397D01*
X140707412Y-63245261D01*
X140766503Y-63269737D01*
X140916960Y-63299665D01*
X140921153Y-63300499D01*
X140921156Y-63300500D01*
X140921158Y-63300500D01*
X141078844Y-63300500D01*
X141078845Y-63300499D01*
X141233497Y-63269737D01*
X141379179Y-63209394D01*
X141510289Y-63121789D01*
X141621789Y-63010289D01*
X141709394Y-62879179D01*
X141769737Y-62733497D01*
X141800500Y-62578842D01*
X141800500Y-62421158D01*
X141800500Y-62421155D01*
X141800499Y-62421153D01*
X141787787Y-62357246D01*
X141769737Y-62266503D01*
X141758428Y-62239201D01*
X141709397Y-62120827D01*
X141709390Y-62120814D01*
X141621398Y-61989125D01*
X141600520Y-61922447D01*
X141600500Y-61920234D01*
X141600500Y-51579765D01*
X141620185Y-51512726D01*
X141621398Y-51510874D01*
X141709390Y-51379185D01*
X141709390Y-51379184D01*
X141709394Y-51379179D01*
X141769737Y-51233497D01*
X141800500Y-51078842D01*
X141800500Y-50921158D01*
X141800500Y-50921155D01*
X141800499Y-50921153D01*
X141769738Y-50766510D01*
X141769737Y-50766503D01*
X141719513Y-50645250D01*
X141709397Y-50620827D01*
X141709390Y-50620814D01*
X141621789Y-50489711D01*
X141621786Y-50489707D01*
X141510292Y-50378213D01*
X141510288Y-50378210D01*
X141379185Y-50290609D01*
X141379172Y-50290602D01*
X141233501Y-50230264D01*
X141233489Y-50230261D01*
X141078845Y-50199500D01*
X141078842Y-50199500D01*
X140921158Y-50199500D01*
X140921155Y-50199500D01*
X140766510Y-50230261D01*
X140766498Y-50230264D01*
X140620827Y-50290602D01*
X140620814Y-50290609D01*
X140489711Y-50378210D01*
X140489707Y-50378213D01*
X140378213Y-50489707D01*
X140378210Y-50489711D01*
X140290609Y-50620814D01*
X140290602Y-50620827D01*
X140230264Y-50766498D01*
X140230261Y-50766510D01*
X140199500Y-50921153D01*
X138700500Y-50921153D01*
X138700500Y-48579765D01*
X138720185Y-48512726D01*
X138721398Y-48510874D01*
X138809390Y-48379185D01*
X138809390Y-48379184D01*
X138809394Y-48379179D01*
X138869648Y-48233713D01*
X147074500Y-48233713D01*
X147074500Y-48446286D01*
X147105105Y-48639522D01*
X147107754Y-48656243D01*
X147113333Y-48673414D01*
X147173444Y-48858414D01*
X147269951Y-49047820D01*
X147394890Y-49219786D01*
X147545213Y-49370109D01*
X147717182Y-49495050D01*
X147725946Y-49499516D01*
X147776742Y-49547491D01*
X147793536Y-49615312D01*
X147770998Y-49681447D01*
X147725946Y-49720484D01*
X147717182Y-49724949D01*
X147545213Y-49849890D01*
X147394890Y-50000213D01*
X147269951Y-50172179D01*
X147173444Y-50361585D01*
X147107753Y-50563760D01*
X147075643Y-50766498D01*
X147074500Y-50773713D01*
X147074500Y-50986287D01*
X147107754Y-51196243D01*
X147113333Y-51213414D01*
X147173444Y-51398414D01*
X147269951Y-51587820D01*
X147394890Y-51759786D01*
X147545213Y-51910109D01*
X147717182Y-52035050D01*
X147725946Y-52039516D01*
X147776742Y-52087491D01*
X147793536Y-52155312D01*
X147770998Y-52221447D01*
X147725946Y-52260484D01*
X147717182Y-52264949D01*
X147545213Y-52389890D01*
X147394890Y-52540213D01*
X147269951Y-52712179D01*
X147173444Y-52901585D01*
X147107753Y-53103760D01*
X147074500Y-53313713D01*
X147074500Y-53526286D01*
X147107753Y-53736239D01*
X147173444Y-53938414D01*
X147269951Y-54127820D01*
X147394890Y-54299786D01*
X147545213Y-54450109D01*
X147717182Y-54575050D01*
X147725946Y-54579516D01*
X147776742Y-54627491D01*
X147793536Y-54695312D01*
X147770998Y-54761447D01*
X147725946Y-54800484D01*
X147717182Y-54804949D01*
X147545213Y-54929890D01*
X147394890Y-55080213D01*
X147269951Y-55252179D01*
X147173444Y-55441585D01*
X147107753Y-55643760D01*
X147087800Y-55769738D01*
X147074500Y-55853713D01*
X147074500Y-56066287D01*
X147107754Y-56276243D01*
X147172937Y-56476856D01*
X147173444Y-56478414D01*
X147269951Y-56667820D01*
X147394890Y-56839786D01*
X147545213Y-56990109D01*
X147717182Y-57115050D01*
X147725946Y-57119516D01*
X147776742Y-57167491D01*
X147793536Y-57235312D01*
X147770998Y-57301447D01*
X147725946Y-57340484D01*
X147717182Y-57344949D01*
X147545213Y-57469890D01*
X147545209Y-57469894D01*
X147394896Y-57620208D01*
X147394890Y-57620213D01*
X147269951Y-57792179D01*
X147173444Y-57981585D01*
X147107753Y-58183760D01*
X147094648Y-58266503D01*
X147074500Y-58393713D01*
X147074500Y-58606287D01*
X147107754Y-58816243D01*
X147170803Y-59010288D01*
X147173444Y-59018414D01*
X147269951Y-59207820D01*
X147394890Y-59379786D01*
X147545213Y-59530109D01*
X147717182Y-59655050D01*
X147725946Y-59659516D01*
X147776742Y-59707491D01*
X147793536Y-59775312D01*
X147770998Y-59841447D01*
X147725946Y-59880484D01*
X147717182Y-59884949D01*
X147545213Y-60009890D01*
X147394890Y-60160213D01*
X147269951Y-60332179D01*
X147173444Y-60521585D01*
X147107753Y-60723760D01*
X147074500Y-60933713D01*
X147074500Y-61146286D01*
X147107753Y-61356239D01*
X147173444Y-61558414D01*
X147269951Y-61747820D01*
X147394890Y-61919786D01*
X147545213Y-62070109D01*
X147717179Y-62195048D01*
X147717181Y-62195049D01*
X147717184Y-62195051D01*
X147906588Y-62291557D01*
X148108757Y-62357246D01*
X148318713Y-62390500D01*
X149775500Y-62390500D01*
X149842539Y-62410185D01*
X149888294Y-62462989D01*
X149899500Y-62514500D01*
X149899500Y-78420234D01*
X149879815Y-78487273D01*
X149878602Y-78489125D01*
X149790609Y-78620814D01*
X149790602Y-78620827D01*
X149730264Y-78766498D01*
X149730261Y-78766510D01*
X149699500Y-78921153D01*
X149699500Y-79078846D01*
X149730261Y-79233489D01*
X149730264Y-79233501D01*
X149790602Y-79379172D01*
X149790609Y-79379185D01*
X149878210Y-79510288D01*
X149878213Y-79510292D01*
X149989707Y-79621786D01*
X149989711Y-79621789D01*
X150120814Y-79709390D01*
X150120827Y-79709397D01*
X150266498Y-79769735D01*
X150266503Y-79769737D01*
X150421153Y-79800499D01*
X150421156Y-79800500D01*
X150421158Y-79800500D01*
X150578844Y-79800500D01*
X150578845Y-79800499D01*
X150733497Y-79769737D01*
X150879179Y-79709394D01*
X151010289Y-79621789D01*
X151121789Y-79510289D01*
X151209394Y-79379179D01*
X151269737Y-79233497D01*
X151300500Y-79078842D01*
X151300500Y-78921158D01*
X151300500Y-78921155D01*
X151300499Y-78921153D01*
X151269738Y-78766510D01*
X151269737Y-78766503D01*
X151261023Y-78745465D01*
X151209397Y-78620827D01*
X151209390Y-78620814D01*
X151139172Y-78515725D01*
X151139172Y-78515724D01*
X151121399Y-78489126D01*
X151109142Y-78449983D01*
X156079500Y-78449983D01*
X156079500Y-79650001D01*
X156079501Y-79650018D01*
X156090000Y-79752796D01*
X156090001Y-79752799D01*
X156105808Y-79800500D01*
X156145186Y-79919334D01*
X156237288Y-80068656D01*
X156361344Y-80192712D01*
X156510666Y-80284814D01*
X156677203Y-80339999D01*
X156677209Y-80339999D01*
X156681448Y-80340907D01*
X156742884Y-80374185D01*
X156776576Y-80435394D01*
X156779500Y-80462162D01*
X156779500Y-81187837D01*
X156759815Y-81254876D01*
X156707011Y-81300631D01*
X156681459Y-81309089D01*
X156677207Y-81309999D01*
X156510668Y-81365185D01*
X156510663Y-81365187D01*
X156361342Y-81457289D01*
X156237289Y-81581342D01*
X156145187Y-81730663D01*
X156145186Y-81730666D01*
X156090001Y-81897203D01*
X156090001Y-81897204D01*
X156090000Y-81897204D01*
X156079500Y-81999983D01*
X156079500Y-83200001D01*
X156079501Y-83200018D01*
X156090000Y-83302796D01*
X156090001Y-83302799D01*
X156137856Y-83447213D01*
X156145186Y-83469334D01*
X156237288Y-83618656D01*
X156361344Y-83742712D01*
X156510666Y-83834814D01*
X156677203Y-83889999D01*
X156677209Y-83889999D01*
X156681448Y-83890907D01*
X156742884Y-83924185D01*
X156776576Y-83985394D01*
X156779500Y-84012162D01*
X156779500Y-84737837D01*
X156759815Y-84804876D01*
X156707011Y-84850631D01*
X156681459Y-84859089D01*
X156677207Y-84859999D01*
X156510668Y-84915185D01*
X156510663Y-84915187D01*
X156361342Y-85007289D01*
X156237289Y-85131342D01*
X156145187Y-85280663D01*
X156145185Y-85280668D01*
X156142753Y-85288007D01*
X156090001Y-85447203D01*
X156090001Y-85447204D01*
X156090000Y-85447204D01*
X156079500Y-85549983D01*
X156079500Y-86750001D01*
X156079501Y-86750018D01*
X156090000Y-86852796D01*
X156090001Y-86852799D01*
X156113334Y-86923211D01*
X156145186Y-87019334D01*
X156237288Y-87168656D01*
X156361344Y-87292712D01*
X156510666Y-87384814D01*
X156677203Y-87439999D01*
X156779991Y-87450500D01*
X157980008Y-87450499D01*
X158082797Y-87439999D01*
X158249334Y-87384814D01*
X158398656Y-87292712D01*
X158522712Y-87168656D01*
X158614814Y-87019334D01*
X158669999Y-86852797D01*
X158680500Y-86750009D01*
X158680499Y-86047648D01*
X163699500Y-86047648D01*
X163699500Y-86252351D01*
X163731522Y-86454534D01*
X163794781Y-86649223D01*
X163887715Y-86831613D01*
X164008028Y-86997213D01*
X164152786Y-87141971D01*
X164290883Y-87242302D01*
X164318390Y-87262287D01*
X164434607Y-87321503D01*
X164500776Y-87355218D01*
X164500778Y-87355218D01*
X164500781Y-87355220D01*
X164539588Y-87367829D01*
X164695465Y-87418477D01*
X164796557Y-87434488D01*
X164897648Y-87450500D01*
X164897649Y-87450500D01*
X165102351Y-87450500D01*
X165102352Y-87450500D01*
X165304534Y-87418477D01*
X165320193Y-87413389D01*
X176279500Y-87413389D01*
X176279500Y-87586611D01*
X176306598Y-87757701D01*
X176360127Y-87922445D01*
X176438768Y-88076788D01*
X176540586Y-88216928D01*
X176663072Y-88339414D01*
X176803212Y-88441232D01*
X176957555Y-88519873D01*
X177122299Y-88573402D01*
X177293389Y-88600500D01*
X177293390Y-88600500D01*
X177466610Y-88600500D01*
X177466611Y-88600500D01*
X177637701Y-88573402D01*
X177802445Y-88519873D01*
X177956788Y-88441232D01*
X178096928Y-88339414D01*
X178219414Y-88216928D01*
X178321232Y-88076788D01*
X178399873Y-87922445D01*
X178453402Y-87757701D01*
X178480500Y-87586611D01*
X178480500Y-87413389D01*
X178470854Y-87352486D01*
X180209500Y-87352486D01*
X180209500Y-87647513D01*
X180241571Y-87891113D01*
X180248007Y-87939993D01*
X180322212Y-88216930D01*
X180324361Y-88224951D01*
X180324364Y-88224961D01*
X180437254Y-88497500D01*
X180437258Y-88497510D01*
X180584761Y-88752993D01*
X180764352Y-88987040D01*
X180764358Y-88987047D01*
X180972952Y-89195641D01*
X180972959Y-89195647D01*
X181207006Y-89375238D01*
X181462489Y-89522741D01*
X181462490Y-89522741D01*
X181462493Y-89522743D01*
X181735048Y-89635639D01*
X182020007Y-89711993D01*
X182312494Y-89750500D01*
X182312501Y-89750500D01*
X182607499Y-89750500D01*
X182607506Y-89750500D01*
X182899993Y-89711993D01*
X183184952Y-89635639D01*
X183457507Y-89522743D01*
X183712994Y-89375238D01*
X183947042Y-89195646D01*
X184155646Y-88987042D01*
X184335238Y-88752994D01*
X184482743Y-88497507D01*
X184595639Y-88224952D01*
X184671993Y-87939993D01*
X184710500Y-87647506D01*
X184710500Y-87413389D01*
X186439500Y-87413389D01*
X186439500Y-87586611D01*
X186466598Y-87757701D01*
X186520127Y-87922445D01*
X186598768Y-88076788D01*
X186700586Y-88216928D01*
X186823072Y-88339414D01*
X186963212Y-88441232D01*
X187117555Y-88519873D01*
X187282299Y-88573402D01*
X187453389Y-88600500D01*
X187453390Y-88600500D01*
X187626610Y-88600500D01*
X187626611Y-88600500D01*
X187797701Y-88573402D01*
X187962445Y-88519873D01*
X188116788Y-88441232D01*
X188256928Y-88339414D01*
X188379414Y-88216928D01*
X188481232Y-88076788D01*
X188559873Y-87922445D01*
X188613402Y-87757701D01*
X188640500Y-87586611D01*
X188640500Y-87413389D01*
X195319500Y-87413389D01*
X195319500Y-87586611D01*
X195346598Y-87757701D01*
X195400127Y-87922445D01*
X195478768Y-88076788D01*
X195580586Y-88216928D01*
X195703072Y-88339414D01*
X195843212Y-88441232D01*
X195997555Y-88519873D01*
X196162299Y-88573402D01*
X196333389Y-88600500D01*
X196333390Y-88600500D01*
X196506610Y-88600500D01*
X196506611Y-88600500D01*
X196677701Y-88573402D01*
X196842445Y-88519873D01*
X196996788Y-88441232D01*
X197136928Y-88339414D01*
X197259414Y-88216928D01*
X197361232Y-88076788D01*
X197439873Y-87922445D01*
X197493402Y-87757701D01*
X197520500Y-87586611D01*
X197520500Y-87413389D01*
X197510854Y-87352486D01*
X199249500Y-87352486D01*
X199249500Y-87647513D01*
X199281571Y-87891113D01*
X199288007Y-87939993D01*
X199362212Y-88216930D01*
X199364361Y-88224951D01*
X199364364Y-88224961D01*
X199477254Y-88497500D01*
X199477258Y-88497510D01*
X199624761Y-88752993D01*
X199804352Y-88987040D01*
X199804358Y-88987047D01*
X200012952Y-89195641D01*
X200012959Y-89195647D01*
X200247006Y-89375238D01*
X200502489Y-89522741D01*
X200502490Y-89522741D01*
X200502493Y-89522743D01*
X200775048Y-89635639D01*
X201060007Y-89711993D01*
X201352494Y-89750500D01*
X201352501Y-89750500D01*
X201647499Y-89750500D01*
X201647506Y-89750500D01*
X201939993Y-89711993D01*
X202224952Y-89635639D01*
X202497507Y-89522743D01*
X202752994Y-89375238D01*
X202987042Y-89195646D01*
X203195646Y-88987042D01*
X203375238Y-88752994D01*
X203522743Y-88497507D01*
X203635639Y-88224952D01*
X203711993Y-87939993D01*
X203750500Y-87647506D01*
X203750500Y-87413389D01*
X205479500Y-87413389D01*
X205479500Y-87586611D01*
X205506598Y-87757701D01*
X205560127Y-87922445D01*
X205638768Y-88076788D01*
X205740586Y-88216928D01*
X205863072Y-88339414D01*
X206003212Y-88441232D01*
X206157555Y-88519873D01*
X206322299Y-88573402D01*
X206493389Y-88600500D01*
X206493390Y-88600500D01*
X206666610Y-88600500D01*
X206666611Y-88600500D01*
X206837701Y-88573402D01*
X207002445Y-88519873D01*
X207156788Y-88441232D01*
X207296928Y-88339414D01*
X207419414Y-88216928D01*
X207521232Y-88076788D01*
X207599873Y-87922445D01*
X207653402Y-87757701D01*
X207680500Y-87586611D01*
X207680500Y-87413389D01*
X214319500Y-87413389D01*
X214319500Y-87586611D01*
X214346598Y-87757701D01*
X214400127Y-87922445D01*
X214478768Y-88076788D01*
X214580586Y-88216928D01*
X214703072Y-88339414D01*
X214843212Y-88441232D01*
X214997555Y-88519873D01*
X215162299Y-88573402D01*
X215333389Y-88600500D01*
X215333390Y-88600500D01*
X215506610Y-88600500D01*
X215506611Y-88600500D01*
X215677701Y-88573402D01*
X215842445Y-88519873D01*
X215996788Y-88441232D01*
X216136928Y-88339414D01*
X216259414Y-88216928D01*
X216361232Y-88076788D01*
X216439873Y-87922445D01*
X216493402Y-87757701D01*
X216520500Y-87586611D01*
X216520500Y-87413389D01*
X216510854Y-87352486D01*
X218249500Y-87352486D01*
X218249500Y-87647513D01*
X218281571Y-87891113D01*
X218288007Y-87939993D01*
X218362212Y-88216930D01*
X218364361Y-88224951D01*
X218364364Y-88224961D01*
X218477254Y-88497500D01*
X218477258Y-88497510D01*
X218624761Y-88752993D01*
X218804352Y-88987040D01*
X218804358Y-88987047D01*
X219012952Y-89195641D01*
X219012959Y-89195647D01*
X219247006Y-89375238D01*
X219502489Y-89522741D01*
X219502490Y-89522741D01*
X219502493Y-89522743D01*
X219775048Y-89635639D01*
X220060007Y-89711993D01*
X220352494Y-89750500D01*
X220352501Y-89750500D01*
X220647499Y-89750500D01*
X220647506Y-89750500D01*
X220939993Y-89711993D01*
X221224952Y-89635639D01*
X221497507Y-89522743D01*
X221752994Y-89375238D01*
X221987042Y-89195646D01*
X222195646Y-88987042D01*
X222375238Y-88752994D01*
X222522743Y-88497507D01*
X222635639Y-88224952D01*
X222711993Y-87939993D01*
X222750500Y-87647506D01*
X222750500Y-87413389D01*
X224479500Y-87413389D01*
X224479500Y-87586611D01*
X224506598Y-87757701D01*
X224560127Y-87922445D01*
X224638768Y-88076788D01*
X224740586Y-88216928D01*
X224863072Y-88339414D01*
X225003212Y-88441232D01*
X225157555Y-88519873D01*
X225322299Y-88573402D01*
X225493389Y-88600500D01*
X225493390Y-88600500D01*
X225666610Y-88600500D01*
X225666611Y-88600500D01*
X225837701Y-88573402D01*
X226002445Y-88519873D01*
X226156788Y-88441232D01*
X226296928Y-88339414D01*
X226419414Y-88216928D01*
X226521232Y-88076788D01*
X226599873Y-87922445D01*
X226653402Y-87757701D01*
X226680500Y-87586611D01*
X226680500Y-87413389D01*
X226653402Y-87242299D01*
X226599873Y-87077555D01*
X226521232Y-86923212D01*
X226419414Y-86783072D01*
X226296928Y-86660586D01*
X226156788Y-86558768D01*
X226002445Y-86480127D01*
X225837701Y-86426598D01*
X225837699Y-86426597D01*
X225837698Y-86426597D01*
X225706271Y-86405781D01*
X225666611Y-86399500D01*
X225493389Y-86399500D01*
X225453728Y-86405781D01*
X225322302Y-86426597D01*
X225157552Y-86480128D01*
X225003211Y-86558768D01*
X224946289Y-86600125D01*
X224863072Y-86660586D01*
X224863070Y-86660588D01*
X224863069Y-86660588D01*
X224740588Y-86783069D01*
X224740588Y-86783070D01*
X224740586Y-86783072D01*
X224705321Y-86831610D01*
X224638768Y-86923211D01*
X224560128Y-87077552D01*
X224506597Y-87242302D01*
X224484026Y-87384812D01*
X224479500Y-87413389D01*
X222750500Y-87413389D01*
X222750500Y-87352494D01*
X222711993Y-87060007D01*
X222635639Y-86775048D01*
X222522743Y-86502493D01*
X222467309Y-86406479D01*
X222375238Y-86247006D01*
X222195647Y-86012959D01*
X222195641Y-86012952D01*
X221987047Y-85804358D01*
X221987040Y-85804352D01*
X221752993Y-85624761D01*
X221497510Y-85477258D01*
X221497500Y-85477254D01*
X221224961Y-85364364D01*
X221224954Y-85364362D01*
X221224952Y-85364361D01*
X220939993Y-85288007D01*
X220884210Y-85280663D01*
X220647513Y-85249500D01*
X220647506Y-85249500D01*
X220352494Y-85249500D01*
X220352486Y-85249500D01*
X220074085Y-85286153D01*
X220060007Y-85288007D01*
X220004851Y-85302786D01*
X219775048Y-85364361D01*
X219775038Y-85364364D01*
X219502499Y-85477254D01*
X219502489Y-85477258D01*
X219247006Y-85624761D01*
X219012959Y-85804352D01*
X219012952Y-85804358D01*
X218804358Y-86012952D01*
X218804352Y-86012959D01*
X218624761Y-86247006D01*
X218477258Y-86502489D01*
X218477254Y-86502499D01*
X218364364Y-86775038D01*
X218364361Y-86775048D01*
X218304833Y-86997213D01*
X218288008Y-87060004D01*
X218288006Y-87060015D01*
X218249500Y-87352486D01*
X216510854Y-87352486D01*
X216493402Y-87242299D01*
X216439873Y-87077555D01*
X216361232Y-86923212D01*
X216259414Y-86783072D01*
X216207482Y-86731140D01*
X216173997Y-86669817D01*
X216178981Y-86600125D01*
X216220853Y-86544192D01*
X216286317Y-86519775D01*
X216314561Y-86520986D01*
X216315212Y-86521089D01*
X216315215Y-86521090D01*
X216564038Y-86560500D01*
X216564039Y-86560500D01*
X216815961Y-86560500D01*
X216815962Y-86560500D01*
X217064785Y-86521090D01*
X217304379Y-86443241D01*
X217528845Y-86328870D01*
X217732656Y-86180793D01*
X217910793Y-86002656D01*
X218058870Y-85798845D01*
X218173241Y-85574379D01*
X218251090Y-85334785D01*
X218290500Y-85085962D01*
X218290500Y-84834038D01*
X218251090Y-84585215D01*
X218173241Y-84345621D01*
X218173239Y-84345618D01*
X218173239Y-84345616D01*
X218131747Y-84264184D01*
X218058870Y-84121155D01*
X217957107Y-83981090D01*
X217910798Y-83917350D01*
X217910794Y-83917345D01*
X217732654Y-83739205D01*
X217732649Y-83739201D01*
X217528848Y-83591132D01*
X217528847Y-83591131D01*
X217528845Y-83591130D01*
X217458747Y-83555413D01*
X217304383Y-83476760D01*
X217064785Y-83398910D01*
X216815962Y-83359500D01*
X216564038Y-83359500D01*
X216439626Y-83379205D01*
X216315214Y-83398910D01*
X216075616Y-83476760D01*
X215851151Y-83591132D01*
X215647350Y-83739201D01*
X215647345Y-83739205D01*
X215469205Y-83917345D01*
X215469201Y-83917350D01*
X215321132Y-84121151D01*
X215206760Y-84345616D01*
X215128910Y-84585214D01*
X215089500Y-84834038D01*
X215089500Y-85085961D01*
X215128910Y-85334785D01*
X215206760Y-85574383D01*
X215321132Y-85798848D01*
X215469201Y-86002649D01*
X215469205Y-86002654D01*
X215469207Y-86002656D01*
X215647344Y-86180793D01*
X215647345Y-86180794D01*
X215647344Y-86180794D01*
X215653661Y-86185383D01*
X215696327Y-86240714D01*
X215702305Y-86310327D01*
X215669699Y-86372122D01*
X215608860Y-86406479D01*
X215561378Y-86408174D01*
X215506611Y-86399500D01*
X215333389Y-86399500D01*
X215293728Y-86405781D01*
X215162302Y-86426597D01*
X214997552Y-86480128D01*
X214843211Y-86558768D01*
X214786289Y-86600125D01*
X214703072Y-86660586D01*
X214703070Y-86660588D01*
X214703069Y-86660588D01*
X214580588Y-86783069D01*
X214580588Y-86783070D01*
X214580586Y-86783072D01*
X214545321Y-86831610D01*
X214478768Y-86923211D01*
X214400128Y-87077552D01*
X214346597Y-87242302D01*
X214324026Y-87384812D01*
X214319500Y-87413389D01*
X207680500Y-87413389D01*
X207653402Y-87242299D01*
X207599873Y-87077555D01*
X207521232Y-86923212D01*
X207419414Y-86783072D01*
X207296928Y-86660586D01*
X207156788Y-86558768D01*
X207002445Y-86480127D01*
X206837701Y-86426598D01*
X206837699Y-86426597D01*
X206837698Y-86426597D01*
X206706271Y-86405781D01*
X206666611Y-86399500D01*
X206493389Y-86399500D01*
X206453728Y-86405781D01*
X206322302Y-86426597D01*
X206157552Y-86480128D01*
X206003211Y-86558768D01*
X205946289Y-86600125D01*
X205863072Y-86660586D01*
X205863070Y-86660588D01*
X205863069Y-86660588D01*
X205740588Y-86783069D01*
X205740588Y-86783070D01*
X205740586Y-86783072D01*
X205705321Y-86831610D01*
X205638768Y-86923211D01*
X205560128Y-87077552D01*
X205506597Y-87242302D01*
X205484026Y-87384812D01*
X205479500Y-87413389D01*
X203750500Y-87413389D01*
X203750500Y-87352494D01*
X203711993Y-87060007D01*
X203635639Y-86775048D01*
X203522743Y-86502493D01*
X203467309Y-86406479D01*
X203375238Y-86247006D01*
X203195647Y-86012959D01*
X203195641Y-86012952D01*
X202987047Y-85804358D01*
X202987040Y-85804352D01*
X202752993Y-85624761D01*
X202497510Y-85477258D01*
X202497500Y-85477254D01*
X202224961Y-85364364D01*
X202224954Y-85364362D01*
X202224952Y-85364361D01*
X201939993Y-85288007D01*
X201884210Y-85280663D01*
X201647513Y-85249500D01*
X201647506Y-85249500D01*
X201352494Y-85249500D01*
X201352486Y-85249500D01*
X201074085Y-85286153D01*
X201060007Y-85288007D01*
X201004851Y-85302786D01*
X200775048Y-85364361D01*
X200775038Y-85364364D01*
X200502499Y-85477254D01*
X200502489Y-85477258D01*
X200247006Y-85624761D01*
X200012959Y-85804352D01*
X200012952Y-85804358D01*
X199804358Y-86012952D01*
X199804352Y-86012959D01*
X199624761Y-86247006D01*
X199477258Y-86502489D01*
X199477254Y-86502499D01*
X199364364Y-86775038D01*
X199364361Y-86775048D01*
X199304833Y-86997213D01*
X199288008Y-87060004D01*
X199288006Y-87060015D01*
X199249500Y-87352486D01*
X197510854Y-87352486D01*
X197493402Y-87242299D01*
X197439873Y-87077555D01*
X197361232Y-86923212D01*
X197259414Y-86783072D01*
X197207482Y-86731140D01*
X197173997Y-86669817D01*
X197178981Y-86600125D01*
X197220853Y-86544192D01*
X197286317Y-86519775D01*
X197314561Y-86520986D01*
X197315212Y-86521089D01*
X197315215Y-86521090D01*
X197564038Y-86560500D01*
X197564039Y-86560500D01*
X197815961Y-86560500D01*
X197815962Y-86560500D01*
X198064785Y-86521090D01*
X198304379Y-86443241D01*
X198528845Y-86328870D01*
X198732656Y-86180793D01*
X198910793Y-86002656D01*
X199058870Y-85798845D01*
X199173241Y-85574379D01*
X199251090Y-85334785D01*
X199290500Y-85085962D01*
X199290500Y-84834038D01*
X199251090Y-84585215D01*
X199173241Y-84345621D01*
X199173239Y-84345618D01*
X199173239Y-84345616D01*
X199131747Y-84264184D01*
X199058870Y-84121155D01*
X198957107Y-83981090D01*
X198910798Y-83917350D01*
X198910794Y-83917345D01*
X198732654Y-83739205D01*
X198732649Y-83739201D01*
X198528848Y-83591132D01*
X198528847Y-83591131D01*
X198528845Y-83591130D01*
X198458747Y-83555413D01*
X198304383Y-83476760D01*
X198064785Y-83398910D01*
X197815962Y-83359500D01*
X197564038Y-83359500D01*
X197439626Y-83379205D01*
X197315214Y-83398910D01*
X197075616Y-83476760D01*
X196851151Y-83591132D01*
X196647350Y-83739201D01*
X196647345Y-83739205D01*
X196469205Y-83917345D01*
X196469201Y-83917350D01*
X196321132Y-84121151D01*
X196206760Y-84345616D01*
X196128910Y-84585214D01*
X196089500Y-84834038D01*
X196089500Y-85085961D01*
X196128910Y-85334785D01*
X196206760Y-85574383D01*
X196321132Y-85798848D01*
X196469201Y-86002649D01*
X196469205Y-86002654D01*
X196469207Y-86002656D01*
X196647344Y-86180793D01*
X196647345Y-86180794D01*
X196647344Y-86180794D01*
X196653661Y-86185383D01*
X196696327Y-86240714D01*
X196702305Y-86310327D01*
X196669699Y-86372122D01*
X196608860Y-86406479D01*
X196561378Y-86408174D01*
X196506611Y-86399500D01*
X196333389Y-86399500D01*
X196293728Y-86405781D01*
X196162302Y-86426597D01*
X195997552Y-86480128D01*
X195843211Y-86558768D01*
X195786289Y-86600125D01*
X195703072Y-86660586D01*
X195703070Y-86660588D01*
X195703069Y-86660588D01*
X195580588Y-86783069D01*
X195580588Y-86783070D01*
X195580586Y-86783072D01*
X195545321Y-86831610D01*
X195478768Y-86923211D01*
X195400128Y-87077552D01*
X195346597Y-87242302D01*
X195324026Y-87384812D01*
X195319500Y-87413389D01*
X188640500Y-87413389D01*
X188613402Y-87242299D01*
X188559873Y-87077555D01*
X188481232Y-86923212D01*
X188379414Y-86783072D01*
X188256928Y-86660586D01*
X188116788Y-86558768D01*
X187962445Y-86480127D01*
X187797701Y-86426598D01*
X187797699Y-86426597D01*
X187797698Y-86426597D01*
X187666271Y-86405781D01*
X187626611Y-86399500D01*
X187453389Y-86399500D01*
X187413728Y-86405781D01*
X187282302Y-86426597D01*
X187117552Y-86480128D01*
X186963211Y-86558768D01*
X186906289Y-86600125D01*
X186823072Y-86660586D01*
X186823070Y-86660588D01*
X186823069Y-86660588D01*
X186700588Y-86783069D01*
X186700588Y-86783070D01*
X186700586Y-86783072D01*
X186665321Y-86831610D01*
X186598768Y-86923211D01*
X186520128Y-87077552D01*
X186466597Y-87242302D01*
X186444026Y-87384812D01*
X186439500Y-87413389D01*
X184710500Y-87413389D01*
X184710500Y-87352494D01*
X184671993Y-87060007D01*
X184595639Y-86775048D01*
X184482743Y-86502493D01*
X184427309Y-86406479D01*
X184335238Y-86247006D01*
X184155647Y-86012959D01*
X184155641Y-86012952D01*
X183947047Y-85804358D01*
X183947040Y-85804352D01*
X183712993Y-85624761D01*
X183457510Y-85477258D01*
X183457500Y-85477254D01*
X183184961Y-85364364D01*
X183184954Y-85364362D01*
X183184952Y-85364361D01*
X182899993Y-85288007D01*
X182844210Y-85280663D01*
X182607513Y-85249500D01*
X182607506Y-85249500D01*
X182312494Y-85249500D01*
X182312486Y-85249500D01*
X182034085Y-85286153D01*
X182020007Y-85288007D01*
X181964851Y-85302786D01*
X181735048Y-85364361D01*
X181735038Y-85364364D01*
X181462499Y-85477254D01*
X181462489Y-85477258D01*
X181207006Y-85624761D01*
X180972959Y-85804352D01*
X180972952Y-85804358D01*
X180764358Y-86012952D01*
X180764352Y-86012959D01*
X180584761Y-86247006D01*
X180437258Y-86502489D01*
X180437254Y-86502499D01*
X180324364Y-86775038D01*
X180324361Y-86775048D01*
X180264833Y-86997213D01*
X180248008Y-87060004D01*
X180248006Y-87060015D01*
X180209500Y-87352486D01*
X178470854Y-87352486D01*
X178453402Y-87242299D01*
X178399873Y-87077555D01*
X178321232Y-86923212D01*
X178219414Y-86783072D01*
X178167482Y-86731140D01*
X178133997Y-86669817D01*
X178138981Y-86600125D01*
X178180853Y-86544192D01*
X178246317Y-86519775D01*
X178274561Y-86520986D01*
X178275212Y-86521089D01*
X178275215Y-86521090D01*
X178524038Y-86560500D01*
X178524039Y-86560500D01*
X178775961Y-86560500D01*
X178775962Y-86560500D01*
X179024785Y-86521090D01*
X179264379Y-86443241D01*
X179488845Y-86328870D01*
X179692656Y-86180793D01*
X179870793Y-86002656D01*
X180018870Y-85798845D01*
X180133241Y-85574379D01*
X180211090Y-85334785D01*
X180250500Y-85085962D01*
X180250500Y-84834038D01*
X180211090Y-84585215D01*
X180133241Y-84345621D01*
X180133239Y-84345618D01*
X180133239Y-84345616D01*
X180091747Y-84264184D01*
X180018870Y-84121155D01*
X179917107Y-83981090D01*
X179870798Y-83917350D01*
X179870794Y-83917345D01*
X179692654Y-83739205D01*
X179692649Y-83739201D01*
X179488848Y-83591132D01*
X179488847Y-83591131D01*
X179488845Y-83591130D01*
X179418747Y-83555413D01*
X179264383Y-83476760D01*
X179024785Y-83398910D01*
X178775962Y-83359500D01*
X178524038Y-83359500D01*
X178399626Y-83379205D01*
X178275214Y-83398910D01*
X178035616Y-83476760D01*
X177811151Y-83591132D01*
X177607350Y-83739201D01*
X177607345Y-83739205D01*
X177429205Y-83917345D01*
X177429201Y-83917350D01*
X177281132Y-84121151D01*
X177166760Y-84345616D01*
X177088910Y-84585214D01*
X177049500Y-84834038D01*
X177049500Y-85085961D01*
X177088910Y-85334785D01*
X177166760Y-85574383D01*
X177281132Y-85798848D01*
X177429201Y-86002649D01*
X177429205Y-86002654D01*
X177429207Y-86002656D01*
X177607344Y-86180793D01*
X177607345Y-86180794D01*
X177607344Y-86180794D01*
X177613661Y-86185383D01*
X177656327Y-86240714D01*
X177662305Y-86310327D01*
X177629699Y-86372122D01*
X177568860Y-86406479D01*
X177521378Y-86408174D01*
X177466611Y-86399500D01*
X177293389Y-86399500D01*
X177253728Y-86405781D01*
X177122302Y-86426597D01*
X176957552Y-86480128D01*
X176803211Y-86558768D01*
X176746289Y-86600125D01*
X176663072Y-86660586D01*
X176663070Y-86660588D01*
X176663069Y-86660588D01*
X176540588Y-86783069D01*
X176540588Y-86783070D01*
X176540586Y-86783072D01*
X176505321Y-86831610D01*
X176438768Y-86923211D01*
X176360128Y-87077552D01*
X176306597Y-87242302D01*
X176284026Y-87384812D01*
X176279500Y-87413389D01*
X165320193Y-87413389D01*
X165499219Y-87355220D01*
X165681610Y-87262287D01*
X165810482Y-87168657D01*
X165847213Y-87141971D01*
X165847215Y-87141968D01*
X165847219Y-87141966D01*
X165991966Y-86997219D01*
X165991968Y-86997215D01*
X165991971Y-86997213D01*
X166096892Y-86852799D01*
X166112287Y-86831610D01*
X166205220Y-86649219D01*
X166268477Y-86454534D01*
X166300500Y-86252352D01*
X166300500Y-86047648D01*
X166268477Y-85845466D01*
X166205220Y-85650781D01*
X166205218Y-85650778D01*
X166205218Y-85650776D01*
X166153865Y-85549991D01*
X166112287Y-85468390D01*
X166096892Y-85447200D01*
X165991971Y-85302786D01*
X165847213Y-85158028D01*
X165681613Y-85037715D01*
X165681612Y-85037714D01*
X165681610Y-85037713D01*
X165621898Y-85007288D01*
X165499223Y-84944781D01*
X165304534Y-84881522D01*
X165129995Y-84853878D01*
X165102352Y-84849500D01*
X164897648Y-84849500D01*
X164873329Y-84853351D01*
X164695465Y-84881522D01*
X164500776Y-84944781D01*
X164318386Y-85037715D01*
X164152786Y-85158028D01*
X164008028Y-85302786D01*
X163887715Y-85468386D01*
X163794781Y-85650776D01*
X163731522Y-85845465D01*
X163699500Y-86047648D01*
X158680499Y-86047648D01*
X158680499Y-85549992D01*
X158669999Y-85447203D01*
X158614814Y-85280666D01*
X158522712Y-85131344D01*
X158398656Y-85007288D01*
X158249334Y-84915186D01*
X158249331Y-84915185D01*
X158082795Y-84860000D01*
X158078533Y-84859088D01*
X158017102Y-84825801D01*
X157983419Y-84764586D01*
X157980500Y-84737837D01*
X157980500Y-84012162D01*
X158000185Y-83945123D01*
X158052989Y-83899368D01*
X158078552Y-83890907D01*
X158082788Y-83889999D01*
X158082797Y-83889999D01*
X158249334Y-83834814D01*
X158398656Y-83742712D01*
X158522712Y-83618656D01*
X158614814Y-83469334D01*
X158669999Y-83302797D01*
X158680500Y-83200009D01*
X158680499Y-82497648D01*
X163699500Y-82497648D01*
X163699500Y-82702351D01*
X163731522Y-82904534D01*
X163794781Y-83099223D01*
X163887715Y-83281613D01*
X164008028Y-83447213D01*
X164152786Y-83591971D01*
X164307749Y-83704556D01*
X164318390Y-83712287D01*
X164434607Y-83771503D01*
X164500776Y-83805218D01*
X164500778Y-83805218D01*
X164500781Y-83805220D01*
X164591856Y-83834812D01*
X164695465Y-83868477D01*
X164796557Y-83884488D01*
X164897648Y-83900500D01*
X164897649Y-83900500D01*
X165102351Y-83900500D01*
X165102352Y-83900500D01*
X165304534Y-83868477D01*
X165499219Y-83805220D01*
X165681610Y-83712287D01*
X165780007Y-83640798D01*
X165847213Y-83591971D01*
X165847215Y-83591968D01*
X165847219Y-83591966D01*
X165991966Y-83447219D01*
X165991968Y-83447215D01*
X165991971Y-83447213D01*
X166096892Y-83302799D01*
X166112287Y-83281610D01*
X166205220Y-83099219D01*
X166268477Y-82904534D01*
X166300500Y-82702352D01*
X166300500Y-82497648D01*
X166268477Y-82295466D01*
X166205220Y-82100781D01*
X166205218Y-82100778D01*
X166205218Y-82100776D01*
X166153865Y-81999991D01*
X166112287Y-81918390D01*
X166096892Y-81897200D01*
X165991971Y-81752786D01*
X165847213Y-81608028D01*
X165681613Y-81487715D01*
X165681612Y-81487714D01*
X165681610Y-81487713D01*
X165621898Y-81457288D01*
X165499223Y-81394781D01*
X165304534Y-81331522D01*
X165129995Y-81303878D01*
X165102352Y-81299500D01*
X164897648Y-81299500D01*
X164873329Y-81303351D01*
X164695465Y-81331522D01*
X164500776Y-81394781D01*
X164318386Y-81487715D01*
X164152786Y-81608028D01*
X164008028Y-81752786D01*
X163887715Y-81918386D01*
X163794781Y-82100776D01*
X163731522Y-82295465D01*
X163699500Y-82497648D01*
X158680499Y-82497648D01*
X158680499Y-81999992D01*
X158669999Y-81897203D01*
X158614814Y-81730666D01*
X158522712Y-81581344D01*
X158398656Y-81457288D01*
X158269047Y-81377345D01*
X158249336Y-81365187D01*
X158249331Y-81365185D01*
X158082795Y-81310000D01*
X158078533Y-81309088D01*
X158017102Y-81275801D01*
X157983419Y-81214586D01*
X157980500Y-81187837D01*
X157980500Y-80462162D01*
X158000185Y-80395123D01*
X158052989Y-80349368D01*
X158078552Y-80340907D01*
X158082788Y-80339999D01*
X158082797Y-80339999D01*
X158249334Y-80284814D01*
X158398656Y-80192712D01*
X158522712Y-80068656D01*
X158614814Y-79919334D01*
X158669999Y-79752797D01*
X158680500Y-79650009D01*
X158680499Y-78947648D01*
X163699500Y-78947648D01*
X163699500Y-79152351D01*
X163731522Y-79354534D01*
X163794781Y-79549223D01*
X163846135Y-79650009D01*
X163876393Y-79709394D01*
X163887715Y-79731613D01*
X164008028Y-79897213D01*
X164152786Y-80041971D01*
X164307749Y-80154556D01*
X164318390Y-80162287D01*
X164434607Y-80221503D01*
X164500776Y-80255218D01*
X164500778Y-80255218D01*
X164500781Y-80255220D01*
X164591856Y-80284812D01*
X164695465Y-80318477D01*
X164796557Y-80334488D01*
X164897648Y-80350500D01*
X164897649Y-80350500D01*
X165102351Y-80350500D01*
X165102352Y-80350500D01*
X165304534Y-80318477D01*
X165499219Y-80255220D01*
X165681610Y-80162287D01*
X165810482Y-80068657D01*
X165847213Y-80041971D01*
X165847215Y-80041968D01*
X165847219Y-80041966D01*
X165991966Y-79897219D01*
X165991968Y-79897215D01*
X165991971Y-79897213D01*
X166062236Y-79800500D01*
X166112287Y-79731610D01*
X166205220Y-79549219D01*
X166268477Y-79354534D01*
X166300500Y-79152352D01*
X166300500Y-78947648D01*
X166268477Y-78745466D01*
X166205220Y-78550781D01*
X166205218Y-78550778D01*
X166205218Y-78550776D01*
X166153865Y-78449991D01*
X166112287Y-78368390D01*
X166096892Y-78347200D01*
X165991971Y-78202786D01*
X165847213Y-78058028D01*
X165681613Y-77937715D01*
X165681612Y-77937714D01*
X165681610Y-77937713D01*
X165621898Y-77907288D01*
X165499223Y-77844781D01*
X165304534Y-77781522D01*
X165129995Y-77753878D01*
X165102352Y-77749500D01*
X164897648Y-77749500D01*
X164873329Y-77753351D01*
X164695465Y-77781522D01*
X164500776Y-77844781D01*
X164318386Y-77937715D01*
X164152786Y-78058028D01*
X164008028Y-78202786D01*
X163887715Y-78368386D01*
X163794781Y-78550776D01*
X163731522Y-78745465D01*
X163699500Y-78947648D01*
X158680499Y-78947648D01*
X158680499Y-78449992D01*
X158677685Y-78422449D01*
X158669999Y-78347203D01*
X158669998Y-78347200D01*
X158614814Y-78180666D01*
X158522712Y-78031344D01*
X158398656Y-77907288D01*
X158249334Y-77815186D01*
X158082797Y-77760001D01*
X158082795Y-77760000D01*
X157980010Y-77749500D01*
X156779998Y-77749500D01*
X156779981Y-77749501D01*
X156677203Y-77760000D01*
X156677200Y-77760001D01*
X156510668Y-77815185D01*
X156510663Y-77815187D01*
X156361342Y-77907289D01*
X156237289Y-78031342D01*
X156145187Y-78180663D01*
X156145186Y-78180666D01*
X156090001Y-78347203D01*
X156090001Y-78347204D01*
X156090000Y-78347204D01*
X156079500Y-78449983D01*
X151109142Y-78449983D01*
X151100520Y-78422449D01*
X151100500Y-78420234D01*
X151100500Y-69003439D01*
X151120185Y-68936400D01*
X151172989Y-68890645D01*
X151242147Y-68880701D01*
X151305703Y-68909726D01*
X151327602Y-68934548D01*
X151378210Y-69010288D01*
X151378213Y-69010292D01*
X151489707Y-69121786D01*
X151489711Y-69121789D01*
X151620814Y-69209390D01*
X151620827Y-69209397D01*
X151765523Y-69269331D01*
X151766503Y-69269737D01*
X151903211Y-69296930D01*
X151921153Y-69300499D01*
X151921156Y-69300500D01*
X151921158Y-69300500D01*
X152078844Y-69300500D01*
X152078845Y-69300499D01*
X152233497Y-69269737D01*
X152379179Y-69209394D01*
X152510289Y-69121789D01*
X152621789Y-69010289D01*
X152709394Y-68879179D01*
X152769737Y-68733497D01*
X152800500Y-68578842D01*
X152800500Y-68421158D01*
X152800500Y-68421155D01*
X152800499Y-68421153D01*
X152780836Y-68322301D01*
X152769737Y-68266503D01*
X152724610Y-68157555D01*
X152709397Y-68120827D01*
X152709390Y-68120814D01*
X152621398Y-67989125D01*
X152615747Y-67971078D01*
X152605523Y-67955169D01*
X152601071Y-67924207D01*
X152600520Y-67922447D01*
X152600500Y-67920234D01*
X152600500Y-67799983D01*
X156079500Y-67799983D01*
X156079500Y-69000001D01*
X156079501Y-69000018D01*
X156090000Y-69102796D01*
X156090001Y-69102799D01*
X156145185Y-69269331D01*
X156145187Y-69269336D01*
X156145435Y-69269738D01*
X156237288Y-69418656D01*
X156361344Y-69542712D01*
X156510666Y-69634814D01*
X156677203Y-69689999D01*
X156677209Y-69689999D01*
X156681448Y-69690907D01*
X156742884Y-69724185D01*
X156776576Y-69785394D01*
X156779500Y-69812162D01*
X156779500Y-70537837D01*
X156759815Y-70604876D01*
X156707011Y-70650631D01*
X156681459Y-70659089D01*
X156677207Y-70659999D01*
X156510668Y-70715185D01*
X156510663Y-70715187D01*
X156361342Y-70807289D01*
X156237289Y-70931342D01*
X156145187Y-71080663D01*
X156145186Y-71080666D01*
X156090001Y-71247203D01*
X156090001Y-71247204D01*
X156090000Y-71247204D01*
X156079500Y-71349983D01*
X156079500Y-72550001D01*
X156079501Y-72550018D01*
X156090000Y-72652796D01*
X156090001Y-72652799D01*
X156137856Y-72797213D01*
X156145186Y-72819334D01*
X156237288Y-72968656D01*
X156361344Y-73092712D01*
X156510666Y-73184814D01*
X156677203Y-73239999D01*
X156677209Y-73239999D01*
X156681448Y-73240907D01*
X156742884Y-73274185D01*
X156776576Y-73335394D01*
X156779500Y-73362162D01*
X156779500Y-74087837D01*
X156759815Y-74154876D01*
X156707011Y-74200631D01*
X156681459Y-74209089D01*
X156677207Y-74209999D01*
X156510668Y-74265185D01*
X156510663Y-74265187D01*
X156361342Y-74357289D01*
X156237289Y-74481342D01*
X156145187Y-74630663D01*
X156145186Y-74630666D01*
X156090001Y-74797203D01*
X156090001Y-74797204D01*
X156090000Y-74797204D01*
X156079500Y-74899983D01*
X156079500Y-76100001D01*
X156079501Y-76100018D01*
X156090000Y-76202796D01*
X156090001Y-76202799D01*
X156137856Y-76347213D01*
X156145186Y-76369334D01*
X156237288Y-76518656D01*
X156361344Y-76642712D01*
X156510666Y-76734814D01*
X156677203Y-76789999D01*
X156779991Y-76800500D01*
X157980008Y-76800499D01*
X158082797Y-76789999D01*
X158249334Y-76734814D01*
X158398656Y-76642712D01*
X158522712Y-76518656D01*
X158614814Y-76369334D01*
X158669999Y-76202797D01*
X158680500Y-76100009D01*
X158680499Y-75397648D01*
X163699500Y-75397648D01*
X163699500Y-75602351D01*
X163731522Y-75804534D01*
X163794781Y-75999223D01*
X163887715Y-76181613D01*
X164008028Y-76347213D01*
X164152786Y-76491971D01*
X164307749Y-76604556D01*
X164318390Y-76612287D01*
X164434607Y-76671503D01*
X164500776Y-76705218D01*
X164500778Y-76705218D01*
X164500781Y-76705220D01*
X164591856Y-76734812D01*
X164695465Y-76768477D01*
X164796557Y-76784488D01*
X164897648Y-76800500D01*
X164897649Y-76800500D01*
X165102351Y-76800500D01*
X165102352Y-76800500D01*
X165304534Y-76768477D01*
X165499219Y-76705220D01*
X165681610Y-76612287D01*
X165810482Y-76518657D01*
X165847213Y-76491971D01*
X165847215Y-76491968D01*
X165847219Y-76491966D01*
X165991966Y-76347219D01*
X165991968Y-76347215D01*
X165991971Y-76347213D01*
X166096892Y-76202799D01*
X166112287Y-76181610D01*
X166205220Y-75999219D01*
X166268477Y-75804534D01*
X166300500Y-75602352D01*
X166300500Y-75397648D01*
X166268477Y-75195466D01*
X166205220Y-75000781D01*
X166205218Y-75000778D01*
X166205218Y-75000776D01*
X166153865Y-74899991D01*
X166112287Y-74818390D01*
X166096892Y-74797200D01*
X165991971Y-74652786D01*
X165847213Y-74508028D01*
X165681613Y-74387715D01*
X165681612Y-74387714D01*
X165681610Y-74387713D01*
X165621898Y-74357288D01*
X165499223Y-74294781D01*
X165304534Y-74231522D01*
X165129995Y-74203878D01*
X165102352Y-74199500D01*
X164897648Y-74199500D01*
X164873329Y-74203351D01*
X164695465Y-74231522D01*
X164500776Y-74294781D01*
X164318386Y-74387715D01*
X164152786Y-74508028D01*
X164008028Y-74652786D01*
X163887715Y-74818386D01*
X163794781Y-75000776D01*
X163731522Y-75195465D01*
X163699500Y-75397648D01*
X158680499Y-75397648D01*
X158680499Y-74899992D01*
X158669999Y-74797203D01*
X158614814Y-74630666D01*
X158522712Y-74481344D01*
X158398656Y-74357288D01*
X158249334Y-74265186D01*
X158249331Y-74265185D01*
X158082795Y-74210000D01*
X158078533Y-74209088D01*
X158017102Y-74175801D01*
X157983419Y-74114586D01*
X157980500Y-74087837D01*
X157980500Y-73362162D01*
X158000185Y-73295123D01*
X158052989Y-73249368D01*
X158078552Y-73240907D01*
X158082788Y-73239999D01*
X158082797Y-73239999D01*
X158249334Y-73184814D01*
X158398656Y-73092712D01*
X158522712Y-72968656D01*
X158614814Y-72819334D01*
X158669999Y-72652797D01*
X158680500Y-72550009D01*
X158680499Y-71847648D01*
X163699500Y-71847648D01*
X163699500Y-72052351D01*
X163731522Y-72254534D01*
X163794781Y-72449223D01*
X163887715Y-72631613D01*
X164008028Y-72797213D01*
X164152786Y-72941971D01*
X164307749Y-73054556D01*
X164318390Y-73062287D01*
X164434607Y-73121503D01*
X164500776Y-73155218D01*
X164500778Y-73155218D01*
X164500781Y-73155220D01*
X164591856Y-73184812D01*
X164695465Y-73218477D01*
X164796557Y-73234488D01*
X164897648Y-73250500D01*
X164897649Y-73250500D01*
X165102351Y-73250500D01*
X165102352Y-73250500D01*
X165304534Y-73218477D01*
X165499219Y-73155220D01*
X165681610Y-73062287D01*
X165810482Y-72968657D01*
X165847213Y-72941971D01*
X165847215Y-72941968D01*
X165847219Y-72941966D01*
X165991966Y-72797219D01*
X165991968Y-72797215D01*
X165991971Y-72797213D01*
X166096892Y-72652799D01*
X166112287Y-72631610D01*
X166205220Y-72449219D01*
X166268477Y-72254534D01*
X166300500Y-72052352D01*
X166300500Y-71847648D01*
X166268477Y-71645466D01*
X166205220Y-71450781D01*
X166205218Y-71450778D01*
X166205218Y-71450776D01*
X166153865Y-71349991D01*
X166112287Y-71268390D01*
X166096892Y-71247200D01*
X165991971Y-71102786D01*
X165847213Y-70958028D01*
X165681613Y-70837715D01*
X165681612Y-70837714D01*
X165681610Y-70837713D01*
X165591876Y-70791991D01*
X165499223Y-70744781D01*
X165304534Y-70681522D01*
X165129995Y-70653878D01*
X165102352Y-70649500D01*
X164897648Y-70649500D01*
X164873329Y-70653351D01*
X164695465Y-70681522D01*
X164500776Y-70744781D01*
X164318386Y-70837715D01*
X164152786Y-70958028D01*
X164008028Y-71102786D01*
X163887715Y-71268386D01*
X163794781Y-71450776D01*
X163731522Y-71645465D01*
X163699500Y-71847648D01*
X158680499Y-71847648D01*
X158680499Y-71349992D01*
X158669999Y-71247203D01*
X158614814Y-71080666D01*
X158522712Y-70931344D01*
X158398656Y-70807288D01*
X158297314Y-70744780D01*
X158249336Y-70715187D01*
X158249331Y-70715185D01*
X158082795Y-70660000D01*
X158078533Y-70659088D01*
X158017102Y-70625801D01*
X157983419Y-70564586D01*
X157980500Y-70537837D01*
X157980500Y-69812162D01*
X158000185Y-69745123D01*
X158052989Y-69699368D01*
X158078552Y-69690907D01*
X158082788Y-69689999D01*
X158082797Y-69689999D01*
X158249334Y-69634814D01*
X158398656Y-69542712D01*
X158522712Y-69418656D01*
X158614814Y-69269334D01*
X158669999Y-69102797D01*
X158680500Y-69000009D01*
X158680499Y-68297648D01*
X163699500Y-68297648D01*
X163699500Y-68502351D01*
X163731522Y-68704534D01*
X163794781Y-68899223D01*
X163887715Y-69081613D01*
X164008028Y-69247213D01*
X164152786Y-69391971D01*
X164275646Y-69481232D01*
X164318390Y-69512287D01*
X164411779Y-69559871D01*
X164500776Y-69605218D01*
X164500778Y-69605218D01*
X164500781Y-69605220D01*
X164525963Y-69613402D01*
X164695465Y-69668477D01*
X164796557Y-69684488D01*
X164897648Y-69700500D01*
X164897649Y-69700500D01*
X165102351Y-69700500D01*
X165102352Y-69700500D01*
X165304534Y-69668477D01*
X165499219Y-69605220D01*
X165681610Y-69512287D01*
X165810482Y-69418657D01*
X165847213Y-69391971D01*
X165847215Y-69391968D01*
X165847219Y-69391966D01*
X165991966Y-69247219D01*
X165991968Y-69247215D01*
X165991971Y-69247213D01*
X166083095Y-69121789D01*
X166112287Y-69081610D01*
X166205220Y-68899219D01*
X166268477Y-68704534D01*
X166300500Y-68502352D01*
X166300500Y-68493389D01*
X176279500Y-68493389D01*
X176279500Y-68666611D01*
X176282811Y-68687513D01*
X176300262Y-68797701D01*
X176306598Y-68837701D01*
X176360127Y-69002445D01*
X176438768Y-69156788D01*
X176540586Y-69296928D01*
X176663072Y-69419414D01*
X176803212Y-69521232D01*
X176957555Y-69599873D01*
X177122299Y-69653402D01*
X177293389Y-69680500D01*
X177293390Y-69680500D01*
X177466610Y-69680500D01*
X177466611Y-69680500D01*
X177637701Y-69653402D01*
X177802445Y-69599873D01*
X177956788Y-69521232D01*
X178096928Y-69419414D01*
X178219414Y-69296928D01*
X178321232Y-69156788D01*
X178399873Y-69002445D01*
X178453402Y-68837701D01*
X178480500Y-68666611D01*
X178480500Y-68493389D01*
X178470854Y-68432486D01*
X180209500Y-68432486D01*
X180209500Y-68727513D01*
X180232107Y-68899223D01*
X180248007Y-69019993D01*
X180322212Y-69296930D01*
X180324361Y-69304951D01*
X180324364Y-69304961D01*
X180437254Y-69577500D01*
X180437258Y-69577510D01*
X180584761Y-69832993D01*
X180764352Y-70067040D01*
X180764358Y-70067047D01*
X180972952Y-70275641D01*
X180972959Y-70275647D01*
X181207006Y-70455238D01*
X181462489Y-70602741D01*
X181462490Y-70602741D01*
X181462493Y-70602743D01*
X181652682Y-70681522D01*
X181733956Y-70715187D01*
X181735048Y-70715639D01*
X182020007Y-70791993D01*
X182312494Y-70830500D01*
X182312501Y-70830500D01*
X182607499Y-70830500D01*
X182607506Y-70830500D01*
X182899993Y-70791993D01*
X183184952Y-70715639D01*
X183457507Y-70602743D01*
X183712994Y-70455238D01*
X183947042Y-70275646D01*
X184155646Y-70067042D01*
X184177124Y-70039052D01*
X184233552Y-69997849D01*
X184303298Y-69993694D01*
X184364218Y-70027906D01*
X184396971Y-70089624D01*
X184399500Y-70114538D01*
X184399500Y-80853699D01*
X184379815Y-80920738D01*
X184331795Y-80964184D01*
X184161151Y-81051132D01*
X183957350Y-81199201D01*
X183957345Y-81199205D01*
X183779205Y-81377345D01*
X183779201Y-81377350D01*
X183631132Y-81581151D01*
X183516760Y-81805616D01*
X183438910Y-82045214D01*
X183399500Y-82294038D01*
X183399500Y-82545961D01*
X183438910Y-82794785D01*
X183516760Y-83034383D01*
X183631132Y-83258848D01*
X183779201Y-83462649D01*
X183779205Y-83462654D01*
X183957345Y-83640794D01*
X183957350Y-83640798D01*
X184097621Y-83742710D01*
X184161155Y-83788870D01*
X184304184Y-83861747D01*
X184385616Y-83903239D01*
X184385618Y-83903239D01*
X184385621Y-83903241D01*
X184625215Y-83981090D01*
X184874038Y-84020500D01*
X184874039Y-84020500D01*
X185125961Y-84020500D01*
X185125962Y-84020500D01*
X185374785Y-83981090D01*
X185614379Y-83903241D01*
X185838845Y-83788870D01*
X186042656Y-83640793D01*
X186220793Y-83462656D01*
X186368870Y-83258845D01*
X186483241Y-83034379D01*
X186561090Y-82794785D01*
X186600500Y-82545962D01*
X186600500Y-82294038D01*
X186561090Y-82045215D01*
X186483241Y-81805621D01*
X186483239Y-81805618D01*
X186483239Y-81805616D01*
X186441747Y-81724184D01*
X186368870Y-81581155D01*
X186300981Y-81487713D01*
X186220798Y-81377350D01*
X186220794Y-81377345D01*
X186042654Y-81199205D01*
X186042649Y-81199201D01*
X185838848Y-81051132D01*
X185838847Y-81051131D01*
X185838845Y-81051130D01*
X185708204Y-80984565D01*
X185668205Y-80964184D01*
X185617409Y-80916209D01*
X185600500Y-80853699D01*
X185600500Y-68493389D01*
X186439500Y-68493389D01*
X186439500Y-68666611D01*
X186442811Y-68687513D01*
X186460262Y-68797701D01*
X186466598Y-68837701D01*
X186520127Y-69002445D01*
X186598768Y-69156788D01*
X186700586Y-69296928D01*
X186823072Y-69419414D01*
X186963212Y-69521232D01*
X187117555Y-69599873D01*
X187282299Y-69653402D01*
X187453389Y-69680500D01*
X187453390Y-69680500D01*
X187626610Y-69680500D01*
X187626611Y-69680500D01*
X187797701Y-69653402D01*
X187962445Y-69599873D01*
X188116788Y-69521232D01*
X188256928Y-69419414D01*
X188379414Y-69296928D01*
X188481232Y-69156788D01*
X188559873Y-69002445D01*
X188613402Y-68837701D01*
X188640500Y-68666611D01*
X188640500Y-68493389D01*
X195279500Y-68493389D01*
X195279500Y-68666611D01*
X195282811Y-68687513D01*
X195300262Y-68797701D01*
X195306598Y-68837701D01*
X195360127Y-69002445D01*
X195438768Y-69156788D01*
X195540586Y-69296928D01*
X195663072Y-69419414D01*
X195803212Y-69521232D01*
X195957555Y-69599873D01*
X196122299Y-69653402D01*
X196293389Y-69680500D01*
X196293390Y-69680500D01*
X196466610Y-69680500D01*
X196466611Y-69680500D01*
X196637701Y-69653402D01*
X196802445Y-69599873D01*
X196956788Y-69521232D01*
X197096928Y-69419414D01*
X197219414Y-69296928D01*
X197321232Y-69156788D01*
X197399873Y-69002445D01*
X197453402Y-68837701D01*
X197480500Y-68666611D01*
X197480500Y-68493389D01*
X197470854Y-68432486D01*
X199209500Y-68432486D01*
X199209500Y-68727513D01*
X199232107Y-68899223D01*
X199248007Y-69019993D01*
X199322212Y-69296930D01*
X199324361Y-69304951D01*
X199324364Y-69304961D01*
X199437254Y-69577500D01*
X199437258Y-69577510D01*
X199584761Y-69832993D01*
X199764352Y-70067040D01*
X199764358Y-70067047D01*
X199972952Y-70275641D01*
X199972959Y-70275647D01*
X200207006Y-70455238D01*
X200462489Y-70602741D01*
X200462490Y-70602741D01*
X200462493Y-70602743D01*
X200652682Y-70681522D01*
X200733956Y-70715187D01*
X200735048Y-70715639D01*
X201020007Y-70791993D01*
X201312494Y-70830500D01*
X201312501Y-70830500D01*
X201607499Y-70830500D01*
X201607506Y-70830500D01*
X201899993Y-70791993D01*
X202184952Y-70715639D01*
X202457507Y-70602743D01*
X202712994Y-70455238D01*
X202947042Y-70275646D01*
X203155646Y-70067042D01*
X203211928Y-69993694D01*
X203217124Y-69986923D01*
X203273552Y-69945720D01*
X203343298Y-69941565D01*
X203404218Y-69975777D01*
X203436971Y-70037495D01*
X203439500Y-70062409D01*
X203439500Y-80853699D01*
X203419815Y-80920738D01*
X203371795Y-80964184D01*
X203201151Y-81051132D01*
X202997350Y-81199201D01*
X202997345Y-81199205D01*
X202819205Y-81377345D01*
X202819201Y-81377350D01*
X202671132Y-81581151D01*
X202556760Y-81805616D01*
X202478910Y-82045214D01*
X202439500Y-82294038D01*
X202439500Y-82545961D01*
X202478910Y-82794785D01*
X202556760Y-83034383D01*
X202671132Y-83258848D01*
X202819201Y-83462649D01*
X202819205Y-83462654D01*
X202997345Y-83640794D01*
X202997350Y-83640798D01*
X203137621Y-83742710D01*
X203201155Y-83788870D01*
X203344184Y-83861747D01*
X203425616Y-83903239D01*
X203425618Y-83903239D01*
X203425621Y-83903241D01*
X203665215Y-83981090D01*
X203914038Y-84020500D01*
X203914039Y-84020500D01*
X204165961Y-84020500D01*
X204165962Y-84020500D01*
X204414785Y-83981090D01*
X204654379Y-83903241D01*
X204878845Y-83788870D01*
X205082656Y-83640793D01*
X205260793Y-83462656D01*
X205408870Y-83258845D01*
X205523241Y-83034379D01*
X205601090Y-82794785D01*
X205640500Y-82545962D01*
X205640500Y-82294038D01*
X205601090Y-82045215D01*
X205523241Y-81805621D01*
X205523239Y-81805618D01*
X205523239Y-81805616D01*
X205481747Y-81724184D01*
X205408870Y-81581155D01*
X205340981Y-81487713D01*
X205260798Y-81377350D01*
X205260794Y-81377345D01*
X205082654Y-81199205D01*
X205082649Y-81199201D01*
X204878848Y-81051132D01*
X204878847Y-81051131D01*
X204878845Y-81051130D01*
X204748204Y-80984565D01*
X204708205Y-80964184D01*
X204657409Y-80916209D01*
X204640500Y-80853699D01*
X204640500Y-68493389D01*
X205439500Y-68493389D01*
X205439500Y-68666611D01*
X205442811Y-68687513D01*
X205460262Y-68797701D01*
X205466598Y-68837701D01*
X205520127Y-69002445D01*
X205598768Y-69156788D01*
X205700586Y-69296928D01*
X205823072Y-69419414D01*
X205963212Y-69521232D01*
X206117555Y-69599873D01*
X206282299Y-69653402D01*
X206453389Y-69680500D01*
X206453390Y-69680500D01*
X206626610Y-69680500D01*
X206626611Y-69680500D01*
X206797701Y-69653402D01*
X206962445Y-69599873D01*
X207116788Y-69521232D01*
X207256928Y-69419414D01*
X207379414Y-69296928D01*
X207481232Y-69156788D01*
X207559873Y-69002445D01*
X207613402Y-68837701D01*
X207640500Y-68666611D01*
X207640500Y-68493389D01*
X207634165Y-68453389D01*
X214279500Y-68453389D01*
X214279500Y-68626611D01*
X214306598Y-68797701D01*
X214360127Y-68962445D01*
X214438768Y-69116788D01*
X214540586Y-69256928D01*
X214663072Y-69379414D01*
X214803212Y-69481232D01*
X214957555Y-69559873D01*
X215122299Y-69613402D01*
X215293389Y-69640500D01*
X215293390Y-69640500D01*
X215466610Y-69640500D01*
X215466611Y-69640500D01*
X215637701Y-69613402D01*
X215802445Y-69559873D01*
X215956788Y-69481232D01*
X216096928Y-69379414D01*
X216219414Y-69256928D01*
X216321232Y-69116788D01*
X216399873Y-68962445D01*
X216453402Y-68797701D01*
X216480500Y-68626611D01*
X216480500Y-68453389D01*
X216470854Y-68392486D01*
X218209500Y-68392486D01*
X218209500Y-68687513D01*
X218234734Y-68879179D01*
X218248007Y-68979993D01*
X218322212Y-69256930D01*
X218324361Y-69264951D01*
X218324364Y-69264961D01*
X218437254Y-69537500D01*
X218437258Y-69537510D01*
X218584761Y-69792993D01*
X218764352Y-70027040D01*
X218764358Y-70027047D01*
X218972952Y-70235641D01*
X218972959Y-70235647D01*
X219207006Y-70415238D01*
X219462489Y-70562741D01*
X219462490Y-70562741D01*
X219462493Y-70562743D01*
X219671943Y-70649500D01*
X219697294Y-70660001D01*
X219735048Y-70675639D01*
X220020007Y-70751993D01*
X220312494Y-70790500D01*
X220312501Y-70790500D01*
X220607499Y-70790500D01*
X220607506Y-70790500D01*
X220899993Y-70751993D01*
X221184952Y-70675639D01*
X221457507Y-70562743D01*
X221712994Y-70415238D01*
X221947042Y-70235646D01*
X222155646Y-70027042D01*
X222177124Y-69999052D01*
X222233552Y-69957849D01*
X222303298Y-69953694D01*
X222364218Y-69987906D01*
X222396971Y-70049624D01*
X222399500Y-70074538D01*
X222399500Y-80874080D01*
X222379815Y-80941119D01*
X222331795Y-80984565D01*
X222201151Y-81051132D01*
X221997350Y-81199201D01*
X221997345Y-81199205D01*
X221819205Y-81377345D01*
X221819201Y-81377350D01*
X221671132Y-81581151D01*
X221556760Y-81805616D01*
X221478910Y-82045214D01*
X221439500Y-82294038D01*
X221439500Y-82545961D01*
X221478910Y-82794785D01*
X221556760Y-83034383D01*
X221671132Y-83258848D01*
X221819201Y-83462649D01*
X221819205Y-83462654D01*
X221997345Y-83640794D01*
X221997350Y-83640798D01*
X222137621Y-83742710D01*
X222201155Y-83788870D01*
X222344184Y-83861747D01*
X222425616Y-83903239D01*
X222425618Y-83903239D01*
X222425621Y-83903241D01*
X222665215Y-83981090D01*
X222914038Y-84020500D01*
X222914039Y-84020500D01*
X223165961Y-84020500D01*
X223165962Y-84020500D01*
X223414785Y-83981090D01*
X223654379Y-83903241D01*
X223878845Y-83788870D01*
X224082656Y-83640793D01*
X224260793Y-83462656D01*
X224408870Y-83258845D01*
X224523241Y-83034379D01*
X224601090Y-82794785D01*
X224640500Y-82545962D01*
X224640500Y-82294038D01*
X224601090Y-82045215D01*
X224523241Y-81805621D01*
X224523239Y-81805618D01*
X224523239Y-81805616D01*
X224481747Y-81724184D01*
X224408870Y-81581155D01*
X224340981Y-81487713D01*
X224260798Y-81377350D01*
X224260794Y-81377345D01*
X224082654Y-81199205D01*
X224082649Y-81199201D01*
X223878848Y-81051132D01*
X223878847Y-81051131D01*
X223878845Y-81051130D01*
X223748204Y-80984565D01*
X223668205Y-80943803D01*
X223617409Y-80895828D01*
X223600500Y-80833318D01*
X223600500Y-68453389D01*
X224439500Y-68453389D01*
X224439500Y-68626611D01*
X224466598Y-68797701D01*
X224520127Y-68962445D01*
X224598768Y-69116788D01*
X224700586Y-69256928D01*
X224823072Y-69379414D01*
X224963212Y-69481232D01*
X225117555Y-69559873D01*
X225282299Y-69613402D01*
X225453389Y-69640500D01*
X225453390Y-69640500D01*
X225626610Y-69640500D01*
X225626611Y-69640500D01*
X225797701Y-69613402D01*
X225962445Y-69559873D01*
X226116788Y-69481232D01*
X226256928Y-69379414D01*
X226379414Y-69256928D01*
X226481232Y-69116788D01*
X226559873Y-68962445D01*
X226613402Y-68797701D01*
X226640500Y-68626611D01*
X226640500Y-68453389D01*
X226613402Y-68282299D01*
X226559873Y-68117555D01*
X226481232Y-67963212D01*
X226379414Y-67823072D01*
X226256928Y-67700586D01*
X226116788Y-67598768D01*
X225962445Y-67520127D01*
X225797701Y-67466598D01*
X225797699Y-67466597D01*
X225797698Y-67466597D01*
X225666271Y-67445781D01*
X225626611Y-67439500D01*
X225453389Y-67439500D01*
X225413728Y-67445781D01*
X225282302Y-67466597D01*
X225117552Y-67520128D01*
X224963211Y-67598768D01*
X224908157Y-67638768D01*
X224823072Y-67700586D01*
X224823070Y-67700588D01*
X224823069Y-67700588D01*
X224700588Y-67823069D01*
X224700588Y-67823070D01*
X224700586Y-67823072D01*
X224671526Y-67863070D01*
X224598768Y-67963211D01*
X224520128Y-68117552D01*
X224466597Y-68282302D01*
X224444606Y-68421153D01*
X224439500Y-68453389D01*
X223600500Y-68453389D01*
X223600500Y-65026300D01*
X223620185Y-64959261D01*
X223668204Y-64915815D01*
X223838845Y-64828870D01*
X224042656Y-64680793D01*
X224220793Y-64502656D01*
X224368870Y-64298845D01*
X224483241Y-64074379D01*
X224561090Y-63834785D01*
X224600500Y-63585962D01*
X224600500Y-63334038D01*
X224561090Y-63085215D01*
X224483241Y-62845621D01*
X224483239Y-62845618D01*
X224483239Y-62845616D01*
X224426107Y-62733489D01*
X224368870Y-62621155D01*
X224249859Y-62457350D01*
X224220798Y-62417350D01*
X224220794Y-62417345D01*
X224042654Y-62239205D01*
X224042649Y-62239201D01*
X223838848Y-62091132D01*
X223838847Y-62091131D01*
X223838845Y-62091130D01*
X223754602Y-62048206D01*
X223614383Y-61976760D01*
X223374785Y-61898910D01*
X223125962Y-61859500D01*
X222874038Y-61859500D01*
X222749626Y-61879205D01*
X222625214Y-61898910D01*
X222385616Y-61976760D01*
X222161151Y-62091132D01*
X221957350Y-62239201D01*
X221957345Y-62239205D01*
X221779205Y-62417345D01*
X221779201Y-62417350D01*
X221631132Y-62621151D01*
X221516760Y-62845616D01*
X221438910Y-63085214D01*
X221410197Y-63266503D01*
X221399500Y-63334038D01*
X221399500Y-63585962D01*
X221418905Y-63708477D01*
X221438910Y-63834785D01*
X221516760Y-64074383D01*
X221631132Y-64298848D01*
X221779201Y-64502649D01*
X221779205Y-64502654D01*
X221957345Y-64680794D01*
X221957350Y-64680798D01*
X222134343Y-64809390D01*
X222161155Y-64828870D01*
X222331795Y-64915815D01*
X222382591Y-64963789D01*
X222399500Y-65026300D01*
X222399500Y-67005461D01*
X222379815Y-67072500D01*
X222327011Y-67118255D01*
X222257853Y-67128199D01*
X222194297Y-67099174D01*
X222177125Y-67080949D01*
X222155644Y-67052955D01*
X221947047Y-66844358D01*
X221947040Y-66844352D01*
X221712993Y-66664761D01*
X221457510Y-66517258D01*
X221457500Y-66517254D01*
X221184961Y-66404364D01*
X221184954Y-66404362D01*
X221184952Y-66404361D01*
X220899993Y-66328007D01*
X220851113Y-66321571D01*
X220607513Y-66289500D01*
X220607506Y-66289500D01*
X220312494Y-66289500D01*
X220312486Y-66289500D01*
X220034085Y-66326153D01*
X220020007Y-66328007D01*
X219845428Y-66374785D01*
X219735048Y-66404361D01*
X219735038Y-66404364D01*
X219462499Y-66517254D01*
X219462489Y-66517258D01*
X219207006Y-66664761D01*
X218972959Y-66844352D01*
X218972952Y-66844358D01*
X218764358Y-67052952D01*
X218764352Y-67052959D01*
X218584761Y-67287006D01*
X218437258Y-67542489D01*
X218437254Y-67542499D01*
X218324364Y-67815038D01*
X218324361Y-67815048D01*
X218248008Y-68100004D01*
X218248006Y-68100015D01*
X218209500Y-68392486D01*
X216470854Y-68392486D01*
X216453402Y-68282299D01*
X216399873Y-68117555D01*
X216321232Y-67963212D01*
X216219414Y-67823072D01*
X216167482Y-67771140D01*
X216133997Y-67709817D01*
X216138981Y-67640125D01*
X216180853Y-67584192D01*
X216246317Y-67559775D01*
X216274561Y-67560986D01*
X216275212Y-67561089D01*
X216275215Y-67561090D01*
X216524038Y-67600500D01*
X216524039Y-67600500D01*
X216775961Y-67600500D01*
X216775962Y-67600500D01*
X217024785Y-67561090D01*
X217264379Y-67483241D01*
X217488845Y-67368870D01*
X217692656Y-67220793D01*
X217870793Y-67042656D01*
X218018870Y-66838845D01*
X218133241Y-66614379D01*
X218211090Y-66374785D01*
X218250500Y-66125962D01*
X218250500Y-65874038D01*
X218211090Y-65625215D01*
X218133241Y-65385621D01*
X218133239Y-65385618D01*
X218133239Y-65385616D01*
X218091747Y-65304184D01*
X218018870Y-65161155D01*
X217935146Y-65045918D01*
X217870798Y-64957350D01*
X217870794Y-64957345D01*
X217692654Y-64779205D01*
X217692649Y-64779201D01*
X217488848Y-64631132D01*
X217488847Y-64631131D01*
X217488845Y-64631130D01*
X217418747Y-64595413D01*
X217264383Y-64516760D01*
X217024785Y-64438910D01*
X216775962Y-64399500D01*
X216524038Y-64399500D01*
X216399626Y-64419205D01*
X216275214Y-64438910D01*
X216035616Y-64516760D01*
X215811151Y-64631132D01*
X215607350Y-64779201D01*
X215607345Y-64779205D01*
X215429205Y-64957345D01*
X215429201Y-64957350D01*
X215281132Y-65161151D01*
X215166760Y-65385616D01*
X215088910Y-65625214D01*
X215049500Y-65874038D01*
X215049500Y-66125962D01*
X215075402Y-66289500D01*
X215088910Y-66374785D01*
X215166760Y-66614383D01*
X215281132Y-66838848D01*
X215429201Y-67042649D01*
X215429205Y-67042654D01*
X215429207Y-67042656D01*
X215607344Y-67220793D01*
X215607345Y-67220794D01*
X215607344Y-67220794D01*
X215613661Y-67225383D01*
X215656327Y-67280714D01*
X215662305Y-67350327D01*
X215629699Y-67412122D01*
X215568860Y-67446479D01*
X215521378Y-67448174D01*
X215466611Y-67439500D01*
X215293389Y-67439500D01*
X215253728Y-67445781D01*
X215122302Y-67466597D01*
X214957552Y-67520128D01*
X214803211Y-67598768D01*
X214748157Y-67638768D01*
X214663072Y-67700586D01*
X214663070Y-67700588D01*
X214663069Y-67700588D01*
X214540588Y-67823069D01*
X214540588Y-67823070D01*
X214540586Y-67823072D01*
X214511526Y-67863070D01*
X214438768Y-67963211D01*
X214360128Y-68117552D01*
X214306597Y-68282302D01*
X214284606Y-68421153D01*
X214279500Y-68453389D01*
X207634165Y-68453389D01*
X207613402Y-68322299D01*
X207559873Y-68157555D01*
X207481232Y-68003212D01*
X207379414Y-67863072D01*
X207256928Y-67740586D01*
X207116788Y-67638768D01*
X206962445Y-67560127D01*
X206797701Y-67506598D01*
X206797699Y-67506597D01*
X206797698Y-67506597D01*
X206666271Y-67485781D01*
X206626611Y-67479500D01*
X206453389Y-67479500D01*
X206413728Y-67485781D01*
X206282302Y-67506597D01*
X206208235Y-67530663D01*
X206140164Y-67552781D01*
X206117552Y-67560128D01*
X205963211Y-67638768D01*
X205906289Y-67680125D01*
X205823072Y-67740586D01*
X205823070Y-67740588D01*
X205823069Y-67740588D01*
X205700588Y-67863069D01*
X205700588Y-67863070D01*
X205700586Y-67863072D01*
X205673189Y-67900781D01*
X205598768Y-68003211D01*
X205520128Y-68157552D01*
X205466597Y-68322302D01*
X205439500Y-68493389D01*
X204640500Y-68493389D01*
X204640500Y-65045918D01*
X204660185Y-64978879D01*
X204708205Y-64935433D01*
X204838845Y-64868870D01*
X205042656Y-64720793D01*
X205220793Y-64542656D01*
X205368870Y-64338845D01*
X205483241Y-64114379D01*
X205561090Y-63874785D01*
X205600500Y-63625962D01*
X205600500Y-63374038D01*
X205561090Y-63125215D01*
X205483241Y-62885621D01*
X205483239Y-62885618D01*
X205483239Y-62885616D01*
X205405730Y-62733497D01*
X205368870Y-62661155D01*
X205339808Y-62621155D01*
X205220798Y-62457350D01*
X205220794Y-62457345D01*
X205042654Y-62279205D01*
X205042649Y-62279201D01*
X204838848Y-62131132D01*
X204838847Y-62131131D01*
X204838845Y-62131130D01*
X204768747Y-62095413D01*
X204614383Y-62016760D01*
X204374785Y-61938910D01*
X204125962Y-61899500D01*
X203874038Y-61899500D01*
X203749626Y-61919205D01*
X203625214Y-61938910D01*
X203385616Y-62016760D01*
X203161151Y-62131132D01*
X202957350Y-62279201D01*
X202957345Y-62279205D01*
X202779205Y-62457345D01*
X202779201Y-62457350D01*
X202631132Y-62661151D01*
X202516760Y-62885616D01*
X202438910Y-63125214D01*
X202411147Y-63300500D01*
X202399500Y-63374038D01*
X202399500Y-63625962D01*
X202416532Y-63733497D01*
X202438910Y-63874785D01*
X202516760Y-64114383D01*
X202595413Y-64268747D01*
X202628407Y-64333501D01*
X202631132Y-64338848D01*
X202779201Y-64542649D01*
X202779205Y-64542654D01*
X202957345Y-64720794D01*
X202957350Y-64720798D01*
X203135117Y-64849952D01*
X203161155Y-64868870D01*
X203371795Y-64976196D01*
X203422591Y-65024170D01*
X203439500Y-65086681D01*
X203439500Y-67097590D01*
X203419815Y-67164629D01*
X203367011Y-67210384D01*
X203297853Y-67220328D01*
X203234297Y-67191303D01*
X203217125Y-67173077D01*
X203155649Y-67092962D01*
X203155641Y-67092952D01*
X202947047Y-66884358D01*
X202947040Y-66884352D01*
X202712993Y-66704761D01*
X202457510Y-66557258D01*
X202457500Y-66557254D01*
X202184961Y-66444364D01*
X202184954Y-66444362D01*
X202184952Y-66444361D01*
X201899993Y-66368007D01*
X201851113Y-66361571D01*
X201607513Y-66329500D01*
X201607506Y-66329500D01*
X201312494Y-66329500D01*
X201312486Y-66329500D01*
X201034085Y-66366153D01*
X201020007Y-66368007D01*
X200884331Y-66404361D01*
X200735048Y-66444361D01*
X200735038Y-66444364D01*
X200462499Y-66557254D01*
X200462489Y-66557258D01*
X200207006Y-66704761D01*
X199972959Y-66884352D01*
X199972952Y-66884358D01*
X199764358Y-67092952D01*
X199764352Y-67092959D01*
X199584761Y-67327006D01*
X199437258Y-67582489D01*
X199437254Y-67582499D01*
X199324364Y-67855038D01*
X199324361Y-67855048D01*
X199288279Y-67989711D01*
X199248008Y-68140004D01*
X199248006Y-68140015D01*
X199209500Y-68432486D01*
X197470854Y-68432486D01*
X197453402Y-68322299D01*
X197399873Y-68157555D01*
X197321232Y-68003212D01*
X197219414Y-67863072D01*
X197167482Y-67811140D01*
X197133997Y-67749817D01*
X197138981Y-67680125D01*
X197180853Y-67624192D01*
X197246317Y-67599775D01*
X197274561Y-67600986D01*
X197275212Y-67601089D01*
X197275215Y-67601090D01*
X197524038Y-67640500D01*
X197524039Y-67640500D01*
X197775961Y-67640500D01*
X197775962Y-67640500D01*
X198024785Y-67601090D01*
X198264379Y-67523241D01*
X198488845Y-67408870D01*
X198692656Y-67260793D01*
X198870793Y-67082656D01*
X199018870Y-66878845D01*
X199133241Y-66654379D01*
X199211090Y-66414785D01*
X199250500Y-66165962D01*
X199250500Y-65914038D01*
X199211090Y-65665215D01*
X199133241Y-65425621D01*
X199133239Y-65425618D01*
X199133239Y-65425616D01*
X199091747Y-65344184D01*
X199018870Y-65201155D01*
X198989808Y-65161155D01*
X198870798Y-64997350D01*
X198870794Y-64997345D01*
X198692654Y-64819205D01*
X198692649Y-64819201D01*
X198488848Y-64671132D01*
X198488847Y-64671131D01*
X198488845Y-64671130D01*
X198418747Y-64635413D01*
X198264383Y-64556760D01*
X198024785Y-64478910D01*
X197775962Y-64439500D01*
X197524038Y-64439500D01*
X197399626Y-64459205D01*
X197275214Y-64478910D01*
X197035616Y-64556760D01*
X196811151Y-64671132D01*
X196607350Y-64819201D01*
X196607345Y-64819205D01*
X196429205Y-64997345D01*
X196429201Y-64997350D01*
X196281132Y-65201151D01*
X196166760Y-65425616D01*
X196088910Y-65665214D01*
X196088910Y-65665215D01*
X196049500Y-65914038D01*
X196049500Y-66165962D01*
X196075166Y-66328007D01*
X196088910Y-66414785D01*
X196166760Y-66654383D01*
X196281132Y-66878848D01*
X196429201Y-67082649D01*
X196429205Y-67082654D01*
X196429207Y-67082656D01*
X196607344Y-67260793D01*
X196607345Y-67260794D01*
X196607344Y-67260794D01*
X196613661Y-67265383D01*
X196656327Y-67320714D01*
X196662305Y-67390327D01*
X196629699Y-67452122D01*
X196568860Y-67486479D01*
X196521378Y-67488174D01*
X196466611Y-67479500D01*
X196293389Y-67479500D01*
X196253728Y-67485781D01*
X196122302Y-67506597D01*
X196048235Y-67530663D01*
X195980164Y-67552781D01*
X195957552Y-67560128D01*
X195803211Y-67638768D01*
X195746289Y-67680125D01*
X195663072Y-67740586D01*
X195663070Y-67740588D01*
X195663069Y-67740588D01*
X195540588Y-67863069D01*
X195540588Y-67863070D01*
X195540586Y-67863072D01*
X195513189Y-67900781D01*
X195438768Y-68003211D01*
X195360128Y-68157552D01*
X195306597Y-68322302D01*
X195279500Y-68493389D01*
X188640500Y-68493389D01*
X188613402Y-68322299D01*
X188559873Y-68157555D01*
X188481232Y-68003212D01*
X188379414Y-67863072D01*
X188256928Y-67740586D01*
X188116788Y-67638768D01*
X187962445Y-67560127D01*
X187797701Y-67506598D01*
X187797699Y-67506597D01*
X187797698Y-67506597D01*
X187666271Y-67485781D01*
X187626611Y-67479500D01*
X187453389Y-67479500D01*
X187413728Y-67485781D01*
X187282302Y-67506597D01*
X187208235Y-67530663D01*
X187140164Y-67552781D01*
X187117552Y-67560128D01*
X186963211Y-67638768D01*
X186906289Y-67680125D01*
X186823072Y-67740586D01*
X186823070Y-67740588D01*
X186823069Y-67740588D01*
X186700588Y-67863069D01*
X186700588Y-67863070D01*
X186700586Y-67863072D01*
X186673189Y-67900781D01*
X186598768Y-68003211D01*
X186520128Y-68157552D01*
X186466597Y-68322302D01*
X186439500Y-68493389D01*
X185600500Y-68493389D01*
X185600500Y-65066300D01*
X185620185Y-64999261D01*
X185668204Y-64955815D01*
X185838845Y-64868870D01*
X186042656Y-64720793D01*
X186220793Y-64542656D01*
X186368870Y-64338845D01*
X186483241Y-64114379D01*
X186561090Y-63874785D01*
X186600500Y-63625962D01*
X186600500Y-63374038D01*
X186561090Y-63125215D01*
X186483241Y-62885621D01*
X186483239Y-62885618D01*
X186483239Y-62885616D01*
X186405730Y-62733497D01*
X186368870Y-62661155D01*
X186339808Y-62621155D01*
X186220798Y-62457350D01*
X186220794Y-62457345D01*
X186042654Y-62279205D01*
X186042649Y-62279201D01*
X185838848Y-62131132D01*
X185838847Y-62131131D01*
X185838845Y-62131130D01*
X185768747Y-62095413D01*
X185614383Y-62016760D01*
X185374785Y-61938910D01*
X185125962Y-61899500D01*
X184874038Y-61899500D01*
X184749626Y-61919205D01*
X184625214Y-61938910D01*
X184385616Y-62016760D01*
X184161151Y-62131132D01*
X183957350Y-62279201D01*
X183957345Y-62279205D01*
X183779205Y-62457345D01*
X183779201Y-62457350D01*
X183631132Y-62661151D01*
X183516760Y-62885616D01*
X183438910Y-63125214D01*
X183411147Y-63300500D01*
X183399500Y-63374038D01*
X183399500Y-63625962D01*
X183416532Y-63733497D01*
X183438910Y-63874785D01*
X183516760Y-64114383D01*
X183595413Y-64268747D01*
X183628407Y-64333501D01*
X183631132Y-64338848D01*
X183779201Y-64542649D01*
X183779205Y-64542654D01*
X183957345Y-64720794D01*
X183957350Y-64720798D01*
X184135117Y-64849952D01*
X184161155Y-64868870D01*
X184331795Y-64955815D01*
X184382591Y-65003789D01*
X184399500Y-65066300D01*
X184399500Y-67045461D01*
X184379815Y-67112500D01*
X184327011Y-67158255D01*
X184257853Y-67168199D01*
X184194297Y-67139174D01*
X184177125Y-67120949D01*
X184155644Y-67092955D01*
X183947047Y-66884358D01*
X183947040Y-66884352D01*
X183712993Y-66704761D01*
X183457510Y-66557258D01*
X183457500Y-66557254D01*
X183184961Y-66444364D01*
X183184954Y-66444362D01*
X183184952Y-66444361D01*
X182899993Y-66368007D01*
X182851113Y-66361571D01*
X182607513Y-66329500D01*
X182607506Y-66329500D01*
X182312494Y-66329500D01*
X182312486Y-66329500D01*
X182034085Y-66366153D01*
X182020007Y-66368007D01*
X181884331Y-66404361D01*
X181735048Y-66444361D01*
X181735038Y-66444364D01*
X181462499Y-66557254D01*
X181462489Y-66557258D01*
X181207006Y-66704761D01*
X180972959Y-66884352D01*
X180972952Y-66884358D01*
X180764358Y-67092952D01*
X180764352Y-67092959D01*
X180584761Y-67327006D01*
X180437258Y-67582489D01*
X180437254Y-67582499D01*
X180324364Y-67855038D01*
X180324361Y-67855048D01*
X180288279Y-67989711D01*
X180248008Y-68140004D01*
X180248006Y-68140015D01*
X180209500Y-68432486D01*
X178470854Y-68432486D01*
X178453402Y-68322299D01*
X178399873Y-68157555D01*
X178321232Y-68003212D01*
X178219414Y-67863072D01*
X178167482Y-67811140D01*
X178133997Y-67749817D01*
X178138981Y-67680125D01*
X178180853Y-67624192D01*
X178246317Y-67599775D01*
X178274561Y-67600986D01*
X178275212Y-67601089D01*
X178275215Y-67601090D01*
X178524038Y-67640500D01*
X178524039Y-67640500D01*
X178775961Y-67640500D01*
X178775962Y-67640500D01*
X179024785Y-67601090D01*
X179264379Y-67523241D01*
X179488845Y-67408870D01*
X179692656Y-67260793D01*
X179870793Y-67082656D01*
X180018870Y-66878845D01*
X180133241Y-66654379D01*
X180211090Y-66414785D01*
X180250500Y-66165962D01*
X180250500Y-65914038D01*
X180211090Y-65665215D01*
X180133241Y-65425621D01*
X180133239Y-65425618D01*
X180133239Y-65425616D01*
X180091747Y-65344184D01*
X180018870Y-65201155D01*
X179989808Y-65161155D01*
X179870798Y-64997350D01*
X179870794Y-64997345D01*
X179692654Y-64819205D01*
X179692649Y-64819201D01*
X179488848Y-64671132D01*
X179488847Y-64671131D01*
X179488845Y-64671130D01*
X179418747Y-64635413D01*
X179264383Y-64556760D01*
X179024785Y-64478910D01*
X178775962Y-64439500D01*
X178524038Y-64439500D01*
X178399626Y-64459205D01*
X178275214Y-64478910D01*
X178035616Y-64556760D01*
X177811151Y-64671132D01*
X177607350Y-64819201D01*
X177607345Y-64819205D01*
X177429205Y-64997345D01*
X177429201Y-64997350D01*
X177281132Y-65201151D01*
X177166760Y-65425616D01*
X177088910Y-65665214D01*
X177088910Y-65665215D01*
X177049500Y-65914038D01*
X177049500Y-66165962D01*
X177075166Y-66328007D01*
X177088910Y-66414785D01*
X177166760Y-66654383D01*
X177281132Y-66878848D01*
X177429201Y-67082649D01*
X177429205Y-67082654D01*
X177429207Y-67082656D01*
X177607344Y-67260793D01*
X177607345Y-67260794D01*
X177607344Y-67260794D01*
X177613661Y-67265383D01*
X177656327Y-67320714D01*
X177662305Y-67390327D01*
X177629699Y-67452122D01*
X177568860Y-67486479D01*
X177521378Y-67488174D01*
X177466611Y-67479500D01*
X177293389Y-67479500D01*
X177253728Y-67485781D01*
X177122302Y-67506597D01*
X177048235Y-67530663D01*
X176980164Y-67552781D01*
X176957552Y-67560128D01*
X176803211Y-67638768D01*
X176746289Y-67680125D01*
X176663072Y-67740586D01*
X176663070Y-67740588D01*
X176663069Y-67740588D01*
X176540588Y-67863069D01*
X176540588Y-67863070D01*
X176540586Y-67863072D01*
X176513189Y-67900781D01*
X176438768Y-68003211D01*
X176360128Y-68157552D01*
X176306597Y-68322302D01*
X176279500Y-68493389D01*
X166300500Y-68493389D01*
X166300500Y-68297648D01*
X166268477Y-68095466D01*
X166246999Y-68029365D01*
X166222892Y-67955169D01*
X166205220Y-67900781D01*
X166205218Y-67900778D01*
X166205218Y-67900776D01*
X166161532Y-67815038D01*
X166112287Y-67718390D01*
X166084486Y-67680125D01*
X165991971Y-67552786D01*
X165847213Y-67408028D01*
X165681613Y-67287715D01*
X165681612Y-67287714D01*
X165681610Y-67287713D01*
X165621898Y-67257288D01*
X165499223Y-67194781D01*
X165304534Y-67131522D01*
X165129995Y-67103878D01*
X165102352Y-67099500D01*
X164897648Y-67099500D01*
X164873329Y-67103351D01*
X164695465Y-67131522D01*
X164500776Y-67194781D01*
X164318386Y-67287715D01*
X164152786Y-67408028D01*
X164008028Y-67552786D01*
X163887715Y-67718386D01*
X163794781Y-67900776D01*
X163731522Y-68095465D01*
X163699500Y-68297648D01*
X158680499Y-68297648D01*
X158680499Y-67799992D01*
X158669999Y-67697203D01*
X158614814Y-67530666D01*
X158522712Y-67381344D01*
X158398656Y-67257288D01*
X158291677Y-67191303D01*
X158249336Y-67165187D01*
X158249331Y-67165185D01*
X158247653Y-67164629D01*
X158082797Y-67110001D01*
X158082795Y-67110000D01*
X157980010Y-67099500D01*
X156779998Y-67099500D01*
X156779981Y-67099501D01*
X156677203Y-67110000D01*
X156677200Y-67110001D01*
X156510668Y-67165185D01*
X156510663Y-67165187D01*
X156361342Y-67257289D01*
X156237289Y-67381342D01*
X156145187Y-67530663D01*
X156145185Y-67530668D01*
X156122045Y-67600500D01*
X156090001Y-67697203D01*
X156090001Y-67697204D01*
X156090000Y-67697204D01*
X156079500Y-67799983D01*
X152600500Y-67799983D01*
X152600500Y-59003439D01*
X152620185Y-58936400D01*
X152672989Y-58890645D01*
X152742147Y-58880701D01*
X152805703Y-58909726D01*
X152827602Y-58934548D01*
X152878210Y-59010288D01*
X152878213Y-59010292D01*
X152989707Y-59121786D01*
X152989711Y-59121789D01*
X153120814Y-59209390D01*
X153120827Y-59209397D01*
X153266498Y-59269735D01*
X153266503Y-59269737D01*
X153421153Y-59300499D01*
X153421156Y-59300500D01*
X153421158Y-59300500D01*
X153578844Y-59300500D01*
X153578845Y-59300499D01*
X153733497Y-59269737D01*
X153879179Y-59209394D01*
X154010289Y-59121789D01*
X154121789Y-59010289D01*
X154209394Y-58879179D01*
X154269737Y-58733497D01*
X154300500Y-58578842D01*
X154300638Y-58578150D01*
X154333023Y-58516239D01*
X154334518Y-58514716D01*
X155102416Y-57746819D01*
X155163739Y-57713334D01*
X155190097Y-57710500D01*
X164359219Y-57710500D01*
X164426258Y-57730185D01*
X164472013Y-57782989D01*
X164481957Y-57852147D01*
X164469704Y-57890795D01*
X164423444Y-57981585D01*
X164357753Y-58183760D01*
X164344648Y-58266503D01*
X164324500Y-58393713D01*
X164324500Y-58606287D01*
X164357754Y-58816243D01*
X164420803Y-59010288D01*
X164423444Y-59018414D01*
X164519951Y-59207820D01*
X164644890Y-59379786D01*
X164795213Y-59530109D01*
X164967182Y-59655050D01*
X164975946Y-59659516D01*
X165026742Y-59707491D01*
X165043536Y-59775312D01*
X165020998Y-59841447D01*
X164975946Y-59880484D01*
X164967182Y-59884949D01*
X164795213Y-60009890D01*
X164644890Y-60160213D01*
X164519951Y-60332179D01*
X164423444Y-60521585D01*
X164357753Y-60723760D01*
X164324500Y-60933713D01*
X164324500Y-61146286D01*
X164357753Y-61356239D01*
X164423444Y-61558414D01*
X164519951Y-61747820D01*
X164644890Y-61919786D01*
X164795213Y-62070109D01*
X164967179Y-62195048D01*
X164967181Y-62195049D01*
X164967184Y-62195051D01*
X165156588Y-62291557D01*
X165358757Y-62357246D01*
X165568713Y-62390500D01*
X165568714Y-62390500D01*
X167681286Y-62390500D01*
X167681287Y-62390500D01*
X167891243Y-62357246D01*
X168093412Y-62291557D01*
X168282816Y-62195051D01*
X168370794Y-62131132D01*
X168454786Y-62070109D01*
X168454788Y-62070106D01*
X168454792Y-62070104D01*
X168605104Y-61919792D01*
X168605106Y-61919788D01*
X168605109Y-61919786D01*
X168730048Y-61747820D01*
X168730047Y-61747820D01*
X168730051Y-61747816D01*
X168826557Y-61558412D01*
X168892246Y-61356243D01*
X168925500Y-61146287D01*
X168925500Y-60933713D01*
X168892246Y-60723757D01*
X168826557Y-60521588D01*
X168730051Y-60332184D01*
X168730049Y-60332181D01*
X168730048Y-60332179D01*
X168605109Y-60160213D01*
X168454786Y-60009890D01*
X168282820Y-59884951D01*
X168282115Y-59884591D01*
X168274054Y-59880485D01*
X168223259Y-59832512D01*
X168206463Y-59764692D01*
X168228999Y-59698556D01*
X168274054Y-59659515D01*
X168282816Y-59655051D01*
X168314538Y-59632004D01*
X168454786Y-59530109D01*
X168454788Y-59530106D01*
X168454792Y-59530104D01*
X168605104Y-59379792D01*
X168605106Y-59379788D01*
X168605109Y-59379786D01*
X168728902Y-59209397D01*
X168730051Y-59207816D01*
X168826557Y-59018412D01*
X168892246Y-58816243D01*
X168925500Y-58606287D01*
X168925500Y-58393713D01*
X168892246Y-58183757D01*
X168826557Y-57981588D01*
X168780296Y-57890795D01*
X168767400Y-57822125D01*
X168793677Y-57757385D01*
X168850783Y-57717128D01*
X168890781Y-57710500D01*
X171493331Y-57710500D01*
X171493347Y-57710501D01*
X171500943Y-57710501D01*
X171659054Y-57710501D01*
X171659057Y-57710501D01*
X171811785Y-57669577D01*
X171897294Y-57620208D01*
X171948716Y-57590520D01*
X172060520Y-57478716D01*
X172060520Y-57478714D01*
X172070724Y-57468511D01*
X172070728Y-57468506D01*
X178972819Y-50566415D01*
X179034142Y-50532930D01*
X179103834Y-50537914D01*
X179159767Y-50579786D01*
X179184184Y-50645250D01*
X179184500Y-50654096D01*
X179184500Y-50801287D01*
X179217754Y-51011243D01*
X179277864Y-51196243D01*
X179283444Y-51213414D01*
X179379951Y-51402820D01*
X179504890Y-51574786D01*
X179618430Y-51688326D01*
X179651915Y-51749649D01*
X179646931Y-51819341D01*
X179605059Y-51875274D01*
X179574083Y-51892189D01*
X179442669Y-51941203D01*
X179442664Y-51941206D01*
X179327455Y-52027452D01*
X179327452Y-52027455D01*
X179241206Y-52142664D01*
X179241202Y-52142671D01*
X179190908Y-52277517D01*
X179184501Y-52337116D01*
X179184501Y-52337123D01*
X179184500Y-52337135D01*
X179184500Y-54132870D01*
X179184501Y-54132876D01*
X179190908Y-54192483D01*
X179241202Y-54327328D01*
X179241206Y-54327335D01*
X179327452Y-54442544D01*
X179327455Y-54442547D01*
X179442664Y-54528793D01*
X179442671Y-54528797D01*
X179577517Y-54579091D01*
X179577516Y-54579091D01*
X179584444Y-54579835D01*
X179637127Y-54585500D01*
X181432872Y-54585499D01*
X181492483Y-54579091D01*
X181627331Y-54528796D01*
X181742546Y-54442546D01*
X181828796Y-54327331D01*
X181879091Y-54192483D01*
X181885500Y-54132873D01*
X181885499Y-52337128D01*
X181879091Y-52277517D01*
X181874404Y-52264951D01*
X181828797Y-52142671D01*
X181828793Y-52142664D01*
X181742547Y-52027455D01*
X181742544Y-52027452D01*
X181627335Y-51941206D01*
X181627328Y-51941202D01*
X181495917Y-51892189D01*
X181439983Y-51850318D01*
X181415566Y-51784853D01*
X181430418Y-51716580D01*
X181451563Y-51688332D01*
X181565104Y-51574792D01*
X181690051Y-51402816D01*
X181786557Y-51213412D01*
X181852246Y-51011243D01*
X181885500Y-50801287D01*
X181885500Y-50588713D01*
X181852246Y-50378757D01*
X181786557Y-50176588D01*
X181690051Y-49987184D01*
X181690049Y-49987181D01*
X181690048Y-49987179D01*
X181565109Y-49815213D01*
X181414786Y-49664890D01*
X181242820Y-49539951D01*
X181240082Y-49538556D01*
X181234054Y-49535485D01*
X181183259Y-49487512D01*
X181166463Y-49419692D01*
X181188999Y-49353556D01*
X181234054Y-49314515D01*
X181242816Y-49310051D01*
X181367048Y-49219792D01*
X181414786Y-49185109D01*
X181414788Y-49185106D01*
X181414792Y-49185104D01*
X181565104Y-49034792D01*
X181565106Y-49034788D01*
X181565109Y-49034786D01*
X181690048Y-48862820D01*
X181690047Y-48862820D01*
X181690051Y-48862816D01*
X181786557Y-48673412D01*
X181852246Y-48471243D01*
X181885500Y-48261287D01*
X181885500Y-48048713D01*
X181852246Y-47838757D01*
X181786557Y-47636588D01*
X181690051Y-47447184D01*
X181690049Y-47447181D01*
X181690048Y-47447179D01*
X181565109Y-47275213D01*
X181414786Y-47124890D01*
X181242820Y-46999951D01*
X181242115Y-46999591D01*
X181234054Y-46995485D01*
X181183259Y-46947512D01*
X181166463Y-46879692D01*
X181188999Y-46813556D01*
X181234054Y-46774515D01*
X181242816Y-46770051D01*
X181264789Y-46754086D01*
X181414786Y-46645109D01*
X181414788Y-46645106D01*
X181414792Y-46645104D01*
X181565104Y-46494792D01*
X181565106Y-46494788D01*
X181565109Y-46494786D01*
X181690048Y-46322820D01*
X181690047Y-46322820D01*
X181690051Y-46322816D01*
X181786557Y-46133412D01*
X181852246Y-45931243D01*
X181885500Y-45721287D01*
X181885500Y-45508713D01*
X181852246Y-45298757D01*
X181786557Y-45096588D01*
X181690051Y-44907184D01*
X181690049Y-44907181D01*
X181690048Y-44907179D01*
X181565109Y-44735213D01*
X181414786Y-44584890D01*
X181242820Y-44459951D01*
X181053414Y-44363444D01*
X181053413Y-44363443D01*
X181053412Y-44363443D01*
X180851243Y-44297754D01*
X180851241Y-44297753D01*
X180851240Y-44297753D01*
X180689957Y-44272208D01*
X180641287Y-44264500D01*
X180428713Y-44264500D01*
X180380042Y-44272208D01*
X180218760Y-44297753D01*
X180016585Y-44363444D01*
X179827179Y-44459951D01*
X179655213Y-44584890D01*
X179504890Y-44735213D01*
X179379951Y-44907179D01*
X179283444Y-45096585D01*
X179217753Y-45298760D01*
X179184500Y-45508713D01*
X179184500Y-45721286D01*
X179217754Y-45931244D01*
X179217754Y-45931247D01*
X179231491Y-45973523D01*
X179233486Y-46043364D01*
X179201241Y-46099522D01*
X178932582Y-46368182D01*
X178871262Y-46401666D01*
X178844903Y-46404500D01*
X169019256Y-46404500D01*
X168952217Y-46384815D01*
X168906462Y-46332011D01*
X168896518Y-46262853D01*
X168901322Y-46242192D01*
X168942246Y-46116243D01*
X168975500Y-45906287D01*
X168975500Y-45693713D01*
X168942246Y-45483757D01*
X168876557Y-45281588D01*
X168780051Y-45092184D01*
X168780049Y-45092181D01*
X168780048Y-45092179D01*
X168655109Y-44920213D01*
X168504786Y-44769890D01*
X168332820Y-44644951D01*
X168143414Y-44548444D01*
X168143413Y-44548443D01*
X168143412Y-44548443D01*
X167941243Y-44482754D01*
X167941241Y-44482753D01*
X167941240Y-44482753D01*
X167779957Y-44457208D01*
X167731287Y-44449500D01*
X165518713Y-44449500D01*
X165470042Y-44457208D01*
X165308760Y-44482753D01*
X165106585Y-44548444D01*
X164917179Y-44644951D01*
X164745213Y-44769890D01*
X164594890Y-44920213D01*
X164469951Y-45092179D01*
X164373444Y-45281585D01*
X164307753Y-45483760D01*
X164274500Y-45693713D01*
X164274500Y-45906287D01*
X164307754Y-46116243D01*
X164348675Y-46242184D01*
X164350670Y-46312023D01*
X164314590Y-46371856D01*
X164251889Y-46402684D01*
X164230744Y-46404500D01*
X161415940Y-46404500D01*
X161375019Y-46415464D01*
X161375019Y-46415465D01*
X161337751Y-46425451D01*
X161263214Y-46445423D01*
X161263209Y-46445426D01*
X161126290Y-46524475D01*
X161126282Y-46524481D01*
X153485339Y-54165425D01*
X153424016Y-54198910D01*
X153421850Y-54199361D01*
X153266508Y-54230261D01*
X153266498Y-54230264D01*
X153120827Y-54290602D01*
X153120814Y-54290609D01*
X152989711Y-54378210D01*
X152989707Y-54378213D01*
X152878213Y-54489707D01*
X152878210Y-54489711D01*
X152827602Y-54565451D01*
X152773989Y-54610256D01*
X152704664Y-54618963D01*
X152641637Y-54588808D01*
X152604918Y-54529365D01*
X152600500Y-54496560D01*
X152600500Y-54079765D01*
X152620185Y-54012726D01*
X152621398Y-54010874D01*
X152709390Y-53879185D01*
X152709390Y-53879184D01*
X152709394Y-53879179D01*
X152769737Y-53733497D01*
X152800500Y-53578842D01*
X152800500Y-53421158D01*
X152800500Y-53421155D01*
X152800499Y-53421153D01*
X152769737Y-53266503D01*
X152769735Y-53266498D01*
X152709397Y-53120827D01*
X152709390Y-53120814D01*
X152621789Y-52989711D01*
X152621786Y-52989707D01*
X152510292Y-52878213D01*
X152510288Y-52878210D01*
X152379185Y-52790609D01*
X152379172Y-52790602D01*
X152233501Y-52730264D01*
X152233489Y-52730261D01*
X152078845Y-52699500D01*
X152078842Y-52699500D01*
X151921158Y-52699500D01*
X151921155Y-52699500D01*
X151766510Y-52730261D01*
X151766503Y-52730263D01*
X151643474Y-52781222D01*
X151574005Y-52788690D01*
X151511526Y-52757414D01*
X151485538Y-52722954D01*
X151480051Y-52712184D01*
X151355104Y-52540208D01*
X151204792Y-52389896D01*
X151204786Y-52389890D01*
X151032820Y-52264951D01*
X151032115Y-52264591D01*
X151024054Y-52260485D01*
X150973259Y-52212512D01*
X150956463Y-52144692D01*
X150978999Y-52078556D01*
X151024054Y-52039515D01*
X151032816Y-52035051D01*
X151054789Y-52019086D01*
X151204786Y-51910109D01*
X151204788Y-51910106D01*
X151204792Y-51910104D01*
X151355104Y-51759792D01*
X151355106Y-51759788D01*
X151355109Y-51759786D01*
X151480048Y-51587820D01*
X151480047Y-51587820D01*
X151480051Y-51587816D01*
X151576557Y-51398412D01*
X151642246Y-51196243D01*
X151675500Y-50986287D01*
X151675500Y-50773713D01*
X151642246Y-50563757D01*
X151576557Y-50361588D01*
X151480051Y-50172184D01*
X151480049Y-50172181D01*
X151480048Y-50172179D01*
X151355109Y-50000213D01*
X151204786Y-49849890D01*
X151032820Y-49724951D01*
X151032115Y-49724591D01*
X151024054Y-49720485D01*
X150973259Y-49672512D01*
X150956463Y-49604692D01*
X150978999Y-49538556D01*
X151024054Y-49499515D01*
X151032816Y-49495051D01*
X151129234Y-49425000D01*
X151204786Y-49370109D01*
X151204788Y-49370106D01*
X151204792Y-49370104D01*
X151355104Y-49219792D01*
X151355106Y-49219788D01*
X151355109Y-49219786D01*
X151480048Y-49047820D01*
X151480047Y-49047820D01*
X151480051Y-49047816D01*
X151576557Y-48858412D01*
X151642246Y-48656243D01*
X151675500Y-48446287D01*
X151675500Y-48233713D01*
X151642246Y-48023757D01*
X151576557Y-47821588D01*
X151480051Y-47632184D01*
X151480049Y-47632181D01*
X151480048Y-47632179D01*
X151355109Y-47460213D01*
X151227986Y-47333090D01*
X151194501Y-47271767D01*
X151199485Y-47202075D01*
X151241357Y-47146142D01*
X151272335Y-47129227D01*
X151283948Y-47124896D01*
X151367331Y-47093796D01*
X151482546Y-47007546D01*
X151568796Y-46892331D01*
X151619091Y-46757483D01*
X151625500Y-46697873D01*
X151625499Y-44902128D01*
X151619091Y-44842517D01*
X151604893Y-44804451D01*
X151568797Y-44707671D01*
X151568793Y-44707664D01*
X151482547Y-44592455D01*
X151482544Y-44592452D01*
X151367335Y-44506206D01*
X151367328Y-44506202D01*
X151232482Y-44455908D01*
X151232483Y-44455908D01*
X151172883Y-44449501D01*
X151172881Y-44449500D01*
X151172873Y-44449500D01*
X151172864Y-44449500D01*
X147577129Y-44449500D01*
X147577123Y-44449501D01*
X147517516Y-44455908D01*
X147382671Y-44506202D01*
X147382664Y-44506206D01*
X147267455Y-44592452D01*
X147267452Y-44592455D01*
X147181206Y-44707664D01*
X147181202Y-44707671D01*
X147130908Y-44842517D01*
X147124501Y-44902116D01*
X147124501Y-44902123D01*
X147124500Y-44902135D01*
X147124500Y-46697870D01*
X147124501Y-46697876D01*
X147130908Y-46757483D01*
X147181202Y-46892328D01*
X147181206Y-46892335D01*
X147267452Y-47007544D01*
X147267455Y-47007547D01*
X147382664Y-47093793D01*
X147382673Y-47093798D01*
X147477664Y-47129227D01*
X147533598Y-47171098D01*
X147558016Y-47236562D01*
X147543165Y-47304835D01*
X147522014Y-47333090D01*
X147394889Y-47460215D01*
X147269951Y-47632179D01*
X147173444Y-47821585D01*
X147107753Y-48023760D01*
X147074500Y-48233713D01*
X138869648Y-48233713D01*
X138869737Y-48233497D01*
X138869738Y-48233492D01*
X138875476Y-48204648D01*
X138875476Y-48204646D01*
X138900499Y-48078846D01*
X138900500Y-48078844D01*
X138900500Y-47921155D01*
X138900499Y-47921153D01*
X138884110Y-47838760D01*
X138869737Y-47766503D01*
X138833074Y-47677989D01*
X138809397Y-47620827D01*
X138809390Y-47620814D01*
X138721789Y-47489711D01*
X138721786Y-47489707D01*
X138610292Y-47378213D01*
X138610288Y-47378210D01*
X138479185Y-47290609D01*
X138479172Y-47290602D01*
X138333501Y-47230264D01*
X138333491Y-47230261D01*
X138200308Y-47203769D01*
X138138397Y-47171384D01*
X138103823Y-47110668D01*
X138100500Y-47082152D01*
X138100500Y-45579765D01*
X138120185Y-45512726D01*
X138121398Y-45510874D01*
X138209390Y-45379185D01*
X138209390Y-45379184D01*
X138209394Y-45379179D01*
X138269737Y-45233497D01*
X138300500Y-45078842D01*
X138300500Y-44921158D01*
X138300500Y-44921155D01*
X138300499Y-44921153D01*
X138270412Y-44769896D01*
X138269737Y-44766503D01*
X138260938Y-44745261D01*
X138209397Y-44620827D01*
X138209390Y-44620814D01*
X138121789Y-44489711D01*
X138121786Y-44489707D01*
X138010292Y-44378213D01*
X138010288Y-44378210D01*
X137879185Y-44290609D01*
X137879172Y-44290602D01*
X137733501Y-44230264D01*
X137733489Y-44230261D01*
X137578845Y-44199500D01*
X137578842Y-44199500D01*
X137421158Y-44199500D01*
X137421155Y-44199500D01*
X137266510Y-44230261D01*
X137266498Y-44230264D01*
X137120827Y-44290602D01*
X137120814Y-44290609D01*
X136989711Y-44378210D01*
X136989707Y-44378213D01*
X136878213Y-44489707D01*
X136878210Y-44489711D01*
X136790609Y-44620814D01*
X136790602Y-44620827D01*
X136739061Y-44745261D01*
X136695220Y-44799665D01*
X136628926Y-44821730D01*
X136561227Y-44804451D01*
X136513616Y-44753314D01*
X136500500Y-44697809D01*
X136500500Y-42124500D01*
X136520185Y-42057461D01*
X136572989Y-42011706D01*
X136624500Y-42000500D01*
X230875500Y-42000500D01*
X230942539Y-42020185D01*
G37*
%TD.AperFunction*%
%TA.AperFunction,NonConductor*%
G36*
X151336475Y-54444032D02*
G01*
X151385170Y-54494137D01*
X151399500Y-54552004D01*
X151399500Y-54827995D01*
X151379815Y-54895034D01*
X151327011Y-54940789D01*
X151257853Y-54950733D01*
X151202615Y-54928314D01*
X151064536Y-54827995D01*
X151032816Y-54804949D01*
X151024054Y-54800485D01*
X150973259Y-54752512D01*
X150956463Y-54684692D01*
X150978999Y-54618556D01*
X151024054Y-54579515D01*
X151032816Y-54575051D01*
X151096485Y-54528793D01*
X151202615Y-54451686D01*
X151268421Y-54428206D01*
X151336475Y-54444032D01*
G37*
%TD.AperFunction*%
%TA.AperFunction,NonConductor*%
G36*
X179058347Y-47605501D02*
G01*
X179122872Y-47605501D01*
X179189911Y-47625186D01*
X179235666Y-47677990D01*
X179245610Y-47747148D01*
X179240803Y-47767818D01*
X179217754Y-47838755D01*
X179217753Y-47838759D01*
X179184500Y-48048713D01*
X179184500Y-48261286D01*
X179217754Y-48471244D01*
X179217754Y-48471247D01*
X179231491Y-48513523D01*
X179233486Y-48583364D01*
X179201241Y-48639522D01*
X171367584Y-56473181D01*
X171306261Y-56506666D01*
X171279903Y-56509500D01*
X168987127Y-56509500D01*
X168920088Y-56489815D01*
X168874333Y-56437011D01*
X168864389Y-56367853D01*
X168869196Y-56347182D01*
X168892246Y-56276243D01*
X168925500Y-56066287D01*
X168925500Y-55853713D01*
X168892246Y-55643757D01*
X168826557Y-55441588D01*
X168730051Y-55252184D01*
X168730049Y-55252181D01*
X168730048Y-55252179D01*
X168605109Y-55080213D01*
X168454790Y-54929894D01*
X168454785Y-54929890D01*
X168281140Y-54803730D01*
X168238474Y-54748400D01*
X168232495Y-54678787D01*
X168265100Y-54616992D01*
X168297732Y-54592927D01*
X168332816Y-54575051D01*
X168332815Y-54575051D01*
X168332818Y-54575050D01*
X168504786Y-54450109D01*
X168504788Y-54450106D01*
X168504792Y-54450104D01*
X168655104Y-54299792D01*
X168655106Y-54299788D01*
X168655109Y-54299786D01*
X168780048Y-54127820D01*
X168780047Y-54127820D01*
X168780051Y-54127816D01*
X168876557Y-53938412D01*
X168942246Y-53736243D01*
X168975500Y-53526287D01*
X168975500Y-53313713D01*
X168942246Y-53103757D01*
X168876557Y-52901588D01*
X168780051Y-52712184D01*
X168780049Y-52712181D01*
X168780048Y-52712179D01*
X168655109Y-52540213D01*
X168504786Y-52389890D01*
X168332820Y-52264951D01*
X168332115Y-52264591D01*
X168324054Y-52260485D01*
X168273259Y-52212512D01*
X168256463Y-52144692D01*
X168278999Y-52078556D01*
X168324054Y-52039515D01*
X168332816Y-52035051D01*
X168354789Y-52019086D01*
X168504786Y-51910109D01*
X168504788Y-51910106D01*
X168504792Y-51910104D01*
X168655104Y-51759792D01*
X168655106Y-51759788D01*
X168655109Y-51759786D01*
X168780048Y-51587820D01*
X168780047Y-51587820D01*
X168780051Y-51587816D01*
X168876557Y-51398412D01*
X168942246Y-51196243D01*
X168975500Y-50986287D01*
X168975500Y-50773713D01*
X168942246Y-50563757D01*
X168876557Y-50361588D01*
X168780051Y-50172184D01*
X168780049Y-50172181D01*
X168780048Y-50172179D01*
X168655109Y-50000213D01*
X168504786Y-49849890D01*
X168332820Y-49724951D01*
X168332115Y-49724591D01*
X168324054Y-49720485D01*
X168273259Y-49672512D01*
X168256463Y-49604692D01*
X168278999Y-49538556D01*
X168324054Y-49499515D01*
X168332816Y-49495051D01*
X168429234Y-49425000D01*
X168504786Y-49370109D01*
X168504788Y-49370106D01*
X168504792Y-49370104D01*
X168655104Y-49219792D01*
X168655106Y-49219788D01*
X168655109Y-49219786D01*
X168780048Y-49047820D01*
X168780047Y-49047820D01*
X168780051Y-49047816D01*
X168876557Y-48858412D01*
X168942246Y-48656243D01*
X168975500Y-48446287D01*
X168975500Y-48233713D01*
X168942246Y-48023757D01*
X168876557Y-47821588D01*
X168876554Y-47821582D01*
X168858320Y-47785794D01*
X168845424Y-47717125D01*
X168871701Y-47652385D01*
X168928807Y-47612128D01*
X168968805Y-47605500D01*
X179058331Y-47605500D01*
X179058347Y-47605501D01*
G37*
%TD.AperFunction*%
%TA.AperFunction,NonConductor*%
G36*
X151336475Y-56984032D02*
G01*
X151385170Y-57034137D01*
X151399500Y-57092004D01*
X151399500Y-57367995D01*
X151379815Y-57435034D01*
X151327011Y-57480789D01*
X151257853Y-57490733D01*
X151202615Y-57468314D01*
X151064536Y-57367995D01*
X151032816Y-57344949D01*
X151024054Y-57340485D01*
X150973259Y-57292512D01*
X150956463Y-57224692D01*
X150978999Y-57158556D01*
X151024054Y-57119515D01*
X151032816Y-57115051D01*
X151070592Y-57087605D01*
X151202615Y-56991686D01*
X151268421Y-56968206D01*
X151336475Y-56984032D01*
G37*
%TD.AperFunction*%
%TA.AperFunction,NonConductor*%
G36*
X164348234Y-47625185D02*
G01*
X164393989Y-47677989D01*
X164403933Y-47747147D01*
X164391680Y-47785794D01*
X164373445Y-47821582D01*
X164307753Y-48023760D01*
X164274500Y-48233713D01*
X164274500Y-48446286D01*
X164305105Y-48639522D01*
X164307754Y-48656243D01*
X164313333Y-48673414D01*
X164373444Y-48858414D01*
X164469951Y-49047820D01*
X164594890Y-49219786D01*
X164745213Y-49370109D01*
X164917182Y-49495050D01*
X164925946Y-49499516D01*
X164976742Y-49547491D01*
X164993536Y-49615312D01*
X164970998Y-49681447D01*
X164925946Y-49720484D01*
X164917182Y-49724949D01*
X164745213Y-49849890D01*
X164594890Y-50000213D01*
X164469951Y-50172179D01*
X164373444Y-50361585D01*
X164307753Y-50563760D01*
X164275643Y-50766498D01*
X164274500Y-50773713D01*
X164274500Y-50986287D01*
X164307754Y-51196243D01*
X164313333Y-51213414D01*
X164373444Y-51398414D01*
X164469951Y-51587820D01*
X164594890Y-51759786D01*
X164745213Y-51910109D01*
X164917182Y-52035050D01*
X164925946Y-52039516D01*
X164976742Y-52087491D01*
X164993536Y-52155312D01*
X164970998Y-52221447D01*
X164925946Y-52260484D01*
X164917182Y-52264949D01*
X164745213Y-52389890D01*
X164594890Y-52540213D01*
X164469951Y-52712179D01*
X164373444Y-52901585D01*
X164307753Y-53103760D01*
X164274500Y-53313713D01*
X164274500Y-53526286D01*
X164307753Y-53736239D01*
X164373444Y-53938414D01*
X164469951Y-54127820D01*
X164594890Y-54299786D01*
X164745213Y-54450109D01*
X164917182Y-54575050D01*
X164917184Y-54575051D01*
X164937691Y-54585500D01*
X164952268Y-54592927D01*
X165003064Y-54640900D01*
X165019860Y-54708721D01*
X164997323Y-54774856D01*
X164968859Y-54803730D01*
X164795214Y-54929890D01*
X164795209Y-54929894D01*
X164644890Y-55080213D01*
X164519951Y-55252179D01*
X164423444Y-55441585D01*
X164357753Y-55643760D01*
X164324500Y-55853713D01*
X164324500Y-56066286D01*
X164357753Y-56276239D01*
X164380804Y-56347182D01*
X164382799Y-56417023D01*
X164346719Y-56476856D01*
X164284018Y-56507684D01*
X164262873Y-56509500D01*
X154976669Y-56509500D01*
X154976653Y-56509499D01*
X154969057Y-56509499D01*
X154810943Y-56509499D01*
X154703587Y-56538265D01*
X154658210Y-56550424D01*
X154658209Y-56550425D01*
X154608096Y-56579359D01*
X154608095Y-56579360D01*
X154564689Y-56604420D01*
X154521285Y-56629479D01*
X154521282Y-56629481D01*
X153485339Y-57665425D01*
X153424016Y-57698910D01*
X153421850Y-57699361D01*
X153266508Y-57730261D01*
X153266498Y-57730264D01*
X153120827Y-57790602D01*
X153120814Y-57790609D01*
X152989711Y-57878210D01*
X152989707Y-57878213D01*
X152878213Y-57989707D01*
X152878210Y-57989711D01*
X152827602Y-58065451D01*
X152773989Y-58110256D01*
X152704664Y-58118963D01*
X152641637Y-58088808D01*
X152604918Y-58029365D01*
X152600500Y-57996560D01*
X152600500Y-55503439D01*
X152620185Y-55436400D01*
X152672989Y-55390645D01*
X152742147Y-55380701D01*
X152805703Y-55409726D01*
X152827602Y-55434548D01*
X152878210Y-55510288D01*
X152878213Y-55510292D01*
X152989707Y-55621786D01*
X152989711Y-55621789D01*
X153120814Y-55709390D01*
X153120827Y-55709397D01*
X153266498Y-55769735D01*
X153266503Y-55769737D01*
X153421153Y-55800499D01*
X153421156Y-55800500D01*
X153421158Y-55800500D01*
X153578844Y-55800500D01*
X153578845Y-55800499D01*
X153733497Y-55769737D01*
X153879179Y-55709394D01*
X154010289Y-55621789D01*
X154121789Y-55510289D01*
X154209394Y-55379179D01*
X154269737Y-55233497D01*
X154289113Y-55136085D01*
X154300638Y-55078150D01*
X154333023Y-55016239D01*
X154334518Y-55014716D01*
X161707416Y-47641819D01*
X161768739Y-47608334D01*
X161795097Y-47605500D01*
X164281195Y-47605500D01*
X164348234Y-47625185D01*
G37*
%TD.AperFunction*%
%TA.AperFunction,NonConductor*%
G36*
X151336475Y-59524032D02*
G01*
X151385170Y-59574137D01*
X151399500Y-59632004D01*
X151399500Y-59907995D01*
X151379815Y-59975034D01*
X151327011Y-60020789D01*
X151257853Y-60030733D01*
X151202615Y-60008314D01*
X151064536Y-59907995D01*
X151032816Y-59884949D01*
X151024054Y-59880485D01*
X150973259Y-59832512D01*
X150956463Y-59764692D01*
X150978999Y-59698556D01*
X151024054Y-59659515D01*
X151032816Y-59655051D01*
X151070592Y-59627605D01*
X151202615Y-59531686D01*
X151268421Y-59508206D01*
X151336475Y-59524032D01*
G37*
%TD.AperFunction*%
%TA.AperFunction,NonConductor*%
G36*
X151336476Y-62064032D02*
G01*
X151385170Y-62114138D01*
X151399500Y-62172004D01*
X151399500Y-67920234D01*
X151379815Y-67987273D01*
X151378602Y-67989125D01*
X151327602Y-68065451D01*
X151273989Y-68110256D01*
X151204664Y-68118963D01*
X151141637Y-68088808D01*
X151104918Y-68029365D01*
X151100500Y-67996560D01*
X151100500Y-62209057D01*
X151120185Y-62142018D01*
X151151611Y-62108741D01*
X151202616Y-62071684D01*
X151268422Y-62048206D01*
X151336476Y-62064032D01*
G37*
%TD.AperFunction*%
M02*
